<?xml version="1.0" encoding="UTF-8"?>
<svg width="168px" height="97px" viewBox="0 0 168 97" version="1.1" xmlns="http://www.w3.org/2000/svg" xmlns:xlink="http://www.w3.org/1999/xlink">
    <!-- Generator: Sketch 52.1 (67048) - http://www.bohemiancoding.com/sketch -->
    <title>Group Copy 2</title>
    <desc>Created with Sketch.</desc>
    <g id="Symbols" stroke="none" stroke-width="1" fill="none" fill-rule="evenodd">
        <g id="cub-logo-long-red" fill="#bad2f8">
            <g id="Group-Copy-2">
                <path d="M103.584456,26.3464977 L106.63434,27.481833 C107.430897,26.077756 108.04981,24.5538457 108.460825,22.9501014 L103.560715,26.1113487 C103.572091,26.1887187 103.578438,26.267485 103.584456,26.3464977 Z M167.295859,14.8891633 L167.295859,2.46421067 L164.138316,6.88539018 C164.417849,7.36735123 164.589806,7.91912599 164.589806,8.51574581 C164.589806,9.13823776 164.405979,9.7139956 164.103694,10.209673 L167.295859,14.8891633 Z M121.613543,35.9616535 L117.718878,34.5119101 L117.718878,37.9298254 C117.718878,38.1749948 117.748142,38.4120329 117.754984,38.6553131 L121.623188,36.0525756 C121.61717,36.0230896 121.618736,35.9914681 121.613543,35.9616535 Z M117.718878,13.7367441 L125.811317,8.51640288 L117.718878,6.97729788 L117.718878,13.7367441 Z M128.868208,4.59024369 C129.045194,4.56092193 129.224075,4.53587113 129.409386,4.53587113 C129.546391,4.53587113 129.676719,4.55993633 129.809272,4.57603455 L132.609877,0.0485739204 L125.785598,0.0485739204 L128.868208,4.59024369 Z M117.718878,31.6078237 L122.314807,33.3185062 C122.918305,32.5873512 123.821943,32.1111395 124.846348,32.1111395 C125.7992,32.1111395 126.650411,32.5210693 127.251353,33.1659837 L134.30084,30.6714986 L134.30084,18.2963191 L129.811828,11.0527763 C129.678532,11.0691209 129.547298,11.0931861 129.409386,11.0931861 C128.758489,11.0931861 128.155651,10.8988576 127.644891,10.5738542 L117.718878,16.9774969 L117.718878,31.6078237 Z M160.607349,5.31269246 C160.830744,5.26497273 161.061559,5.23721152 161.299298,5.23721152 C161.512059,5.23721152 161.718803,5.26119458 161.920271,5.29963319 L165.670018,0.0485739204 L156.675753,0.0485739204 L160.607349,5.31269246 Z M132.143384,9.63769331 L134.30084,13.1189338 L134.30084,9.25511414 L132.368758,9.2239033 C132.300338,9.36615902 132.230764,9.50775766 132.143384,9.63769331 Z M135.270261,50.6398644 L137.158654,43.8278525 C135.423588,42.3268576 134.30084,40.1410312 134.30084,37.6800566 L134.30084,33.5575976 L128.100091,35.7525409 C127.956738,37.0324317 127.084012,38.0807873 125.897461,38.4817644 L123.285217,53.6214029 C123.390155,53.7493673 123.505151,53.8678042 123.612727,53.9937153 L132.67063,52.8797348 C133.041253,51.7155705 134.035239,50.8375604 135.270261,50.6398644 Z M132.142477,5.98947485 C132.251125,6.15070347 132.343368,6.32343082 132.42234,6.50322168 L134.30084,6.53352904 L134.30084,2.50059594 L132.142477,5.98947485 Z M123.15728,38.3023843 L118.03699,41.7474859 C118.512962,44.8704588 119.55443,47.7867831 121.071129,50.3954342 L123.15728,38.3023843 Z M98.2198316,55.0810845 C98.2490132,55.2568508 98.2741554,55.4343419 98.2741554,55.6184037 C98.2741554,57.4291251 96.8008993,58.8970202 94.9836471,58.8970202 C94.8908267,58.8970202 94.8036118,58.877308 94.7127698,58.8697517 L92.5902654,62.6281116 L93.6921574,62.6281116 C103.145908,62.6281116 111.229033,55.0410854 112.035647,45.785347 L98.2198316,55.0810845 Z M137.161209,56.8395688 C136.743435,57.0307763 136.282795,57.1445316 135.792974,57.1445316 C134.608731,57.1445316 133.579215,56.5154689 132.999624,55.5801294 L126.03257,56.4370312 C130.396118,60.2872166 136.140927,62.6281116 142.508275,62.6281116 C142.94979,62.6281116 143.380589,62.585402 143.816499,62.5627331 L137.161209,56.8395688 Z M159.334242,47.7485087 C159.393017,47.9938423 159.432338,48.2464037 159.432338,48.5096425 C159.432338,49.9396738 158.507679,51.1431802 157.225998,51.5913843 L156.605437,58.2537483 C162.047714,54.5105011 165.8916,48.6465595 166.964723,41.8035011 L159.334242,47.7485087 Z M70.3454332,58.4077492 C70.2188149,58.1900947 70.1193174,57.9575739 70.0453743,57.7117475 L62.7058846,56.3284503 L62.7058846,62.6281116 L67.342124,62.6281116 L70.3454332,58.4077492 Z M167.287368,38.0992674 C167.287698,38.0421844 167.295859,37.9870727 167.295859,37.9298254 L167.295859,19.7290608 L161.845586,11.7394147 C161.667035,11.7693114 161.486422,11.7943622 161.299298,11.7943622 C160.956291,11.7943622 160.632244,11.7273411 160.321386,11.6304232 L150.713896,22.2612454 L150.713896,37.6800566 C150.713896,37.8799702 150.668805,38.0676459 150.654626,38.2641099 L155.557292,45.2897517 C155.747549,45.2556662 155.941433,45.2311082 156.141665,45.2311082 C156.687541,45.2311082 157.194509,45.3760743 157.647647,45.610402 L167.287368,38.0992674 Z M89.8348345,4.68412261 C90.1308542,4.59697866 90.4377551,4.53587113 90.7620495,4.53587113 C91.6936334,4.53587113 92.5306658,4.92518527 93.1292997,5.54513108 L99.8426226,2.75020051 C97.0562791,1.05413785 93.8336962,0.0485739204 90.4266265,0.0485739204 L86.0967933,0.0485739204 L89.8348345,4.68412261 Z M126.437072,5.86496003 L122.489896,0.0485739204 L117.718878,0.0485739204 L117.718878,4.20823946 L126.437072,5.86496003 Z M51.2591329,12.0663072 L54.1713527,9.14365859 C52.3500612,7.32874835 50.2949052,5.77453074 48.0860926,4.45882964 L51.2591329,12.0663072 Z M26.744652,5.11212176 C27.2011702,4.87319458 27.7129189,4.7251895 28.2644008,4.7251895 C28.5675097,4.7251895 28.8553684,4.77923353 29.1341594,4.85570008 L33.1382143,0.101878747 C32.7780612,0.0898050804 32.4259042,0.0485739204 32.0627011,0.0485739204 C28.6291702,0.0485739204 25.3329739,0.618089585 22.2394822,1.63441304 L26.744652,5.11212176 Z M69.545496,29.0323546 C70.0332565,28.7473504 70.593971,28.5725697 71.2002712,28.5725697 C71.4884597,28.5725697 71.7630465,28.621275 72.0294724,28.6905959 L79.2042595,19.9435121 L79.2042595,13.649518 L84.3670033,13.649518 L87.8802477,9.36656969 C87.6278355,8.90267807 87.4713763,8.37923946 87.4713763,7.81448755 C87.4713763,7.33269077 87.5815902,6.87890161 87.7688797,6.46683641 L82.5931113,0.0485739204 L62.7058846,0.0485739204 L62.7058846,24.250115 L69.545496,29.0323546 Z M43.8882359,54.9178847 L43.8882359,60.2889414 C44.933496,59.8617636 45.955757,59.3917941 46.941335,58.8599778 L43.8882359,54.9178847 Z M62.7058846,27.5749727 L62.7058846,35.8658034 L67.9621908,32.3690396 C67.9349876,32.1992691 67.9097629,32.0285951 67.9097629,31.851104 C67.9097629,31.6470837 67.9343282,31.4491412 67.970022,31.2554698 L62.7058846,27.5749727 Z M39.8035607,44.0251378 L42.1032977,47.69159 C42.2424459,47.673767 42.3796157,47.6492911 42.5236275,47.6492911 C43.1576255,47.6492911 43.7441417,47.8363919 44.2464106,48.145872 L47.0940848,46.2515384 L42.6148816,41.8521243 C41.7868345,42.7039338 40.8371152,43.4220295 39.8035607,44.0251378 Z M30.3944067,45.9386086 L29.871282,52.2408982 C30.2015117,52.4265206 30.4935745,52.6638051 30.7404636,52.9473309 L39.280601,50.4565417 C39.3516589,49.9693241 39.5191643,49.5144672 39.7804793,49.1213749 L37.2999651,45.1667975 C35.6926716,45.717833 33.9389759,46.0232064 32.0627011,46.0232064 C31.4953095,46.0232064 30.9400357,45.9919135 30.3944067,45.9386086 Z M49.0790897,48.2009837 L46.0160161,50.2384765 L52.4688483,51.5302767 L49.0790897,48.2009837 Z M91.910599,54.4737052 L86.5446559,49.1112725 L79.2042595,49.1112725 L79.2042595,41.7759041 L72.9581711,35.534065 L74.8844832,53.9810667 C75.8335431,54.5563318 76.4734763,55.5868644 76.4734763,56.7745189 C76.4734763,57.5119981 76.2201574,58.1853309 75.8076589,58.732999 L77.0577668,62.6281116 L89.4568758,62.6281116 L92.3293625,57.5412378 C91.933598,57.0000583 91.6930563,56.339292 91.6930563,55.6184037 C91.6930563,55.2141412 91.7763144,54.8313978 91.910599,54.4737052 Z M11.5081731,19.0992589 C11.6417158,18.6543402 11.8638748,18.2522953 12.1598944,17.908894 L8.72042826,10.4662589 C6.13909755,13.3298533 4.08666183,16.6618567 2.69905437,20.3292945 L11.5081731,19.0992589 Z M152.851074,48.5096425 C152.851074,47.9006205 153.028884,47.337347 153.319298,46.8487331 L149.659898,41.605148 C148.259431,44.1250947 145.594842,45.8567213 142.508275,45.8567213 C141.475792,45.8567213 140.496397,45.6444876 139.585009,45.2955011 L137.901959,51.3684732 C138.618556,51.9698567 139.083647,52.8592014 139.083647,53.865833 C139.083647,54.1832801 139.023965,54.4841362 138.939553,54.7743148 L147.493786,62.1310379 C149.685535,61.6875976 151.761877,60.9371412 153.703357,59.9597492 L154.506344,51.338905 C153.521508,50.7723461 152.851074,49.7241548 152.851074,48.5096425 Z M19.271125,2.78346469 C16.1261123,4.18565267 13.2659906,6.09205995 10.7695666,8.39336647 L14.634391,16.7568855 C14.6384302,16.7568855 14.642387,16.7556535 14.6465087,16.7556535 C16.4637609,16.7556535 17.9370171,18.2235485 17.9370171,20.0341878 C17.9370171,20.2589058 17.9137708,20.478203 17.8705755,20.6903546 L20.171549,22.3586561 C21.9850917,19.9089338 24.5683184,18.1118466 27.6750818,17.2442674 L27.1539356,11.0775807 C25.8857747,10.6221489 24.9738924,9.42439187 24.9738924,8.00388806 C24.9738924,7.74631651 25.0108228,7.49851888 25.0672899,7.25803116 L19.271125,2.78346469 Z M42.6148816,20.7413597 L49.1743831,14.158419 L44.3196118,2.51743336 C41.8496491,1.47277375 39.2092133,0.769380017 36.4620259,0.387704318 L31.2280593,6.60194649 C31.4318355,7.02854936 31.555074,7.50007942 31.555074,8.00388806 C31.555074,9.22842066 30.8733468,10.2835934 29.8748267,10.8466205 L30.372809,16.7402945 C30.9254449,16.6855113 31.4876432,16.6525756 32.0627011,16.6525756 C36.3344184,16.6525756 40.0194548,18.1545561 42.6148816,20.7413597 Z M27.1500612,52.0130591 L27.6957727,45.4366891 C21.490654,43.713358 17.3242045,38.3139651 17.3242045,31.3383428 C17.3242045,28.9034867 17.8460102,26.669612 18.7703399,24.7069431 L16.2509994,22.8801235 C15.7745323,23.1476332 15.232283,23.3128864 14.6465087,23.3128864 C14.4645774,23.3128864 14.2892408,23.2877534 14.115388,23.2595815 L9.29416722,30.4048102 C9.60106811,30.903198 9.78703867,31.4837196 9.78703867,32.1111395 C9.78703867,33.726054 8.61276977,35.0606459 7.07018685,35.3320159 L4.30717213,45.95175 C5.94587282,49.0326704 8.09558037,51.7923656 10.62844,54.1555189 L25.2381751,53.7987297 C25.5950308,52.9667145 26.2916785,52.3224571 27.1500612,52.0130591 Z M3.20593955,32.1111395 C3.20593955,32.007076 3.22712502,31.9090083 3.23668734,31.8074088 L0.708526398,30.3556942 C0.698222179,30.6848864 0.658653974,31.0066044 0.658653974,31.3383428 C0.658653974,35.0537467 1.34359607,38.6025011 2.5382261,41.909618 L4.42826732,34.64201 C3.68825947,34.0408728 3.20593955,33.136662 3.20593955,32.1111395 Z M73.358387,60.0354765 C73.2990347,60.0386798 73.2430622,60.0531353 73.1828856,60.0531353 C72.9716079,60.0531353 72.7661829,60.0290701 72.5658689,59.9911243 L70.6885225,62.6281116 L74.1912977,62.6281116 L73.358387,60.0354765 Z M94.9836471,52.3397052 C95.6113802,52.3397052 96.1919611,52.5241776 96.6910151,52.8279905 L112.007207,42.5225824 C111.49076,37.5291768 108.824522,32.9854537 104.99803,29.9196459 C105.026717,29.8832606 105.051694,29.8435079 105.080134,29.8067941 L102.651306,28.9026654 C102.05531,29.499778 101.230642,29.8700371 100.318678,29.8700371 C99.1964243,29.8700371 98.2080436,29.3081599 97.6141083,28.4535578 L74.3782575,32.6588898 C74.3488287,32.7737949 74.3143713,32.8864825 74.2731545,32.9962953 L79.5442987,38.2636992 L90.2577197,38.2636992 C93.1055588,38.2636992 95.7009032,40.6831141 95.7009032,43.6869931 C95.7009032,46.6469304 93.339918,49.0289744 90.3866461,49.0984596 L93.8442477,52.5535815 C94.2005264,52.4220032 94.5812879,52.3397052 94.9836471,52.3397052 Z M74.6024773,29.8538567 L97.1435764,25.7746002 C97.5095823,24.3615705 98.7859867,23.3128864 100.318678,23.3128864 C100.966524,23.3128864 101.566477,23.5059829 102.075671,23.8281116 L108.984197,19.3714503 C108.994336,19.1325231 109.017335,18.8968813 109.017335,18.6558186 C109.017335,13.1475985 106.423722,8.07895834 102.425437,4.62400068 L94.0214803,8.12224285 C93.8636196,9.78635546 92.4735392,11.0931861 90.7620495,11.0931861 C90.5193645,11.0931861 90.2844283,11.0631251 90.0566638,11.0134342 L87.8387011,13.7173605 C90.5269484,14.05222 92.6024656,16.3009609 92.6024656,19.072894 C92.6024656,22.076855 90.1742143,24.4962699 87.159282,24.4962699 L79.2042595,24.4962699 L79.2042595,24.2437086 L74.6024773,29.8538567 Z M72.1077021,53.6899025 L70.1507246,34.9436874 C69.9130681,34.8635248 69.6868699,34.7621717 69.4769935,34.6328931 L62.7058846,39.1367814 L62.7058846,53.5590633 L70.4150073,55.0136527 C70.8096177,54.3990456 71.4043772,53.9335934 72.1077021,53.6899025 Z M158.282964,9.82076952 C158.108205,9.42044945 158.008625,8.98013023 158.008625,8.51574581 C158.008625,7.944916 158.168216,7.41630296 158.425574,6.94896173 L153.273052,0.0485739204 L150.713896,0.0485739204 L150.713896,18.196855 L158.282964,9.82076952 Z M0.942061237,27.3503368 L4.59148616,29.4460625 C5.12994347,29.0631548 5.78454995,28.8326052 6.49644789,28.8326052 C6.67879136,28.8326052 6.8544577,28.8575739 7.02864024,28.8859922 L11.8069131,21.8038423 L1.76944887,23.2061124 C1.40492679,24.5551599 1.12341551,25.9358288 0.942061237,27.3503368 Z M28.7774685,58.3126383 C28.6091388,58.3390854 28.4401496,58.3642183 28.2644008,58.3642183 C26.9654096,58.3642183 25.8528836,57.6077661 25.3178061,56.5186721 L13.8604204,56.7986662 C18.892177,60.3778923 25.0139553,62.5190379 31.6419592,62.6069211 L28.7774685,58.3126383 Z M45.8347443,52.9784596 L49.2929229,57.4438271 C50.6623949,56.54438 51.9436628,55.5326561 53.1531309,54.4417551 L45.8347443,52.9784596 Z M41.1577001,61.2664977 C39.131231,61.8827475 37.0177119,62.2925951 34.8401417,62.4856916 L31.0528051,56.8091793 C31.2861751,56.4352242 31.4408208,56.0121531 31.5072624,55.5577069 L40.0480593,53.0665892 C40.3542183,53.418286 40.7277256,53.7066577 41.1577001,53.9030396 L41.1577001,61.2664977 Z" id="Fill-171"></path>
                <path d="M5.7472157,82.4633632 C2.59544338,82.4633632 0.0320832188,79.907524 0.0320832188,76.7672209 C0.0320832188,73.6269178 2.59544338,71.0728856 5.7472157,71.0728856 C7.26358469,71.0728856 8.6928212,71.6556248 9.77179666,72.7130152 L9.96378489,72.900773 L9.38073091,73.4409669 L9.20473484,73.2674182 C8.28213621,72.3623039 7.05379078,71.8628483 5.7472157,71.8628483 C3.03275447,71.8628483 0.824931109,74.0626375 0.824931109,76.7672209 C0.824931109,79.4718043 3.03275447,81.6734004 5.7472157,81.6734004 C7.04670147,81.6734004 8.31593405,81.14027 9.23317448,80.2121583 L9.42161806,80.0208687 L9.97623238,80.617817 L9.80204985,80.7931727 C8.72126084,81.8700287 7.28130795,82.4633632 5.7472157,82.4633632" id="Fill-173"></path>
                <path d="M9.61893974,80.6107042 C8.63055898,81.5972953 7.26174642,82.2065637 5.74719097,82.2065637 C2.73588577,82.2065637 0.289828852,79.7694079 0.289828852,76.7672538 C0.289828852,73.7668245 2.73588577,71.3296687 5.74719097,71.3296687 C7.24756781,71.3296687 8.60030579,71.9248101 9.5905001,72.895385 L9.38606438,73.0849498 C8.4545629,72.1710472 7.17469637,71.6060489 5.74719097,71.6060489 C2.87981511,71.6060489 0.567136016,73.9121191 0.567136016,76.7672538 C0.567136016,79.6241953 2.87981511,81.9302656 5.74719097,81.9302656 C7.17469637,81.9302656 8.48481609,81.3369312 9.41631757,80.3928854 L9.61893974,80.6107042 Z" id="Fill-175"></path>
                <path d="M19.801339,71.8628073 C17.0406324,71.8628073 14.8772408,74.0166015 14.8772408,76.767262 C14.8772408,79.5179224 17.0406324,81.6734415 19.801339,81.6734415 C22.524703,81.6734415 24.7396981,79.4718454 24.7396981,76.767262 C24.7396981,74.0626786 22.524703,71.8628073 19.801339,71.8628073 M19.801339,82.4633221 C16.6495666,82.4633221 14.0843929,79.9075651 14.0843929,76.767262 C14.0843929,73.6269588 16.6495666,71.0728445 19.801339,71.0728445 C22.9602006,71.0728445 25.5307325,73.6269588 25.5307325,76.767262 C25.5307325,79.9075651 22.9602006,82.4633221 19.801339,82.4633221" id="Fill-177"></path>
                <path d="M19.801339,81.9302574 C22.6828934,81.9302574 24.9973861,79.6401211 24.9973861,76.7672456 C24.9973861,73.896177 22.6828934,71.6060406 19.801339,71.6060406 C16.9197845,71.6060406 14.6194705,73.896177 14.6194705,76.7672456 C14.6194705,79.6401211 16.9197845,81.9302574 19.801339,81.9302574 M19.801339,71.3297426 C22.8287187,71.3297426 25.2729621,73.7509644 25.2729621,76.7672456 C25.2729621,79.7835267 22.8287187,82.2065555 19.801339,82.2065555 C16.7739592,82.2065555 14.3421633,79.7835267 14.3421633,76.7672456 C14.3421633,73.7509644 16.7739592,71.3297426 19.801339,71.3297426" id="Fill-179"></path>
                <polygon id="Fill-181" points="41.2380565 82.4633632 41.2380565 72.2258797 36.0223902 77.4066324 30.8227984 72.2258797 30.8227984 82.4633632 30.0157719 82.4633632 30.0157719 71.0728856 30.8014481 71.0728856 36.0223902 76.289038 41.2575933 71.0728856 42.0433519 71.0728856 42.0433519 82.4633632"></polygon>
                <polygon id="Fill-183" points="41.4958186 71.6060242 36.0223819 77.0435272 30.5650198 71.6060242 30.5650198 82.206539 30.2734516 82.206539 30.2734516 71.3297262 30.6947706 71.3297262 36.0223819 76.6521597 41.3642544 71.3297262 41.7855733 71.3297262 41.7855733 82.206539 41.4958186 82.206539"></polygon>
                <path d="M50.8053845,77.2224392 C52.2736946,77.2082301 53.4718693,76.0091589 53.4718693,74.5497237 C53.4718693,73.0690158 52.2612471,71.8627991 50.7751313,71.8627991 L47.6571568,71.8627991 L47.6571568,77.2224392 L50.8053845,77.2224392 Z M46.8643089,82.463396 L46.8643089,71.0728363 L50.8053845,71.0728363 C52.7288114,71.0728363 54.2931568,72.6332961 54.2931568,74.5497237 C54.2931568,76.4590878 52.7288114,78.010595 50.8053845,78.010595 L47.6571568,78.010595 L47.6571568,82.463396 L46.8643089,82.463396 Z" id="Fill-185"></path>
                <path d="M47.3994029,71.6060242 L47.3994029,77.4792469 L50.805401,77.4792469 C52.4052754,77.463313 53.7296561,76.1738947 53.7296561,74.5496991 C53.7296561,72.9255035 52.4052754,71.6060242 50.7751478,71.6060242 L47.3994029,71.6060242 Z M54.0354029,74.5496991 C54.0354029,76.3191072 52.5812714,77.7538202 50.805401,77.7538202 L47.3994029,77.7538202 L47.3994029,82.206539 L47.1220958,82.206539 L47.1220958,71.3297262 L50.805401,71.3297262 C52.5812714,71.3297262 54.0354029,72.7802909 54.0354029,74.5496991 Z" id="Fill-187"></path>
                <path d="M62.7298811,82.4633632 C60.2127662,82.4633632 58.1648644,80.4229957 58.1648644,77.9132336 L58.1648644,71.0728856 L58.9718909,71.0728856 L58.9718909,77.9132336 C58.9718909,79.971342 60.6571666,81.6450643 62.7298811,81.6450643 C64.7973197,81.6450643 66.4896024,79.9765986 66.5038634,77.9255537 L66.5038634,71.0728856 L67.3108899,71.0728856 L67.3108899,77.9132336 C67.3108899,80.4229957 65.2558987,82.4633632 62.7298811,82.4633632" id="Fill-189"></path>
                <path d="M58.4226265,71.3297015 L58.7141947,71.3297015 L58.7141947,77.9132172 C58.7141947,80.1182629 60.5185048,81.9018802 62.7298728,81.9018802 C64.9288758,81.9018802 66.7473645,80.1324721 66.7616255,77.9273442 L66.7616255,71.3297015 L67.0531113,71.3297015 L67.0531113,77.9132172 C67.0531113,80.2918937 65.1172369,82.2065144 62.7298728,82.2065144 C60.3442398,82.2065144 58.4226265,80.2918937 58.4226265,77.9132172 L58.4226265,71.3297015 Z" id="Fill-191"></path>
                <polygon id="Fill-193" points="75.5360974 82.4633632 75.5360974 71.8628483 71.3728628 71.8628483 71.3728628 71.0728856 80.5046273 71.0728856 80.5046273 71.8628483 76.3271317 71.8628483 76.3271317 82.4633632"></polygon>
                <polygon id="Fill-195" points="80.2468816 71.3297015 80.2468816 71.6059996 76.0693861 71.6059996 76.0693861 82.2065144 75.7938924 82.2065144 75.7938924 71.6059996 71.6305755 71.6059996 71.6305755 71.3297015"></polygon>
                <path d="M91.4052059,78.1646944 L88.6515886,72.2719239 L85.8980538,78.1646944 L91.4052059,78.1646944 Z M93.4193099,82.4633303 L91.7891823,78.9688663 L85.5122638,78.9688663 L83.8822186,82.4633303 L82.9916043,82.4633303 L88.3280361,71.0728528 L88.9751411,71.0728528 L94.3116553,82.4633303 L93.4193099,82.4633303 Z" id="Fill-197"></path>
                <path d="M85.4927352,78.4215185 L91.8105409,78.4215185 L88.6515969,71.6626472 L85.4927352,78.4215185 Z M83.3968569,82.2064898 L88.4916754,71.3296769 L88.8116008,71.3296769 L93.9063368,82.2064898 L93.5845978,82.2064898 L91.9544703,78.7120257 L85.3469923,78.7120257 L83.7168648,82.2064898 L83.3968569,82.2064898 Z" id="Fill-199"></path>
                <polygon id="Fill-201" points="101.093415 82.4633632 101.093415 71.8628483 96.9301802 71.8628483 96.9301802 71.0728856 106.061945 71.0728856 106.061945 71.8628483 101.884449 71.8628483 101.884449 82.4633632"></polygon>
                <polygon id="Fill-203" points="105.804191 71.3297015 105.804191 71.6059996 101.626695 71.6059996 101.626695 82.2065144 101.351202 82.2065144 101.351202 71.6059996 97.1878846 71.6059996 97.1878846 71.3297015"></polygon>
                <polygon id="Fill-205" points="110.850983 82.4633878 111.643831 82.4633878 111.643831 71.0729102 110.850983 71.0729102"></polygon>
                <polygon id="Fill-207" points="111.108671 82.2065555 111.385978 82.2065555 111.385978 71.3297426 111.108671 71.3297426"></polygon>
                <path d="M122.320363,71.8628073 C119.559657,71.8628073 117.396265,74.0166015 117.396265,76.767262 C117.396265,79.5179224 119.559657,81.6734415 122.320363,81.6734415 C125.041996,81.6734415 127.256909,79.4718454 127.256909,76.767262 C127.256909,74.0626786 125.041996,71.8628073 122.320363,71.8628073 M122.320363,82.4633221 C119.168591,82.4633221 116.603417,79.9075651 116.603417,76.767262 C116.603417,73.6269588 119.168591,71.0728445 122.320363,71.0728445 C125.479225,71.0728445 128.049757,73.6269588 128.049757,76.767262 C128.049757,79.9075651 125.479225,82.4633221 122.320363,82.4633221" id="Fill-208"></path>
                <path d="M122.320363,81.9302574 C125.201918,81.9302574 127.514679,79.6401211 127.514679,76.7672456 C127.514679,73.896177 125.201918,71.6060406 122.320363,71.6060406 C119.436995,71.6060406 117.138495,73.896177 117.138495,76.7672456 C117.138495,79.6401211 119.436995,81.9302574 122.320363,81.9302574 M122.320363,71.3297426 C125.347743,71.3297426 127.791986,73.7509644 127.791986,76.7672456 C127.791986,79.7835267 125.347743,82.2065555 122.320363,82.2065555 C119.293066,82.2065555 116.861187,79.7835267 116.861187,76.7672456 C116.861187,73.7509644 119.293066,71.3297426 122.320363,71.3297426" id="Fill-209"></path>
                <polygon id="Fill-210" points="141.415921 82.4633632 133.341781 72.3552404 133.341781 82.4633632 132.534755 82.4633632 132.534755 71.0728856 133.398743 71.0728856 141.442547 81.1774766 141.442547 71.0728856 142.249656 71.0728856 142.249656 82.4633632"></polygon>
                <polygon id="Fill-211" points="133.08406 71.6201759 133.08406 82.2065637 132.792492 82.2065637 132.792492 71.3296687 133.274235 71.3296687 141.700367 81.9160565 141.700367 71.3296687 141.991852 71.3296687 141.991852 82.2065637 141.540363 82.2065637"></polygon>
                <path d="M153.966155,78.1646944 L151.212538,72.2719239 L148.459003,78.1646944 L153.966155,78.1646944 Z M155.980259,82.4633303 L154.350132,78.9688663 L148.073213,78.9688663 L146.443086,82.4633303 L145.552554,82.4633303 L150.889068,71.0728528 L151.536091,71.0728528 L156.872605,82.4633303 L155.980259,82.4633303 Z" id="Fill-212"></path>
                <path d="M148.053677,78.4215185 L154.371482,78.4215185 L151.212538,71.6626472 L148.053677,78.4215185 Z M145.957798,82.2064898 L151.052617,71.3296769 L151.372542,71.3296769 L156.467278,82.2064898 L156.145539,82.2064898 L154.515412,78.7120257 L147.907934,78.7120257 L146.277806,82.2064898 L145.957798,82.2064898 Z" id="Fill-213"></path>
                <polygon id="Fill-214" points="160.552365 82.4633632 160.552365 71.0728856 161.345213 71.0728856 161.345213 81.6734004 167.87982 81.6734004 167.87982 82.4633632"></polygon>
                <polygon id="Fill-215" points="161.087435 81.9302574 167.622041 81.9302574 167.622041 82.2065555 160.810128 82.2065555 160.810128 71.3297426 161.087435 71.3297426"></polygon>
                <path d="M6.33028616,90.5718322 C7.4875737,90.5718322 8.42970913,89.6331251 8.42970913,88.4783241 C8.42970913,87.3252479 7.4875737,86.3865409 6.33028616,86.3865409 L1.49332051,86.3865409 L1.49332051,90.5718322 L6.33028616,90.5718322 Z M6.60577978,96.168839 C7.9337052,96.168839 9.0127631,95.0937077 9.0127631,93.7723394 C9.0127631,92.4493284 7.9337052,91.3741971 6.60577978,91.3741971 L1.49332051,91.3741971 L1.49332051,96.168839 L6.60577978,96.168839 Z M0.688025123,96.9729287 L0.688025123,85.582369 L6.33028616,85.582369 C7.9337052,85.582369 9.23673562,86.8807399 9.23673562,88.4783241 C9.23673562,89.4471743 8.75144809,90.3380794 7.96214485,90.8782733 C9.08027635,91.3901311 9.8197896,92.5095324 9.8197896,93.7723394 C9.8197896,95.5364909 8.37810559,96.9729287 6.60577978,96.9729287 L0.688025123,96.9729287 Z" id="Fill-216"></path>
                <path d="M1.23552542,91.1173648 L1.23552542,96.4255892 L6.60583749,96.4255892 C8.07596114,96.4255892 9.27050873,95.2371133 9.27050873,93.7723394 C9.27050873,92.3076476 8.07596114,91.1173648 6.60583749,91.1173648 L1.23552542,91.1173648 Z M6.33026143,90.8286645 C7.62620255,90.8286645 8.68745476,89.7694672 8.68745476,88.4783241 C8.68745476,87.1889058 7.62620255,86.1297086 6.33026143,86.1297086 L1.23552542,86.1297086 L1.23552542,90.8286645 L6.33026143,90.8286645 Z M8.97902296,88.4783241 C8.97902296,89.5817915 8.29457547,90.5240303 7.33463435,90.9296069 C8.61458332,91.2484503 9.56207694,92.40859 9.56207694,93.7723394 C9.56207694,95.396535 8.23588263,96.7160964 6.60583749,96.7160964 L0.945770756,96.7160964 L0.945770756,85.8392014 L6.33026143,85.8392014 C7.78620648,85.8392014 8.97902296,87.0294842 8.97902296,88.4783241 Z" id="Fill-217"></path>
                <polygon id="Fill-218" points="16.6193052 96.9728959 17.4103395 96.9728959 17.4103395 85.5824183 16.6193052 85.5824183"></polygon>
                <polygon id="Fill-219" points="16.8770756 96.7161456 17.1525692 96.7161456 17.1525692 85.8392506 16.8770756 85.8392506"></polygon>
                <path d="M30.35882,86.372381 C27.5981134,86.372381 25.4347219,88.5261753 25.4347219,91.2767536 C25.4347219,94.0274141 27.5981134,96.1829331 30.35882,96.1829331 C33.0821841,96.1829331 35.2971792,93.9814191 35.2971792,91.2767536 C35.2971792,88.5721702 33.0821841,86.372381 30.35882,86.372381 M30.35882,96.9728959 C27.2070477,96.9728959 24.641874,94.4170567 24.641874,91.2767536 C24.641874,88.1364505 27.2070477,85.5824183 30.35882,85.5824183 C33.5176816,85.5824183 36.0882135,88.1364505 36.0882135,91.2767536 C36.0882135,94.4170567 33.5176816,96.9728959 30.35882,96.9728959" id="Fill-220"></path>
                <path d="M30.35882,96.4397819 C33.2403745,96.4397819 35.5548671,94.1496456 35.5548671,91.27677 C35.5548671,88.4057014 33.2403745,86.1155651 30.35882,86.1155651 C27.4772656,86.1155651 25.1769515,88.4057014 25.1769515,91.27677 C25.1769515,94.1496456 27.4772656,96.4397819 30.35882,96.4397819 M30.35882,85.8392671 C33.3861998,85.8392671 35.8304432,88.2604889 35.8304432,91.27677 C35.8304432,94.2931333 33.3861998,96.7160799 30.35882,96.7160799 C27.3314402,96.7160799 24.8996444,94.2931333 24.8996444,91.27677 C24.8996444,88.2604889 27.3314402,85.8392671 30.35882,85.8392671" id="Fill-221"></path>
                <polygon id="Fill-222" points="42.8450532 96.9728876 42.8450532 85.5824101 43.6360875 85.5824101 43.6360875 96.1829249 50.1725076 96.1829249 50.1725076 96.9728876"></polygon>
                <polygon id="Fill-223" points="43.3783501 96.4397819 49.9147702 96.4397819 49.9147702 96.7160799 43.1027741 96.7160799 43.1027741 85.8392671 43.3783501 85.8392671"></polygon>
                <path d="M61.4197531,86.372381 C58.6590465,86.372381 56.495655,88.5261753 56.495655,91.2767536 C56.495655,94.0274141 58.6590465,96.1829331 61.4197531,96.1829331 C64.1431172,96.1829331 66.3581123,93.9814191 66.3581123,91.2767536 C66.3581123,88.5721702 64.1431172,86.372381 61.4197531,86.372381 M61.4197531,96.9728959 C58.2679808,96.9728959 55.7028071,94.4170567 55.7028071,91.2767536 C55.7028071,88.1364505 58.2679808,85.5824183 61.4197531,85.5824183 C64.5786147,85.5824183 67.1491466,88.1364505 67.1491466,91.2767536 C67.1491466,94.4170567 64.5786147,96.9728959 61.4197531,96.9728959" id="Fill-224"></path>
                <path d="M61.4197531,96.4397819 C64.3013076,96.4397819 66.6158002,94.1496456 66.6158002,91.27677 C66.6158002,88.4057014 64.3013076,86.1155651 61.4197531,86.1155651 C58.5363851,86.1155651 56.2378846,88.4057014 56.2378846,91.27677 C56.2378846,94.1496456 58.5363851,96.4397819 61.4197531,96.4397819 M61.4197531,85.8392671 C64.4471329,85.8392671 66.8913763,88.2604889 66.8913763,91.27677 C66.8913763,94.2931333 64.4471329,96.7160799 61.4197531,96.7160799 C58.3923733,96.7160799 55.9605774,94.2931333 55.9605774,91.27677 C55.9605774,88.2604889 58.3923733,85.8392671 61.4197531,85.8392671" id="Fill-225"></path>
                <path d="M79.2158332,96.9728876 C76.0640608,96.9728876 73.4988871,94.4170485 73.4988871,91.2767454 C73.4988871,88.1364423 76.0640608,85.5824101 79.2158332,85.5824101 C80.7303886,85.5824101 82.1596251,86.1651493 83.238683,87.2225396 L83.4306712,87.4102975 L82.8476173,87.9504914 L82.6716212,87.7769427 C81.7490226,86.8718284 80.5205947,86.3723728 79.2158332,86.3723728 C76.5013719,86.3723728 74.291735,88.572162 74.291735,91.2767454 C74.291735,93.9814109 76.5013719,96.1829249 79.2158332,96.1829249 C81.8307969,96.1829249 84.0492542,94.0238741 84.1345731,91.4326353 L78.9580628,91.4326353 L78.9580628,90.6143364 L84.9594053,90.6143364 L84.9594053,91.2767454 C84.9594053,94.4170485 82.3835976,96.9728876 79.2158332,96.9728876" id="Fill-226"></path>
                <path d="M79.2158332,90.8711688 L84.7016349,90.8711688 L84.7016349,91.2767454 C84.7016349,94.2788995 82.2272208,96.7161374 79.2158332,96.7161374 C76.2027144,96.7161374 73.7566575,94.2788995 73.7566575,91.2767454 C73.7566575,88.2763982 76.2027144,85.8392424 79.2158332,85.8392424 C80.7143965,85.8392424 82.0672169,86.4343838 83.0573288,87.4049588 L82.852893,87.5944414 C81.9213916,86.6805388 80.641525,86.1155405 79.2158332,86.1155405 C76.3484573,86.1155405 74.0339647,88.4216108 74.0339647,91.2767454 C74.0339647,94.133687 76.3484573,96.4397572 79.2158332,96.4397572 C82.0813955,96.4397572 84.3958881,94.0610807 84.3958881,91.2767454 L84.3958881,91.175803 L79.2158332,91.175803 L79.2158332,90.8711688 Z" id="Fill-227"></path>
                <polygon id="Fill-228" points="94.2334504 96.9728876 94.2334504 92.6990561 90.0097095 85.5824101 90.9590167 85.5824101 94.6227851 91.9090934 98.3007321 85.5824101 99.2499568 85.5824101 94.9907694 92.8283347 95.0262983 96.9728876"></polygon>
                <polygon id="Fill-229" points="94.4912126 92.6990479 90.4594599 85.8392342 90.8097209 85.8392342 94.6227768 92.4227499 98.4500114 85.8392342 98.8002724 85.8392342 94.7685197 92.6990479 94.7685197 96.7161292 94.4912126 96.7161292"></polygon>
                <path d="M122.217263,96.9728876 C119.700066,96.9728876 117.652247,94.9325202 117.652247,92.4227581 L117.652247,85.5824101 L118.459273,85.5824101 L118.459273,92.4227581 C118.459273,94.4808665 120.144549,96.1546709 122.217263,96.1546709 C124.284702,96.1546709 125.976984,94.4862052 125.991246,92.4350782 L125.991246,85.5824101 L126.798272,85.5824101 L126.798272,92.4227581 C126.798272,94.9325202 124.743281,96.9728876 122.217263,96.9728876" id="Fill-230"></path>
                <path d="M117.910009,85.839226 L118.201577,85.839226 L118.201577,92.4227417 C118.201577,94.6278695 120.005887,96.4114047 122.217255,96.4114047 C124.416258,96.4114047 126.234747,94.6419965 126.249008,92.4369508 L126.249008,85.839226 L126.540493,85.839226 L126.540493,92.4227417 C126.540493,94.8014182 124.604619,96.716121 122.217255,96.716121 C119.831622,96.716121 117.910009,94.8014182 117.910009,92.4227417 L117.910009,85.839226 Z" id="Fill-231"></path>
                <polygon id="Fill-232" points="142.638949 96.9728876 134.56481 86.8647649 134.56481 96.9728876 133.757783 96.9728876 133.757783 85.5824101 134.621772 85.5824101 142.665575 95.6870011 142.665575 85.5824101 143.472684 85.5824101 143.472684 96.9728876"></polygon>
                <polygon id="Fill-233" points="134.307081 86.1297086 134.307081 96.7160964 134.015595 96.7160964 134.015595 85.8392014 134.497255 85.8392014 142.923387 96.4255892 142.923387 85.8392014 143.214873 85.8392014 143.214873 96.7160964 142.763383 96.7160964"></polygon>
                <polygon id="Fill-234" points="150.766398 96.9728959 151.559246 96.9728959 151.559246 85.5824183 150.766398 85.5824183"></polygon>
                <polygon id="Fill-235" points="151.024169 96.7161456 151.301476 96.7161456 151.301476 85.8392506 151.024169 85.8392506"></polygon>
                <polygon id="Fill-236" points="162.953974 96.9728876 162.953974 86.3723728 158.79074 86.3723728 158.79074 85.5824101 167.922504 85.5824101 167.922504 86.3723728 163.745008 86.3723728 163.745008 96.9728876"></polygon>
                <polygon id="Fill-237" points="167.66475 85.839226 167.66475 86.115524 163.487255 86.115524 163.487255 96.716121 163.211679 96.716121 163.211679 86.115524 159.048444 86.115524 159.048444 85.839226"></polygon>
            </g>
        </g>
    </g>
</svg>