<?xml version="1.0" encoding="UTF-8"?>
<svg width="116px" height="180px" viewBox="0 0 116 180" version="1.1" xmlns="http://www.w3.org/2000/svg" xmlns:xlink="http://www.w3.org/1999/xlink">
    <g id="Page-1" stroke="none" stroke-width="1" fill="none" fill-rule="evenodd">
        <g id="PEPRMINT_LOGO_1.0" transform="translate(-122.000000, -369.000000)">
            <g id="P1-copy" transform="translate(123.000000, 370.000000)">
                <path d="M52.7559928,83.5626976 L52.7559928,51.2917315 C61.9214982,51.2917315 66.5042509,48.4675208 66.5042509,42.818167 C66.5042509,37.6499267 63.000133,35.0653404 55.9976776,35.0653404 C48.9166078,35.0653404 45.3789632,38.613086 45.3789632,45.7029831 L44.44484,166 L11.2453168,166 L0,49.4884883 C0,41.5557103 0.987303439,35.0522869 2.96191032,29.9726237 C4.9353611,24.8948252 8.30768444,20.1620113 13.0777242,15.7751142 C18.4419958,10.9071036 25.1484915,7.06285772 33.196055,4.23678224 C41.2436185,1.41257154 49.5513029,0 58.1214205,0 C73.6176913,0 86.6399231,4.20694575 97.1846475,12.6199049 C107.728216,21.0347287 113,31.4597864 113,43.8997399 C113,55.9788583 108.266955,65.7745525 98.8054899,73.2868224 C90.1602263,80.1977005 77.1218092,83.6531395 59.6856143,83.6531395 L52.7559928,83.5626976 Z" id="Fill-86" fill="#00A69D"></path>
                <path d="M53.2228599,83.5626976 L53.2228599,51.2917315 C62.4694761,51.2917315 67.0927841,48.4675208 67.0927841,42.818167 C67.0927841,37.6499267 63.5576563,35.0653404 56.4932323,35.0653404 C49.3494982,35.0653404 45.7805469,38.613086 45.7805469,45.7029831 L44.8381572,166 L11.3448329,166 L0,49.4884883 C0,41.5557103 0.996040637,35.0522869 2.98812191,29.9726237 C4.97903686,24.8948252 8.38120377,20.1620113 13.1934563,15.7751142 C18.6051993,10.9071036 25.3710445,7.06285772 33.4898254,4.23678224 C41.6086062,1.41257154 49.98981,0 58.6357693,0 C74.2691753,0 87.406648,4.20694575 98.0446886,12.6199049 C108.681563,21.0347287 114,31.4597864 114,43.8997399 C114,55.9788583 109.22507,65.7745525 99.6798748,73.2868224 C90.9581044,80.1977005 77.8043031,83.6531395 60.2138056,83.6531395 L53.2228599,83.5626976 Z" id="Stroke-87" stroke="#231F20"></path>
                <path d="M53,161 C53,167.073393 47.8512217,172 41.4988624,172 C35.1465031,172 30,167.073393 30,161 C30,154.924431 35.1465031,150 41.4988624,150 C47.8512217,150 53,154.924431 53,161" id="Fill-205" fill="#F6931D"></path>
                <path d="M53,161 C53,167.073393 47.8512217,172 41.4988624,172 C35.1465031,172 30,167.073393 30,161 C30,154.924431 35.1465031,150 41.4988624,150 C47.8512217,150 53,154.924431 53,161 Z" id="Stroke-206" stroke="#231F20" stroke-width="0.25"></path>
                <path d="M23,161 C23,167.073393 17.8512217,172 11.4988624,172 C5.14650312,172 0,167.073393 0,161 C0,154.924431 5.14650312,150 11.4988624,150 C17.8512217,150 23,154.924431 23,161" id="Fill-205" fill="#F6931D"></path>
                <path d="M23,161 C23,167.073393 17.8512217,172 11.4988624,172 C5.14650312,172 0,167.073393 0,161 C0,154.924431 5.14650312,150 11.4988624,150 C17.8512217,150 23,154.924431 23,161 Z" id="Stroke-206" stroke="#231F20" stroke-width="0.25"></path>
                <path d="M78,110 L76,124" id="Stroke-207" stroke="#231F20" stroke-width="1.5"></path>
                <path d="M76,124 L83,138" id="Stroke-208" stroke="#231F20" stroke-width="1.5"></path>
                <path d="M83,136 L81,151" id="Stroke-209" stroke="#231F20" stroke-width="1.5"></path>
                <path d="M81,150 L88,163" id="Stroke-210" stroke="#231F20" stroke-width="1.5"></path>
                <path d="M87,163 L85,178" id="Stroke-211" stroke="#231F20" stroke-width="1.5"></path>
                <path d="M90,107 L97,120" id="Stroke-214" stroke="#231F20" stroke-width="1.5"></path>
                <path d="M97,120 L95,134" id="Stroke-215" stroke="#231F20" stroke-width="1.5"></path>
                <path d="M95,133 L102,146" id="Stroke-216" stroke="#231F20" stroke-width="1.5"></path>
                <path d="M101,145 L103,160" id="Stroke-217" stroke="#231F20" stroke-width="1.5"></path>
                <path d="M103,160 L114,170" id="Stroke-218" stroke="#231F20" stroke-width="1.5"></path>
                <path d="M99,147 L101,161" id="Stroke-220" stroke="#231F20" stroke-width="1.5"></path>
                <path d="M101.700004,102.654581 C103.547246,112.982489 96.6723725,122.852505 86.3443992,124.699735 C76.0173473,126.547887 66.147269,119.673057 64.3000266,109.345149 C62.4527843,99.0172414 69.3267369,89.1481471 79.6547102,87.2999952 C89.9826835,85.4527646 99.8527618,92.3275949 101.700004,102.654581" id="Fill-222" fill="#1C75BB"></path>
                <path d="M101.700004,102.654581 C103.547246,112.982489 96.6723725,122.852505 86.3443992,124.699735 C76.0173473,126.547887 66.147269,119.673057 64.3000266,109.345149 C62.4527843,99.0172414 69.3267369,89.1481471 79.6547102,87.2999952 C89.9826835,85.4527646 99.8527618,92.3275949 101.700004,102.654581 Z" id="Stroke-223" stroke="#231F20"></path>
            </g>
        </g>
    </g>
</svg>