<?xml version="1.0" encoding="UTF-8"?>
<svg width="824px" height="366px" viewBox="0 0 824 366" version="1.1" xmlns="http://www.w3.org/2000/svg" xmlns:xlink="http://www.w3.org/1999/xlink">
    <title>PEPRMINT_LOGO</title>
    <defs>
        <polygon id="path-1" points="0 366.342 824.282 366.342 824.282 0 0 0"></polygon>
    </defs>
    <g id="PEPRMINT_LOGO_1.0" stroke="none" stroke-width="1" fill="none" fill-rule="evenodd">
        <path d="M236.6555,178.9359 L181.8385,178.9359 C180.9995,176.1649 180.5815,173.6179 180.5815,171.2979 C180.5815,168.0759 181.1615,164.9169 182.3215,161.8229 L200.6905,161.8229 C199.4005,154.6689 195.3735,151.0919 188.6055,151.0919 C184.0935,151.0919 180.4195,153.0109 177.5845,156.8439 C174.7475,160.6799 173.3305,165.5939 173.3305,171.5879 C173.3305,177.8399 174.6985,182.8999 177.4395,186.7669 C180.1775,190.6339 183.7715,192.5679 188.2185,192.5679 C191.8275,192.5679 195.3085,190.7639 198.6605,187.1539 L219.2535,211.9039 C209.6485,219.4449 198.9825,223.2149 187.2525,223.2149 C172.9435,223.2149 160.9225,218.4149 151.1905,208.8099 C141.4575,199.2069 136.5925,187.3149 136.5925,173.1349 C136.5925,159.0189 141.5065,147.0969 151.3355,137.3629 C161.1635,127.6319 173.2335,122.7649 187.5425,122.7649 C201.5275,122.7649 213.2745,127.5189 222.7815,137.0249 C232.2885,146.5329 237.0425,158.2459 237.0425,172.1679 C237.0425,173.5869 236.9125,175.8419 236.6555,178.9359" id="Fill-1" fill="#FEFEFE"></path>
        <path d="M236.6555,178.9359 L181.8385,178.9359 C180.9995,176.1649 180.5815,173.6179 180.5815,171.2979 C180.5815,168.0759 181.1615,164.9169 182.3215,161.8229 L200.6905,161.8229 C199.4005,154.6689 195.3735,151.0919 188.6055,151.0919 C184.0935,151.0919 180.4195,153.0109 177.5845,156.8439 C174.7475,160.6799 173.3305,165.5939 173.3305,171.5879 C173.3305,177.8399 174.6985,182.8999 177.4395,186.7669 C180.1775,190.6339 183.7715,192.5679 188.2185,192.5679 C191.8275,192.5679 195.3085,190.7639 198.6605,187.1539 L219.2535,211.9039 C209.6485,219.4449 198.9825,223.2149 187.2525,223.2149 C172.9435,223.2149 160.9225,218.4149 151.1905,208.8099 C141.4575,199.2069 136.5925,187.3149 136.5925,173.1349 C136.5925,159.0189 141.5065,147.0969 151.3355,137.3629 C161.1635,127.6319 173.2335,122.7649 187.5425,122.7649 C201.5275,122.7649 213.2745,127.5189 222.7815,137.0249 C232.2885,146.5329 237.0425,158.2459 237.0425,172.1679 C237.0425,173.5869 236.9125,175.8419 236.6555,178.9359 Z" id="Stroke-3" stroke="#231F20"></path>
        <path d="M415.8039,123.9247 L415.8039,162.5967 C413.2899,161.1797 411.0019,160.4697 408.9389,160.4697 C402.3649,160.4697 399.0779,165.4967 399.0779,175.5517 L399.0779,221.2817 L362.9189,221.2817 L362.9189,168.5907 C362.9189,154.6687 366.7219,143.5677 374.3269,135.2847 C381.9319,127.0037 392.0829,122.8617 404.7819,122.8617 C407.6179,122.8617 411.2919,123.2167 415.8039,123.9247" id="Fill-5" fill="#FEFEFE"></path>
        <path d="M415.8039,123.9247 L415.8039,162.5967 C413.2899,161.1797 411.0019,160.4697 408.9389,160.4697 C402.3649,160.4697 399.0779,165.4967 399.0779,175.5517 L399.0779,221.2817 L362.9189,221.2817 L362.9189,168.5907 C362.9189,154.6687 366.7219,143.5677 374.3269,135.2847 C381.9319,127.0037 392.0829,122.8617 404.7819,122.8617 C407.6179,122.8617 411.2919,123.2167 415.8039,123.9247 Z" id="Stroke-7" stroke="#231F20"></path>
        <path d="M426.4387,221.2816 L426.4387,126.1486 C426.4387,114.3536 430.0157,104.7186 437.1697,97.2406 C444.3247,89.7656 453.6057,86.0266 465.0137,86.0266 C478.5487,86.0266 488.9567,92.2476 496.2417,104.6856 C500.6887,97.9836 505.4587,93.1976 510.5497,90.3286 C515.6397,87.4616 521.9237,86.0266 529.4027,86.0266 C541.2597,86.0266 550.3477,89.7656 556.6667,97.2406 C562.9827,104.7186 566.1407,115.4826 566.1407,129.5316 L566.1407,221.2816 L526.8887,221.2816 L526.8887,135.4296 C526.8887,131.1756 526.5497,128.3576 525.8737,126.9696 C525.1967,125.5856 523.8277,124.8916 521.7647,124.8916 C517.8977,124.8916 515.9637,128.1786 515.9637,134.7526 L515.9637,221.2816 L476.7117,221.2816 L476.7117,135.4296 C476.7117,131.2406 476.3577,128.4376 475.6487,127.0186 C474.9377,125.6016 473.5537,124.8916 471.4917,124.8916 C467.6247,124.8916 465.6907,128.4056 465.6907,135.4296 L465.6907,221.2816 L426.4387,221.2816 Z" id="Fill-9" fill="#FEFEFE"></path>
        <path d="M426.4387,221.2816 L426.4387,126.1486 C426.4387,114.3536 430.0157,104.7186 437.1697,97.2406 C444.3247,89.7656 453.6057,86.0266 465.0137,86.0266 C478.5487,86.0266 488.9567,92.2476 496.2417,104.6856 C500.6887,97.9836 505.4587,93.1976 510.5497,90.3286 C515.6397,87.4616 521.9237,86.0266 529.4027,86.0266 C541.2597,86.0266 550.3477,89.7656 556.6667,97.2406 C562.9827,104.7186 566.1407,115.4826 566.1407,129.5316 L566.1407,221.2816 L526.8887,221.2816 L526.8887,135.4296 C526.8887,131.1756 526.5497,128.3576 525.8737,126.9696 C525.1967,125.5856 523.8277,124.8916 521.7647,124.8916 C517.8977,124.8916 515.9637,128.1786 515.9637,134.7526 L515.9637,221.2816 L476.7117,221.2816 L476.7117,135.4296 C476.7117,131.2406 476.3577,128.4376 475.6487,127.0186 C474.9377,125.6016 473.5537,124.8916 471.4917,124.8916 C467.6247,124.8916 465.6907,128.4056 465.6907,135.4296 L465.6907,221.2816 L426.4387,221.2816 Z" id="Stroke-11" stroke="#231F20"></path>
        <mask id="mask-2" fill="white">
            <use xlink:href="#path-1"></use>
        </mask>
        <g id="Clip-14"></g>
        <polygon id="Fill-13" fill="#FEFEFE" mask="url(#mask-2)" points="589.924 221.282 629.176 221.282 629.176 89.314 589.924 89.314"></polygon>
        <polygon id="Stroke-15" stroke="#231F20" mask="url(#mask-2)" points="589.924 221.282 629.176 221.282 629.176 89.314 589.924 89.314"></polygon>
        <path d="M738.8107,221.2816 L702.6527,221.2816 L702.6527,166.8506 C702.6527,161.3086 700.3647,158.5356 695.7887,158.5356 C691.2767,158.5356 689.0207,161.3086 689.0207,166.8506 L689.0207,221.2816 L652.8627,221.2816 L652.8627,167.5276 C652.8627,154.9586 657.0197,144.3726 665.3337,135.7676 C673.6487,127.1636 683.8317,122.8616 695.8847,122.8616 C709.6757,122.8616 720.7317,127.8576 729.0457,137.8466 C735.5557,145.6466 738.8107,156.5056 738.8107,170.4276 L738.8107,221.2816 Z" id="Fill-16" fill="#FEFEFE" mask="url(#mask-2)"></path>
        <path d="M738.8107,221.2816 L702.6527,221.2816 L702.6527,166.8506 C702.6527,161.3086 700.3647,158.5356 695.7887,158.5356 C691.2767,158.5356 689.0207,161.3086 689.0207,166.8506 L689.0207,221.2816 L652.8627,221.2816 L652.8627,167.5276 C652.8627,154.9586 657.0197,144.3726 665.3337,135.7676 C673.6487,127.1636 683.8317,122.8616 695.8847,122.8616 C709.6757,122.8616 720.7317,127.8576 729.0457,137.8466 C735.5557,145.6466 738.8107,156.5056 738.8107,170.4276 L738.8107,221.2816 Z" id="Stroke-17" stroke="#231F20" mask="url(#mask-2)"></path>
        <path d="M792.0812,89.3133 L792.0812,126.2453 L808.3232,126.2453 L808.3232,164.4333 L792.0812,164.4333 C792.0812,172.1053 793.2892,177.3893 795.7062,180.2893 C798.1232,183.1893 802.5552,184.6403 809.0002,184.6403 L809.0002,222.6353 C807.1292,222.6983 805.7452,222.7313 804.8432,222.7313 C796.6572,222.7313 788.9382,220.8313 781.6872,217.0273 C774.4362,213.2253 768.6202,208.0693 764.2372,201.5593 C758.6922,193.2443 755.9232,182.2233 755.9232,168.4943 L755.9232,89.3133 L792.0812,89.3133 Z" id="Fill-18" fill="#FEFEFE" mask="url(#mask-2)"></path>
        <path d="M792.0812,89.3133 L792.0812,126.2453 L808.3232,126.2453 L808.3232,164.4333 L792.0812,164.4333 C792.0812,172.1053 793.2892,177.3893 795.7062,180.2893 C798.1232,183.1893 802.5552,184.6403 809.0002,184.6403 L809.0002,222.6353 C807.1292,222.6983 805.7452,222.7313 804.8432,222.7313 C796.6572,222.7313 788.9382,220.8313 781.6872,217.0273 C774.4362,213.2253 768.6202,208.0693 764.2372,201.5593 C758.6922,193.2443 755.9232,182.2233 755.9232,168.4943 L755.9232,89.3133 L792.0812,89.3133 Z" id="Stroke-19" stroke="#231F20" mask="url(#mask-2)"></path>
        <polygon id="Fill-20" fill="#00A69D" mask="url(#mask-2)" points="426.439 221.282 465.691 221.282 465.691 203.439 426.439 203.439"></polygon>
        <polygon id="Stroke-21" stroke="#231F20" mask="url(#mask-2)" points="426.439 221.282 465.691 221.282 465.691 203.439 426.439 203.439"></polygon>
        <polygon id="Fill-22" fill="#00A69D" mask="url(#mask-2)" points="476.712 221.281 515.964 221.281 515.964 169.026 476.712 169.026"></polygon>
        <polygon id="Stroke-23" stroke="#231F20" mask="url(#mask-2)" points="476.712 221.281 515.964 221.281 515.964 169.026 476.712 169.026"></polygon>
        <polygon id="Fill-24" fill="#00A69D" mask="url(#mask-2)" points="526.889 221.282 566.141 221.282 566.141 138.21 526.889 138.21"></polygon>
        <polygon id="Stroke-25" stroke="#231F20" mask="url(#mask-2)" points="526.889 221.282 566.141 221.282 566.141 138.21 526.889 138.21"></polygon>
        <path d="M670.4103,199.7093 L677.6313,178.5043" id="Stroke-26" stroke="#231F20" stroke-width="0.25" mask="url(#mask-2)"></path>
        <path d="M666.799,156.5873 L677.631,178.5043" id="Stroke-27" stroke="#231F20" stroke-width="0.25" mask="url(#mask-2)"></path>
        <path d="M729.8342,172.9896 L715.6432,195.1536" id="Stroke-28" stroke="#231F20" stroke-width="0.25" mask="url(#mask-2)"></path>
        <path d="M733.4445,213.1966 L715.6425,194.1476" id="Stroke-29" stroke="#231F20" stroke-width="0.25" mask="url(#mask-2)"></path>
        <path d="M706.7267,153.6537 L729.8337,172.9897" id="Stroke-30" stroke="#231F20" stroke-width="0.25" mask="url(#mask-2)"></path>
        <path d="M716.0256,194.557 L706.7266,153.654" id="Stroke-31" stroke="#231F20" stroke-width="0.25" mask="url(#mask-2)"></path>
        <path d="M729.8342,172.9896 L733.4442,213.1966" id="Stroke-32" stroke="#231F20" stroke-width="0.25" mask="url(#mask-2)"></path>
        <path d="M692.549,130.0199 L706.727,153.6539" id="Stroke-33" stroke="#231F20" stroke-width="0.25" mask="url(#mask-2)"></path>
        <path d="M666.799,156.5873 L692.549,130.0203" id="Stroke-34" stroke="#231F20" stroke-width="0.25" mask="url(#mask-2)"></path>
        <path d="M706.7267,153.6537 L666.7987,156.5877" id="Stroke-35" stroke="#231F20" stroke-width="0.25" mask="url(#mask-2)"></path>
        <path d="M670.4103,199.7093 L666.7993,156.5873" id="Stroke-36" stroke="#231F20" stroke-width="0.25" mask="url(#mask-2)"></path>
        <path d="M706.7267,153.6537 L724.5437,145.4477" id="Stroke-37" stroke="#231F20" stroke-width="0.25" mask="url(#mask-2)"></path>
        <path d="M715.6428,194.1478 L724.5438,145.4478" id="Stroke-38" stroke="#231F20" stroke-width="0.25" mask="url(#mask-2)"></path>
        <path d="M661.0314,212.2923 L670.4104,199.7093" id="Stroke-39" stroke="#231F20" stroke-width="0.25" mask="url(#mask-2)"></path>
        <path d="M680.506,208.681 L670.41,199.709" id="Stroke-40" stroke="#231F20" stroke-width="0.25" mask="url(#mask-2)"></path>
        <path d="M677.631,178.5043 L680.506,208.6813" id="Stroke-41" stroke="#231F20" stroke-width="0.25" mask="url(#mask-2)"></path>
        <path d="M661.0314,182.1146 L677.6314,178.5046" id="Stroke-42" stroke="#231F20" stroke-width="0.25" mask="url(#mask-2)"></path>
        <path d="M670.4103,199.7093 L660.0443,182.1143" id="Stroke-43" stroke="#231F20" stroke-width="0.25" mask="url(#mask-2)"></path>
        <path d="M715.6349,212.2923 L715.6429,194.1473" id="Stroke-44" stroke="#231F20" stroke-width="0.25" mask="url(#mask-2)"></path>
        <path d="M728.5978,159.2186 L715.6348,195.1536" id="Stroke-45" stroke="#231F20" stroke-width="0.25" mask="url(#mask-2)"></path>
        <path d="M694.6711,146.9144 L674.0211,135.6744" id="Stroke-46" stroke="#231F20" stroke-width="0.25" mask="url(#mask-2)"></path>
        <path d="M706.7267,153.6537 L694.6707,146.9147" id="Stroke-47" stroke="#231F20" stroke-width="0.25" mask="url(#mask-2)"></path>
        <path d="M728.5978,159.2186 L706.7268,153.6536" id="Stroke-48" stroke="#231F20" stroke-width="0.25" mask="url(#mask-2)"></path>
        <path d="M674.0207,199.7093 C674.0207,201.7033 672.4037,203.3193 670.4107,203.3193 C668.4167,203.3193 666.7987,201.7033 666.7987,199.7093 C666.7987,197.7153 668.4167,196.0983 670.4107,196.0983 C672.4037,196.0983 674.0207,197.7153 674.0207,199.7093" id="Fill-49" fill="#1C75BB" mask="url(#mask-2)"></path>
        <path d="M674.0207,199.7093 C674.0207,201.7033 672.4037,203.3193 670.4107,203.3193 C668.4167,203.3193 666.7987,201.7033 666.7987,199.7093 C666.7987,197.7153 668.4167,196.0983 670.4107,196.0983 C672.4037,196.0983 674.0207,197.7153 674.0207,199.7093 Z" id="Stroke-50" stroke="#231F20" stroke-width="0.25" mask="url(#mask-2)"></path>
        <path d="M670.4103,156.5873 C670.4103,158.5813 668.7933,160.1973 666.7993,160.1973 C664.8053,160.1973 663.1883,158.5813 663.1883,156.5873 C663.1883,154.5933 664.8053,152.9773 666.7993,152.9773 C668.7933,152.9773 670.4103,154.5933 670.4103,156.5873" id="Fill-51" fill="#1C75BB" mask="url(#mask-2)"></path>
        <path d="M670.4103,156.5873 C670.4103,158.5813 668.7933,160.1973 666.7993,160.1973 C664.8053,160.1973 663.1883,158.5813 663.1883,156.5873 C663.1883,154.5933 664.8053,152.9773 666.7993,152.9773 C668.7933,152.9773 670.4103,154.5933 670.4103,156.5873 Z" id="Stroke-52" stroke="#231F20" stroke-width="0.25" mask="url(#mask-2)"></path>
        <path d="M710.3371,153.6537 C710.3371,155.6477 708.7201,157.2647 706.7271,157.2647 C704.7331,157.2647 703.1151,155.6477 703.1151,153.6537 C703.1151,151.6597 704.7331,150.0437 706.7271,150.0437 C708.7201,150.0437 710.3371,151.6597 710.3371,153.6537" id="Fill-53" fill="#1C75BB" mask="url(#mask-2)"></path>
        <path d="M710.3371,153.6537 C710.3371,155.6477 708.7201,157.2647 706.7271,157.2647 C704.7331,157.2647 703.1151,155.6477 703.1151,153.6537 C703.1151,151.6597 704.7331,150.0437 706.7271,150.0437 C708.7201,150.0437 710.3371,151.6597 710.3371,153.6537 Z" id="Stroke-54" stroke="#231F20" stroke-width="0.25" mask="url(#mask-2)"></path>
        <path d="M733.4445,172.9896 C733.4445,174.9836 731.8285,176.5996 729.8345,176.5996 C727.8405,176.5996 726.2235,174.9836 726.2235,172.9896 C726.2235,170.9956 727.8405,169.3796 729.8345,169.3796 C731.8285,169.3796 733.4445,170.9956 733.4445,172.9896" id="Fill-55" fill="#1C75BB" mask="url(#mask-2)"></path>
        <path d="M733.4445,172.9896 C733.4445,174.9836 731.8285,176.5996 729.8345,176.5996 C727.8405,176.5996 726.2235,174.9836 726.2235,172.9896 C726.2235,170.9956 727.8405,169.3796 729.8345,169.3796 C731.8285,169.3796 733.4445,170.9956 733.4445,172.9896 Z" id="Stroke-56" stroke="#231F20" stroke-width="0.25" mask="url(#mask-2)"></path>
        <path d="M737.0549,212.2923 C737.0549,214.2853 735.4389,215.9023 733.4449,215.9023 C731.4509,215.9023 729.8339,214.2853 729.8339,212.2923 C729.8339,210.2983 731.4509,208.6813 733.4449,208.6813 C735.4389,208.6813 737.0549,210.2983 737.0549,212.2923" id="Fill-57" fill="#1C75BB" mask="url(#mask-2)"></path>
        <path d="M737.0549,212.2923 C737.0549,214.2853 735.4389,215.9023 733.4449,215.9023 C731.4509,215.9023 729.8339,214.2853 729.8339,212.2923 C729.8339,210.2983 731.4509,208.6813 733.4449,208.6813 C735.4389,208.6813 737.0549,210.2983 737.0549,212.2923 Z" id="Stroke-58" stroke="#231F20" stroke-width="0.25" mask="url(#mask-2)"></path>
        <path d="M692.549,130.0199 L677.631,178.5039" id="Stroke-59" stroke="#231F20" stroke-width="0.25" mask="url(#mask-2)"></path>
        <path d="M664.6418,212.2923 C664.6418,214.2853 663.0258,215.9023 661.0318,215.9023 C659.0378,215.9023 657.4208,214.2853 657.4208,212.2923 C657.4208,210.2983 659.0378,208.6813 661.0318,208.6813 C663.0258,208.6813 664.6418,210.2983 664.6418,212.2923" id="Fill-60" fill="#1C75BB" mask="url(#mask-2)"></path>
        <path d="M664.6418,212.2923 C664.6418,214.2853 663.0258,215.9023 661.0318,215.9023 C659.0378,215.9023 657.4208,214.2853 657.4208,212.2923 C657.4208,210.2983 659.0378,208.6813 661.0318,208.6813 C663.0258,208.6813 664.6418,210.2983 664.6418,212.2923 Z" id="Stroke-61" stroke="#231F20" stroke-width="0.25" mask="url(#mask-2)"></path>
        <path d="M692.549,130.0199 L724.544,145.4479" id="Stroke-62" stroke="#231F20" stroke-width="0.25" mask="url(#mask-2)"></path>
        <path d="M684.1164,208.681 C684.1164,210.675 682.5004,212.292 680.5064,212.292 C678.5124,212.292 676.8954,210.675 676.8954,208.681 C676.8954,206.688 678.5124,205.071 680.5064,205.071 C682.5004,205.071 684.1164,206.688 684.1164,208.681" id="Fill-63" fill="#00A69D" mask="url(#mask-2)"></path>
        <path d="M684.1164,208.681 C684.1164,210.675 682.5004,212.292 680.5064,212.292 C678.5124,212.292 676.8954,210.675 676.8954,208.681 C676.8954,206.688 678.5124,205.071 680.5064,205.071 C682.5004,205.071 684.1164,206.688 684.1164,208.681 Z" id="Stroke-64" stroke="#231F20" stroke-width="0.25" mask="url(#mask-2)"></path>
        <path d="M719.2453,210.9994 C719.2453,212.9934 717.6293,214.6094 715.6353,214.6094 C713.6413,214.6094 712.0243,212.9934 712.0243,210.9994 C712.0243,209.0054 713.6413,207.3894 715.6353,207.3894 C717.6293,207.3894 719.2453,209.0054 719.2453,210.9994" id="Fill-65" fill="#00A69D" mask="url(#mask-2)"></path>
        <path d="M719.2453,210.9994 C719.2453,212.9934 717.6293,214.6094 715.6353,214.6094 C713.6413,214.6094 712.0243,212.9934 712.0243,210.9994 C712.0243,209.0054 713.6413,207.3894 715.6353,207.3894 C717.6293,207.3894 719.2453,209.0054 719.2453,210.9994 Z" id="Stroke-66" stroke="#231F20" stroke-width="0.25" mask="url(#mask-2)"></path>
        <path d="M677.631,135.6747 C677.631,137.6687 676.015,139.2857 674.021,139.2857 C672.027,139.2857 670.41,137.6687 670.41,135.6747 C670.41,133.6807 672.027,132.0647 674.021,132.0647 C676.015,132.0647 677.631,133.6807 677.631,135.6747" id="Fill-67" fill="#00A69D" mask="url(#mask-2)"></path>
        <path d="M677.631,135.6747 C677.631,137.6687 676.015,139.2857 674.021,139.2857 C672.027,139.2857 670.41,137.6687 670.41,135.6747 C670.41,133.6807 672.027,132.0647 674.021,132.0647 C676.015,132.0647 677.631,133.6807 677.631,135.6747 Z" id="Stroke-68" stroke="#231F20" stroke-width="0.25" mask="url(#mask-2)"></path>
        <path d="M664.6418,182.1146 C664.6418,184.1086 663.0258,185.7246 661.0318,185.7246 C659.0378,185.7246 657.4208,184.1086 657.4208,182.1146 C657.4208,180.1206 659.0378,178.5046 661.0318,178.5046 C663.0258,178.5046 664.6418,180.1206 664.6418,182.1146" id="Fill-69" fill="#00A69D" mask="url(#mask-2)"></path>
        <path d="M664.6418,182.1146 C664.6418,184.1086 663.0258,185.7246 661.0318,185.7246 C659.0378,185.7246 657.4208,184.1086 657.4208,182.1146 C657.4208,180.1206 659.0378,178.5046 661.0318,178.5046 C663.0258,178.5046 664.6418,180.1206 664.6418,182.1146 Z" id="Stroke-70" stroke="#231F20" stroke-width="0.25" mask="url(#mask-2)"></path>
        <path d="M698.2814,146.9144 C698.2814,148.9084 696.6654,150.5244 694.6714,150.5244 C692.6774,150.5244 691.0604,148.9084 691.0604,146.9144 C691.0604,144.9204 692.6774,143.3034 694.6714,143.3034 C696.6654,143.3034 698.2814,144.9204 698.2814,146.9144" id="Fill-71" fill="#00A69D" mask="url(#mask-2)"></path>
        <path d="M698.2814,146.9144 C698.2814,148.9084 696.6654,150.5244 694.6714,150.5244 C692.6774,150.5244 691.0604,148.9084 691.0604,146.9144 C691.0604,144.9204 692.6774,143.3034 694.6714,143.3034 C696.6654,143.3034 698.2814,144.9204 698.2814,146.9144 Z" id="Stroke-72" stroke="#231F20" stroke-width="0.25" mask="url(#mask-2)"></path>
        <path d="M732.2082,159.2186 C732.2082,161.2126 730.5922,162.8286 728.5982,162.8286 C726.6042,162.8286 724.9872,161.2126 724.9872,159.2186 C724.9872,157.2246 726.6042,155.6086 728.5982,155.6086 C730.5922,155.6086 732.2082,157.2246 732.2082,159.2186" id="Fill-73" fill="#00A69D" mask="url(#mask-2)"></path>
        <path d="M732.2082,159.2186 C732.2082,161.2126 730.5922,162.8286 728.5982,162.8286 C726.6042,162.8286 724.9872,161.2126 724.9872,159.2186 C724.9872,157.2246 726.6042,155.6086 728.5982,155.6086 C730.5922,155.6086 732.2082,157.2246 732.2082,159.2186 Z" id="Stroke-74" stroke="#231F20" stroke-width="0.25" mask="url(#mask-2)"></path>
        <path d="M719.2531,195.1537 C719.2531,197.1477 717.6371,198.7637 715.6431,198.7637 C713.6491,198.7637 712.0321,197.1477 712.0321,195.1537 C712.0321,193.1597 713.6491,191.5437 715.6431,191.5437 C717.6371,191.5437 719.2531,193.1597 719.2531,195.1537" id="Fill-75" fill="#1C75BB" mask="url(#mask-2)"></path>
        <path d="M719.2531,195.1537 C719.2531,197.1477 717.6371,198.7637 715.6431,198.7637 C713.6491,198.7637 712.0321,197.1477 712.0321,195.1537 C712.0321,193.1597 713.6491,191.5437 715.6431,191.5437 C717.6371,191.5437 719.2531,193.1597 719.2531,195.1537 Z" id="Stroke-76" stroke="#231F20" stroke-width="0.25" mask="url(#mask-2)"></path>
        <path d="M728.1545,145.4476 C728.1545,147.4416 726.5385,149.0576 724.5445,149.0576 C722.5505,149.0576 720.9335,147.4416 720.9335,145.4476 C720.9335,143.4536 722.5505,141.8366 724.5445,141.8366 C726.5385,141.8366 728.1545,143.4536 728.1545,145.4476" id="Fill-77" fill="#1C75BB" mask="url(#mask-2)"></path>
        <path d="M728.1545,145.4476 C728.1545,147.4416 726.5385,149.0576 724.5445,149.0576 C722.5505,149.0576 720.9335,147.4416 720.9335,145.4476 C720.9335,143.4536 722.5505,141.8366 724.5445,141.8366 C726.5385,141.8366 728.1545,143.4536 728.1545,145.4476 Z" id="Stroke-78" stroke="#231F20" stroke-width="0.25" mask="url(#mask-2)"></path>
        <path d="M696.1594,130.0199 C696.1594,132.0139 694.5434,133.6309 692.5494,133.6309 C690.5554,133.6309 688.9384,132.0139 688.9384,130.0199 C688.9384,128.0259 690.5554,126.4099 692.5494,126.4099 C694.5434,126.4099 696.1594,128.0259 696.1594,130.0199" id="Fill-79" fill="#1C75BB" mask="url(#mask-2)"></path>
        <path d="M696.1594,130.0199 C696.1594,132.0139 694.5434,133.6309 692.5494,133.6309 C690.5554,133.6309 688.9384,132.0139 688.9384,130.0199 C688.9384,128.0259 690.5554,126.4099 692.5494,126.4099 C694.5434,126.4099 696.1594,128.0259 696.1594,130.0199 Z" id="Stroke-80" stroke="#231F20" stroke-width="0.25" mask="url(#mask-2)"></path>
        <path d="M681.2414,178.5043 C681.2414,180.4973 679.6254,182.1143 677.6314,182.1143 C675.6374,182.1143 674.0204,180.4973 674.0204,178.5043 C674.0204,176.5103 675.6374,174.8933 677.6314,174.8933 C679.6254,174.8933 681.2414,176.5103 681.2414,178.5043" id="Fill-81" fill="#1C75BB" mask="url(#mask-2)"></path>
        <path d="M681.2414,178.5043 C681.2414,180.4973 679.6254,182.1143 677.6314,182.1143 C675.6374,182.1143 674.0204,180.4973 674.0204,178.5043 C674.0204,176.5103 675.6374,174.8933 677.6314,174.8933 C679.6254,174.8933 681.2414,176.5103 681.2414,178.5043 Z" id="Stroke-82" stroke="#231F20" stroke-width="0.25" mask="url(#mask-2)"></path>
        <path d="M445.5158,208.681 L445.5158,190.911" id="Stroke-83" stroke="#231F20" mask="url(#mask-2)"></path>
        <path d="M496.3381,174.8934 L496.2891,156.4364" id="Stroke-84" stroke="#231F20" mask="url(#mask-2)"></path>
        <path d="M546.5148,146.3197 L546.5148,129.3447" id="Stroke-85" stroke="#231F20" mask="url(#mask-2)"></path>
        <path d="M68.5607,172.8099 L68.5607,138.1989 C76.4887,138.1989 80.4527,135.1699 80.4527,129.1109 C80.4527,123.5679 77.4217,120.7959 71.3647,120.7959 C65.2397,120.7959 62.1797,124.6009 62.1797,132.2049 L61.3717,261.2249 L32.6547,261.2249 L22.9277,136.2649 C22.9277,127.7569 23.7817,120.7819 25.4897,115.3339 C27.1967,109.8879 30.1137,104.8119 34.2397,100.1069 C38.8797,94.8859 44.6807,90.7629 51.6417,87.7319 C58.6027,84.7029 65.7887,83.1879 73.2017,83.1879 C86.6057,83.1879 97.8697,87.6999 106.9907,96.7229 C116.1107,105.7479 120.6707,116.9289 120.6707,130.2709 C120.6707,143.2259 116.5767,153.7319 108.3927,161.7889 C100.9147,169.2009 89.6367,172.9069 74.5547,172.9069 L68.5607,172.8099 Z" id="Fill-86" fill="#FEFEFE" mask="url(#mask-2)"></path>
        <path d="M68.5607,172.8099 L68.5607,138.1989 C76.4887,138.1989 80.4527,135.1699 80.4527,129.1109 C80.4527,123.5679 77.4217,120.7959 71.3647,120.7959 C65.2397,120.7959 62.1797,124.6009 62.1797,132.2049 L61.3717,261.2249 L32.6547,261.2249 L22.9277,136.2649 C22.9277,127.7569 23.7817,120.7819 25.4897,115.3339 C27.1967,109.8879 30.1137,104.8119 34.2397,100.1069 C38.8797,94.8859 44.6807,90.7629 51.6417,87.7319 C58.6027,84.7029 65.7887,83.1879 73.2017,83.1879 C86.6057,83.1879 97.8697,87.6999 106.9907,96.7229 C116.1107,105.7479 120.6707,116.9289 120.6707,130.2709 C120.6707,143.2259 116.5767,153.7319 108.3927,161.7889 C100.9147,169.2009 89.6367,172.9069 74.5547,172.9069 L68.5607,172.8099 Z" id="Stroke-87" stroke="#231F20" mask="url(#mask-2)"></path>
        <path d="M27.2351,110.5179 L62.0891,150.0629" id="Stroke-88" stroke="#231F20" stroke-width="0.75" mask="url(#mask-2)"></path>
        <path d="M24.6403,153.9935 L62.0893,150.0625" id="Stroke-89" stroke="#231F20" stroke-width="0.75" mask="url(#mask-2)"></path>
        <path d="M64.9514,122.9261 L27.2354,110.5181" id="Stroke-90" stroke="#231F20" stroke-width="0.75" mask="url(#mask-2)"></path>
        <path d="M79.2785,83.055 L64.9515,122.926" id="Stroke-91" stroke="#231F20" stroke-width="0.75" mask="url(#mask-2)"></path>
        <path d="M46.0935,89.7162 L54.9345,102.9902" id="Stroke-92" stroke="#231F20" stroke-width="0.75" mask="url(#mask-2)"></path>
        <path d="M64.9514,122.9261 L54.9344,102.9901" id="Stroke-93" stroke="#231F20" stroke-width="0.75" mask="url(#mask-2)"></path>
        <path d="M73.7058,98.5638 L54.9348,102.9908" id="Stroke-94" stroke="#231F20" stroke-width="0.75" mask="url(#mask-2)"></path>
        <path d="M43.5813,115.8954 L54.9343,102.9904" id="Stroke-95" stroke="#231F20" stroke-width="0.75" mask="url(#mask-2)"></path>
        <path d="M68.4982,138.0658 L105.3492,164.2608" id="Stroke-96" stroke="#231F20" stroke-width="0.75" mask="url(#mask-2)"></path>
        <path d="M68.4982,172.6771 L86.7662,151.0521" id="Stroke-97" stroke="#231F20" stroke-width="0.75" mask="url(#mask-2)"></path>
        <path d="M80.3898,128.9779 L120.4408,125.8739" id="Stroke-98" stroke="#231F20" stroke-width="0.75" mask="url(#mask-2)"></path>
        <path d="M105.3488,164.2606 L100.4148,127.4266" id="Stroke-99" stroke="#231F20" stroke-width="0.75" mask="url(#mask-2)"></path>
        <path d="M86.7663,151.0516 L100.4153,127.4266" id="Stroke-100" stroke="#231F20" stroke-width="0.75" mask="url(#mask-2)"></path>
        <path d="M78.6496,123.2943 L73.7056,98.5643" id="Stroke-101" stroke="#231F20" stroke-width="0.75" mask="url(#mask-2)"></path>
        <path d="M116.9787,112.9584 L76.1777,110.9294" id="Stroke-102" stroke="#231F20" stroke-width="0.75" mask="url(#mask-2)"></path>
        <path d="M92.5715,87.3817 L96.5785,112.9587" id="Stroke-103" stroke="#231F20" stroke-width="0.75" mask="url(#mask-2)"></path>
        <path d="M90.677,128.181 L96.578,112.958" id="Stroke-104" stroke="#231F20" stroke-width="0.75" mask="url(#mask-2)"></path>
        <path d="M62.0891,150.0629 L53.7541,127.4259" id="Stroke-105" stroke="#231F20" stroke-width="0.25" mask="url(#mask-2)"></path>
        <path d="M27.2351,110.5179 L53.7541,127.4259" id="Stroke-106" stroke="#231F20" stroke-width="0.25" mask="url(#mask-2)"></path>
        <path d="M64.9514,122.9261 L53.7544,127.4261" id="Stroke-107" stroke="#231F20" stroke-width="0.25" mask="url(#mask-2)"></path>
        <path d="M86.7663,151.0516 L86.9233,166.4326" id="Stroke-108" stroke="#231F20" stroke-width="0.25" mask="url(#mask-2)"></path>
        <path d="M68.4982,172.6771 L86.9232,166.4321" id="Stroke-109" stroke="#231F20" stroke-width="0.25" mask="url(#mask-2)"></path>
        <path d="M105.3488,164.2606 L86.9238,166.4326" id="Stroke-110" stroke="#231F20" stroke-width="0.25" mask="url(#mask-2)"></path>
        <path d="M109.1257,126.7513 L109.1257,143.7263" id="Stroke-111" stroke="#231F20" stroke-width="0.25" mask="url(#mask-2)"></path>
        <path d="M119.3435,141.8417 L109.1255,143.7257" id="Stroke-112" stroke="#231F20" stroke-width="0.25" mask="url(#mask-2)"></path>
        <path d="M105.3488,164.2606 L109.1258,143.7256" id="Stroke-113" stroke="#231F20" stroke-width="0.25" mask="url(#mask-2)"></path>
        <path d="M90.677,128.181 L105.951,118.972" id="Stroke-114" stroke="#231F20" stroke-width="0.25" mask="url(#mask-2)"></path>
        <path d="M96.5783,112.9584 L105.9513,118.9724" id="Stroke-115" stroke="#231F20" stroke-width="0.25" mask="url(#mask-2)"></path>
        <path d="M119.5959,119.7933 L105.9509,118.9723" id="Stroke-116" stroke="#231F20" stroke-width="0.25" mask="url(#mask-2)"></path>
        <path d="M86.7663,151.0516 L85.0343,138.0626" id="Stroke-117" stroke="#231F20" stroke-width="0.25" mask="url(#mask-2)"></path>
        <path d="M68.4982,138.0658 L85.0342,138.0628" id="Stroke-118" stroke="#231F20" stroke-width="0.25" mask="url(#mask-2)"></path>
        <path d="M100.4152,127.4261 L85.0342,138.0621" id="Stroke-119" stroke="#231F20" stroke-width="0.25" mask="url(#mask-2)"></path>
        <path d="M27.2351,110.5179 L41.7951,102.9909" id="Stroke-120" stroke="#231F20" stroke-width="0.25" mask="url(#mask-2)"></path>
        <path d="M46.0935,89.7162 L41.7955,102.9902" id="Stroke-121" stroke="#231F20" stroke-width="0.25" mask="url(#mask-2)"></path>
        <path d="M43.5813,115.8954 L41.7953,102.9904" id="Stroke-122" stroke="#231F20" stroke-width="0.25" mask="url(#mask-2)"></path>
        <path d="M54.9343,102.9906 L41.7953,102.9906" id="Stroke-123" stroke="#231F20" stroke-width="0.25" mask="url(#mask-2)"></path>
        <path d="M79.2785,83.055 L64.3205,91.591" id="Stroke-124" stroke="#231F20" stroke-width="0.25" mask="url(#mask-2)"></path>
        <path d="M54.9343,102.9906 L64.3203,91.5916" id="Stroke-125" stroke="#231F20" stroke-width="0.25" mask="url(#mask-2)"></path>
        <path d="M73.7058,98.5638 L64.3198,91.5908" id="Stroke-126" stroke="#231F20" stroke-width="0.25" mask="url(#mask-2)"></path>
        <path d="M46.0935,89.7162 L64.3205,91.5912" id="Stroke-127" stroke="#231F20" stroke-width="0.25" mask="url(#mask-2)"></path>
        <path d="M64.9514,122.9261 L64.3204,109.4431" id="Stroke-128" stroke="#231F20" stroke-width="0.25" mask="url(#mask-2)"></path>
        <path d="M54.9343,102.9906 L64.3203,109.4436" id="Stroke-129" stroke="#231F20" stroke-width="0.25" mask="url(#mask-2)"></path>
        <path d="M73.7058,98.5638 L64.3198,109.4428" id="Stroke-130" stroke="#231F20" stroke-width="0.25" mask="url(#mask-2)"></path>
        <path d="M92.5715,87.3817 L83.4735,97.2907" id="Stroke-131" stroke="#231F20" stroke-width="0.25" mask="url(#mask-2)"></path>
        <path d="M96.5783,112.9584 L83.4743,97.2914" id="Stroke-132" stroke="#231F20" stroke-width="0.25" mask="url(#mask-2)"></path>
        <path d="M76.1774,110.9291 L83.4734,97.2911" id="Stroke-133" stroke="#231F20" stroke-width="0.25" mask="url(#mask-2)"></path>
        <path d="M79.2785,83.055 L83.4735,97.291" id="Stroke-134" stroke="#231F20" stroke-width="0.25" mask="url(#mask-2)"></path>
        <path d="M96.5783,112.9584 L102.8823,102.9904" id="Stroke-135" stroke="#231F20" stroke-width="0.25" mask="url(#mask-2)"></path>
        <path d="M92.5715,87.3817 L102.8825,102.9907" id="Stroke-136" stroke="#231F20" stroke-width="0.25" mask="url(#mask-2)"></path>
        <path d="M116.9787,112.9584 L102.8817,102.9904" id="Stroke-137" stroke="#231F20" stroke-width="0.25" mask="url(#mask-2)"></path>
        <path d="M78.6496,123.2943 L86.7666,119.3823" id="Stroke-138" stroke="#231F20" stroke-width="0.25" mask="url(#mask-2)"></path>
        <path d="M90.677,128.181 L86.766,119.383" id="Stroke-139" stroke="#231F20" stroke-width="0.25" mask="url(#mask-2)"></path>
        <path d="M96.5783,112.9584 L86.7663,119.3824" id="Stroke-140" stroke="#231F20" stroke-width="0.25" mask="url(#mask-2)"></path>
        <path d="M76.1774,110.9291 L86.7664,119.3831" id="Stroke-141" stroke="#231F20" stroke-width="0.25" mask="url(#mask-2)"></path>
        <path d="M64.9514,122.9261 L72.1154,112.9581" id="Stroke-142" stroke="#231F20" stroke-width="0.25" mask="url(#mask-2)"></path>
        <path d="M73.7058,98.5638 L72.1148,112.9588" id="Stroke-143" stroke="#231F20" stroke-width="0.25" mask="url(#mask-2)"></path>
        <path d="M78.6496,123.2943 L72.1146,112.9583" id="Stroke-144" stroke="#231F20" stroke-width="0.25" mask="url(#mask-2)"></path>
        <path d="M68.4982,172.6771 L75.3822,153.9931" id="Stroke-145" stroke="#231F20" stroke-width="0.25" mask="url(#mask-2)"></path>
        <path d="M68.4982,138.0658 L75.3822,153.9938" id="Stroke-146" stroke="#231F20" stroke-width="0.25" mask="url(#mask-2)"></path>
        <path d="M86.7663,151.0516 L75.3823,153.9936" id="Stroke-147" stroke="#231F20" stroke-width="0.25" mask="url(#mask-2)"></path>
        <path d="M100.4152,127.4261 L96.1362,147.7841" id="Stroke-148" stroke="#231F20" stroke-width="0.25" mask="url(#mask-2)"></path>
        <path d="M86.7663,151.0516 L96.1363,147.7846" id="Stroke-149" stroke="#231F20" stroke-width="0.25" mask="url(#mask-2)"></path>
        <path d="M105.3488,164.2606 L96.1368,147.7846" id="Stroke-150" stroke="#231F20" stroke-width="0.25" mask="url(#mask-2)"></path>
        <path d="M24.6403,153.9935 L43.3643,128.8185" id="Stroke-151" stroke="#231F20" mask="url(#mask-2)"></path>
        <path d="M32.655,261.2249 L46.093,239.4059" id="Stroke-152" stroke="#231F20" mask="url(#mask-2)"></path>
        <path d="M61.3718,261.2249 L46.0938,239.4059" id="Stroke-153" stroke="#231F20" mask="url(#mask-2)"></path>
        <path d="M61.653,216.305 L46.093,239.406" id="Stroke-154" stroke="#231F20" mask="url(#mask-2)"></path>
        <path d="M29.1315,215.9632 L46.0935,239.4052" id="Stroke-155" stroke="#231F20" mask="url(#mask-2)"></path>
        <path d="M44.8991,213.5697 L61.8531,184.4017" id="Stroke-156" stroke="#231F20" mask="url(#mask-2)"></path>
        <path d="M61.653,216.305 L44.899,213.57" id="Stroke-157" stroke="#231F20" mask="url(#mask-2)"></path>
        <path d="M29.1315,215.9632 L44.8995,213.5692" id="Stroke-158" stroke="#231F20" mask="url(#mask-2)"></path>
        <path d="M27.2351,187.183 L44.8991,213.57" id="Stroke-159" stroke="#231F20" mask="url(#mask-2)"></path>
        <path d="M24.6403,153.9935 L42.6883,169.5545" id="Stroke-160" stroke="#231F20" mask="url(#mask-2)"></path>
        <path d="M27.2351,187.183 L42.6881,169.555" id="Stroke-161" stroke="#231F20" mask="url(#mask-2)"></path>
        <path d="M61.8527,184.4017 L42.6877,169.5547" id="Stroke-162" stroke="#231F20" mask="url(#mask-2)"></path>
        <path d="M62.0891,150.0629 L42.6881,169.5549" id="Stroke-163" stroke="#231F20" mask="url(#mask-2)"></path>
        <path d="M43.3645,128.8182 L22.9275,132.7442" id="Stroke-164" stroke="#231F20" stroke-width="0.25" mask="url(#mask-2)"></path>
        <path d="M24.6403,153.9935 L33.0583,130.7985" id="Stroke-165" stroke="#231F20" stroke-width="0.25" mask="url(#mask-2)"></path>
        <path d="M27.2351,110.5179 L33.0591,130.7979" id="Stroke-166" stroke="#231F20" stroke-width="0.25" mask="url(#mask-2)"></path>
        <path d="M24.6403,153.9935 L43.3643,143.7255" id="Stroke-167" stroke="#231F20" stroke-width="0.25" mask="url(#mask-2)"></path>
        <path d="M43.3645,128.8182 L43.3645,143.7262" id="Stroke-168" stroke="#231F20" stroke-width="0.25" mask="url(#mask-2)"></path>
        <path d="M62.0891,150.0629 L43.3641,143.7259" id="Stroke-169" stroke="#231F20" stroke-width="0.25" mask="url(#mask-2)"></path>
        <path d="M41.7951,156.0228 L42.6881,169.5548" id="Stroke-170" stroke="#231F20" stroke-width="0.25" mask="url(#mask-2)"></path>
        <path d="M53.7541,127.4261 L43.3641,128.8181" id="Stroke-171" stroke="#231F20" stroke-width="0.25" mask="url(#mask-2)"></path>
        <path d="M62.0891,150.0629 L41.7951,156.0229" id="Stroke-172" stroke="#231F20" stroke-width="0.25" mask="url(#mask-2)"></path>
        <path d="M24.6403,153.9935 L41.7953,156.0225" id="Stroke-173" stroke="#231F20" stroke-width="0.25" mask="url(#mask-2)"></path>
        <path d="M44.8991,213.5697 L42.6881,169.5547" id="Stroke-174" stroke="#231F20" stroke-width="0.25" mask="url(#mask-2)"></path>
        <path d="M61.8527,184.4017 L43.4897,191.5617" id="Stroke-175" stroke="#231F20" stroke-width="0.25" mask="url(#mask-2)"></path>
        <path d="M27.2351,187.183 L43.4891,191.562" id="Stroke-176" stroke="#231F20" stroke-width="0.25" mask="url(#mask-2)"></path>
        <path d="M44.8991,213.5697 L57.9211,206.9867" id="Stroke-177" stroke="#231F20" stroke-width="0.25" mask="url(#mask-2)"></path>
        <path d="M61.8527,184.4017 L57.9217,206.9867" id="Stroke-178" stroke="#231F20" stroke-width="0.25" mask="url(#mask-2)"></path>
        <path d="M61.653,216.305 L57.922,206.987" id="Stroke-179" stroke="#231F20" stroke-width="0.25" mask="url(#mask-2)"></path>
        <path d="M44.8991,213.5697 L44.6621,223.6357" id="Stroke-180" stroke="#231F20" stroke-width="0.25" mask="url(#mask-2)"></path>
        <path d="M46.0935,239.4056 L44.6625,223.6356" id="Stroke-181" stroke="#231F20" stroke-width="0.25" mask="url(#mask-2)"></path>
        <path d="M61.653,216.305 L44.662,223.636" id="Stroke-182" stroke="#231F20" stroke-width="0.25" mask="url(#mask-2)"></path>
        <path d="M29.1315,215.9632 L44.6625,223.6362" id="Stroke-183" stroke="#231F20" stroke-width="0.25" mask="url(#mask-2)"></path>
        <path d="M46.0935,239.4056 L46.0935,250.3146" id="Stroke-184" stroke="#231F20" stroke-width="0.25" mask="url(#mask-2)"></path>
        <path d="M32.655,261.2249 L46.093,250.3149" id="Stroke-185" stroke="#231F20" stroke-width="0.25" mask="url(#mask-2)"></path>
        <path d="M61.3718,261.2249 L46.0938,250.3149" id="Stroke-186" stroke="#231F20" stroke-width="0.25" mask="url(#mask-2)"></path>
        <path d="M46.0935,239.4056 L53.8735,239.4056" id="Stroke-187" stroke="#231F20" stroke-width="0.25" mask="url(#mask-2)"></path>
        <path d="M61.653,216.305 L53.873,239.406" id="Stroke-188" stroke="#231F20" stroke-width="0.25" mask="url(#mask-2)"></path>
        <path d="M61.3718,261.2249 L53.8728,239.4059" id="Stroke-189" stroke="#231F20" stroke-width="0.25" mask="url(#mask-2)"></path>
        <path d="M29.1315,215.9632 L34.5155,205.6442" id="Stroke-190" stroke="#231F20" stroke-width="0.25" mask="url(#mask-2)"></path>
        <path d="M27.2351,187.183 L34.5151,205.644" id="Stroke-191" stroke="#231F20" stroke-width="0.25" mask="url(#mask-2)"></path>
        <path d="M44.8991,213.5697 L34.5151,205.6437" id="Stroke-192" stroke="#231F20" stroke-width="0.25" mask="url(#mask-2)"></path>
        <path d="M46.0935,250.3148 L44.8995,261.0918" id="Stroke-193" stroke="#231F20" stroke-width="0.25" mask="url(#mask-2)"></path>
        <path d="M32.655,261.2249 L37.613,239.4059" id="Stroke-194" stroke="#231F20" stroke-width="0.25" mask="url(#mask-2)"></path>
        <path d="M46.0935,239.4056 L37.6125,239.4056" id="Stroke-195" stroke="#231F20" stroke-width="0.25" mask="url(#mask-2)"></path>
        <path d="M29.1315,215.9632 L37.6125,239.4052" id="Stroke-196" stroke="#231F20" stroke-width="0.25" mask="url(#mask-2)"></path>
        <path d="M27.2351,187.183 L31.8231,169.555" id="Stroke-197" stroke="#231F20" stroke-width="0.25" mask="url(#mask-2)"></path>
        <path d="M24.6403,153.9935 L31.8233,169.5545" id="Stroke-198" stroke="#231F20" stroke-width="0.25" mask="url(#mask-2)"></path>
        <path d="M42.6882,169.5546 L31.8232,169.5546" id="Stroke-199" stroke="#231F20" stroke-width="0.25" mask="url(#mask-2)"></path>
        <path d="M61.8527,184.4017 L55.2067,171.0007" id="Stroke-200" stroke="#231F20" stroke-width="0.25" mask="url(#mask-2)"></path>
        <path d="M42.6882,169.5546 L55.2072,171.0006" id="Stroke-201" stroke="#231F20" stroke-width="0.25" mask="url(#mask-2)"></path>
        <path d="M62.0891,150.0629 L55.2071,170.9999" id="Stroke-202" stroke="#231F20" stroke-width="0.25" mask="url(#mask-2)"></path>
        <path d="M37.7097,261.2249 C37.7097,264.0159 35.4467,266.2799 32.6547,266.2799 C29.8627,266.2799 27.6007,264.0159 27.6007,261.2249 C27.6007,258.4329 29.8627,256.1699 32.6547,256.1699 C35.4467,256.1699 37.7097,258.4329 37.7097,261.2249" id="Fill-203" fill="#F6931D" mask="url(#mask-2)"></path>
        <path d="M37.7097,261.2249 C37.7097,264.0159 35.4467,266.2799 32.6547,266.2799 C29.8627,266.2799 27.6007,264.0159 27.6007,261.2249 C27.6007,258.4329 29.8627,256.1699 32.6547,256.1699 C35.4467,256.1699 37.7097,258.4329 37.7097,261.2249 Z" id="Stroke-204" stroke="#231F20" stroke-width="0.25" mask="url(#mask-2)"></path>
        <path d="M66.4265,261.2249 C66.4265,264.0159 64.1635,266.2799 61.3715,266.2799 C58.5795,266.2799 56.3175,264.0159 56.3175,261.2249 C56.3175,258.4329 58.5795,256.1699 61.3715,256.1699 C64.1635,256.1699 66.4265,258.4329 66.4265,261.2249" id="Fill-205" fill="#F6931D" mask="url(#mask-2)"></path>
        <path d="M66.4265,261.2249 C66.4265,264.0159 64.1635,266.2799 61.3715,266.2799 C58.5795,266.2799 56.3175,264.0159 56.3175,261.2249 C56.3175,258.4329 58.5795,256.1699 61.3715,256.1699 C64.1635,256.1699 66.4265,258.4329 66.4265,261.2249 Z" id="Stroke-206" stroke="#231F20" stroke-width="0.25" mask="url(#mask-2)"></path>
        <path d="M82.9616,203.4154 L80.7866,218.7874" id="Stroke-207" stroke="#231F20" stroke-width="1.5" mask="url(#mask-2)"></path>
        <path d="M80.6477,217.6029 L88.1047,232.1659" id="Stroke-208" stroke="#231F20" stroke-width="1.5" mask="url(#mask-2)"></path>
        <path d="M87.9538,231.0961 L85.8798,247.2631" id="Stroke-209" stroke="#231F20" stroke-width="1.5" mask="url(#mask-2)"></path>
        <path d="M85.8249,246.3177 L93.1979,260.6407" id="Stroke-210" stroke="#231F20" stroke-width="1.5" mask="url(#mask-2)"></path>
        <path d="M93.2092,259.5394 L90.9412,275.5614" id="Stroke-211" stroke="#231F20" stroke-width="1.5" mask="url(#mask-2)"></path>
        <path d="M91.0769,274.6068 L98.2599,288.9398" id="Stroke-212" stroke="#231F20" stroke-width="1.5" mask="url(#mask-2)"></path>
        <path d="M98.2927,287.933 L96.0227,303.969" id="Stroke-213" stroke="#231F20" stroke-width="1.5" mask="url(#mask-2)"></path>
        <path d="M95.3273,200.1761 L103.1063,214.5171" id="Stroke-214" stroke="#231F20" stroke-width="1.5" mask="url(#mask-2)"></path>
        <path d="M102.6457,213.5541 L100.4697,228.9271" id="Stroke-215" stroke="#231F20" stroke-width="1.5" mask="url(#mask-2)"></path>
        <path d="M100.6022,227.9925 L107.7902,242.3165" id="Stroke-216" stroke="#231F20" stroke-width="1.5" mask="url(#mask-2)"></path>
        <path d="M107.6369,241.433 L110.4519,257.856" id="Stroke-217" stroke="#231F20" stroke-width="1.5" mask="url(#mask-2)"></path>
        <path d="M110.2697,256.9945 L121.1037,268.1155" id="Stroke-218" stroke="#231F20" stroke-width="1.5" mask="url(#mask-2)"></path>
        <path d="M119.8064,267.4466 L136.2814,270.4996" id="Stroke-219" stroke="#231F20" stroke-width="1.5" mask="url(#mask-2)"></path>
        <path d="M105.0158,242.5042 L107.6168,257.6772" id="Stroke-220" stroke="#231F20" stroke-width="1.5" mask="url(#mask-2)"></path>
        <path d="M135.3981,269.8128 L146.8951,281.4738" id="Stroke-221" stroke="#231F20" stroke-width="1.5" mask="url(#mask-2)"></path>
        <path d="M108.654,195.0199 C110.659,206.2299 103.197,216.9429 91.987,218.9479 C80.778,220.9539 70.065,213.4919 68.06,202.2819 C66.055,191.0719 73.516,180.3599 84.726,178.3539 C95.936,176.3489 106.649,183.8109 108.654,195.0199" id="Fill-222" fill="#00A69D" mask="url(#mask-2)"></path>
        <path d="M108.654,195.0199 C110.659,206.2299 103.197,216.9429 91.987,218.9479 C80.778,220.9539 70.065,213.4919 68.06,202.2819 C66.055,191.0719 73.516,180.3599 84.726,178.3539 C95.936,176.3489 106.649,183.8109 108.654,195.0199 Z" id="Stroke-223" stroke="#231F20" mask="url(#mask-2)"></path>
        <path d="M297.381,172.9047 L297.381,138.2937 C305.309,138.2937 309.273,135.2647 309.273,129.2057 C309.273,123.6627 306.242,120.8907 300.185,120.8907 C294.061,120.8907 291,124.6947 291,132.2997 L290.192,261.3187 L261.475,261.3187 L251.748,136.3597 C251.748,127.8517 252.602,120.8757 254.31,115.4287 C256.017,109.9827 258.934,104.9067 263.06,100.2017 C267.7,94.9807 273.501,90.8567 280.462,87.8267 C287.423,84.7977 294.609,83.2827 302.022,83.2827 C315.427,83.2827 326.69,87.7947 335.811,96.8177 C344.931,105.8417 349.491,117.0237 349.491,130.3657 C349.491,143.3207 345.398,153.8267 337.213,161.8837 C329.735,169.2957 318.457,173.0017 303.375,173.0017 L297.381,172.9047 Z" id="Fill-224" fill="#FEFEFE" mask="url(#mask-2)"></path>
        <path d="M297.381,172.9047 L297.381,138.2937 C305.309,138.2937 309.273,135.2647 309.273,129.2057 C309.273,123.6627 306.242,120.8907 300.185,120.8907 C294.061,120.8907 291,124.6947 291,132.2997 L290.192,261.3187 L261.475,261.3187 L251.748,136.3597 C251.748,127.8517 252.602,120.8757 254.31,115.4287 C256.017,109.9827 258.934,104.9067 263.06,100.2017 C267.7,94.9807 273.501,90.8567 280.462,87.8267 C287.423,84.7977 294.609,83.2827 302.022,83.2827 C315.427,83.2827 326.69,87.7947 335.811,96.8177 C344.931,105.8417 349.491,117.0237 349.491,130.3657 C349.491,143.3207 345.398,153.8267 337.213,161.8837 C329.735,169.2957 318.457,173.0017 303.375,173.0017 L297.381,172.9047 Z" id="Stroke-225" stroke="#231F20" mask="url(#mask-2)"></path>
        <path d="M256.0558,110.6127 L290.9098,150.1577" id="Stroke-226" stroke="#231F20" stroke-width="0.75" mask="url(#mask-2)"></path>
        <path d="M253.4606,154.0878 L290.9096,150.1578" id="Stroke-227" stroke="#231F20" stroke-width="0.75" mask="url(#mask-2)"></path>
        <path d="M293.7717,123.0204 L256.0557,110.6124" id="Stroke-228" stroke="#231F20" stroke-width="0.75" mask="url(#mask-2)"></path>
        <path d="M308.0993,83.1498 L293.7713,123.0208" id="Stroke-229" stroke="#231F20" stroke-width="0.75" mask="url(#mask-2)"></path>
        <path d="M274.9138,89.8104 L283.7548,103.0844" id="Stroke-230" stroke="#231F20" stroke-width="0.75" mask="url(#mask-2)"></path>
        <path d="M293.7717,123.0204 L283.7547,103.0844" id="Stroke-231" stroke="#231F20" stroke-width="0.75" mask="url(#mask-2)"></path>
        <path d="M302.5261,98.6586 L283.7551,103.0846" id="Stroke-232" stroke="#231F20" stroke-width="0.75" mask="url(#mask-2)"></path>
        <path d="M272.4016,115.9901 L283.7546,103.0851" id="Stroke-233" stroke="#231F20" stroke-width="0.75" mask="url(#mask-2)"></path>
        <path d="M297.3185,138.1605 L334.1695,164.3555" id="Stroke-234" stroke="#231F20" stroke-width="0.75" mask="url(#mask-2)"></path>
        <path d="M297.3185,172.7718 L315.5865,151.1458" id="Stroke-235" stroke="#231F20" stroke-width="0.75" mask="url(#mask-2)"></path>
        <path d="M309.2101,129.0726 L349.2611,125.9686" id="Stroke-236" stroke="#231F20" stroke-width="0.75" mask="url(#mask-2)"></path>
        <path d="M334.1696,164.3553 L329.2356,127.5213" id="Stroke-237" stroke="#231F20" stroke-width="0.75" mask="url(#mask-2)"></path>
        <path d="M315.5866,151.1459 L329.2356,127.5209" id="Stroke-238" stroke="#231F20" stroke-width="0.75" mask="url(#mask-2)"></path>
        <path d="M307.4699,123.3885 L302.5259,98.6585" id="Stroke-239" stroke="#231F20" stroke-width="0.75" mask="url(#mask-2)"></path>
        <path d="M345.799,113.0526 L304.998,111.0236" id="Stroke-240" stroke="#231F20" stroke-width="0.75" mask="url(#mask-2)"></path>
        <path d="M321.3918,87.4764 L325.3988,113.0524" id="Stroke-241" stroke="#231F20" stroke-width="0.75" mask="url(#mask-2)"></path>
        <path d="M319.4973,128.2753 L325.3983,113.0523" id="Stroke-242" stroke="#231F20" stroke-width="0.75" mask="url(#mask-2)"></path>
        <path d="M290.9094,150.1576 L282.5744,127.5206" id="Stroke-243" stroke="#231F20" stroke-width="0.25" mask="url(#mask-2)"></path>
        <path d="M256.0558,110.6127 L282.5748,127.5207" id="Stroke-244" stroke="#231F20" stroke-width="0.25" mask="url(#mask-2)"></path>
        <path d="M293.7717,123.0204 L282.5747,127.5204" id="Stroke-245" stroke="#231F20" stroke-width="0.25" mask="url(#mask-2)"></path>
        <path d="M315.5866,151.1459 L315.7436,166.5269" id="Stroke-246" stroke="#231F20" stroke-width="0.25" mask="url(#mask-2)"></path>
        <path d="M297.3185,172.7718 L315.7435,166.5268" id="Stroke-247" stroke="#231F20" stroke-width="0.25" mask="url(#mask-2)"></path>
        <path d="M334.1696,164.3553 L315.7436,166.5263" id="Stroke-248" stroke="#231F20" stroke-width="0.25" mask="url(#mask-2)"></path>
        <path d="M337.946,126.8461 L337.946,143.8211" id="Stroke-249" stroke="#231F20" stroke-width="0.25" mask="url(#mask-2)"></path>
        <path d="M348.1638,141.9364 L337.9458,143.8204" id="Stroke-250" stroke="#231F20" stroke-width="0.25" mask="url(#mask-2)"></path>
        <path d="M334.1696,164.3553 L337.9456,143.8203" id="Stroke-251" stroke="#231F20" stroke-width="0.25" mask="url(#mask-2)"></path>
        <path d="M319.4973,128.2753 L334.7713,119.0673" id="Stroke-252" stroke="#231F20" stroke-width="0.25" mask="url(#mask-2)"></path>
        <path d="M325.3986,113.0526 L334.7716,119.0666" id="Stroke-253" stroke="#231F20" stroke-width="0.25" mask="url(#mask-2)"></path>
        <path d="M348.4167,119.8881 L334.7717,119.0671" id="Stroke-254" stroke="#231F20" stroke-width="0.25" mask="url(#mask-2)"></path>
        <path d="M315.5866,151.1459 L313.8556,138.1569" id="Stroke-255" stroke="#231F20" stroke-width="0.25" mask="url(#mask-2)"></path>
        <path d="M297.3185,138.1605 L313.8555,138.1565" id="Stroke-256" stroke="#231F20" stroke-width="0.25" mask="url(#mask-2)"></path>
        <path d="M329.2355,127.5209 L313.8555,138.1569" id="Stroke-257" stroke="#231F20" stroke-width="0.25" mask="url(#mask-2)"></path>
        <path d="M256.0558,110.6127 L270.6158,103.0847" id="Stroke-258" stroke="#231F20" stroke-width="0.25" mask="url(#mask-2)"></path>
        <path d="M274.9138,89.8104 L270.6158,103.0844" id="Stroke-259" stroke="#231F20" stroke-width="0.25" mask="url(#mask-2)"></path>
        <path d="M272.4016,115.9901 L270.6156,103.0851" id="Stroke-260" stroke="#231F20" stroke-width="0.25" mask="url(#mask-2)"></path>
        <path d="M283.7546,103.0848 L270.6156,103.0848" id="Stroke-261" stroke="#231F20" stroke-width="0.25" mask="url(#mask-2)"></path>
        <path d="M308.0993,83.1498 L293.1403,91.6858" id="Stroke-262" stroke="#231F20" stroke-width="0.25" mask="url(#mask-2)"></path>
        <path d="M283.7546,103.0848 L293.1406,91.6858" id="Stroke-263" stroke="#231F20" stroke-width="0.25" mask="url(#mask-2)"></path>
        <path d="M302.5261,98.6586 L293.1401,91.6856" id="Stroke-264" stroke="#231F20" stroke-width="0.25" mask="url(#mask-2)"></path>
        <path d="M274.9138,89.8104 L293.1408,91.6854" id="Stroke-265" stroke="#231F20" stroke-width="0.25" mask="url(#mask-2)"></path>
        <path d="M293.7717,123.0204 L293.1407,109.5374" id="Stroke-266" stroke="#231F20" stroke-width="0.25" mask="url(#mask-2)"></path>
        <path d="M283.7546,103.0848 L293.1406,109.5378" id="Stroke-267" stroke="#231F20" stroke-width="0.25" mask="url(#mask-2)"></path>
        <path d="M302.5261,98.6586 L293.1401,109.5376" id="Stroke-268" stroke="#231F20" stroke-width="0.25" mask="url(#mask-2)"></path>
        <path d="M321.3918,87.4764 L312.2938,97.3854" id="Stroke-269" stroke="#231F20" stroke-width="0.25" mask="url(#mask-2)"></path>
        <path d="M325.3986,113.0526 L312.2946,97.3856" id="Stroke-270" stroke="#231F20" stroke-width="0.25" mask="url(#mask-2)"></path>
        <path d="M304.9982,111.0238 L312.2942,97.3858" id="Stroke-271" stroke="#231F20" stroke-width="0.25" mask="url(#mask-2)"></path>
        <path d="M308.0993,83.1498 L312.2943,97.3858" id="Stroke-272" stroke="#231F20" stroke-width="0.25" mask="url(#mask-2)"></path>
        <path d="M325.3986,113.0526 L331.7026,103.0846" id="Stroke-273" stroke="#231F20" stroke-width="0.25" mask="url(#mask-2)"></path>
        <path d="M321.3918,87.4764 L331.7028,103.0844" id="Stroke-274" stroke="#231F20" stroke-width="0.25" mask="url(#mask-2)"></path>
        <path d="M345.799,113.0526 L331.702,103.0846" id="Stroke-275" stroke="#231F20" stroke-width="0.25" mask="url(#mask-2)"></path>
        <path d="M307.4699,123.3885 L315.5869,119.4775" id="Stroke-276" stroke="#231F20" stroke-width="0.25" mask="url(#mask-2)"></path>
        <path d="M319.4973,128.2753 L315.5863,119.4773" id="Stroke-277" stroke="#231F20" stroke-width="0.25" mask="url(#mask-2)"></path>
        <path d="M325.3986,113.0526 L315.5866,119.4776" id="Stroke-278" stroke="#231F20" stroke-width="0.25" mask="url(#mask-2)"></path>
        <path d="M304.9982,111.0238 L315.5862,119.4778" id="Stroke-279" stroke="#231F20" stroke-width="0.25" mask="url(#mask-2)"></path>
        <path d="M293.7717,123.0204 L300.9357,113.0524" id="Stroke-280" stroke="#231F20" stroke-width="0.25" mask="url(#mask-2)"></path>
        <path d="M302.5261,98.6586 L300.9351,113.0526" id="Stroke-281" stroke="#231F20" stroke-width="0.25" mask="url(#mask-2)"></path>
        <path d="M307.4699,123.3885 L300.9349,113.0525" id="Stroke-282" stroke="#231F20" stroke-width="0.25" mask="url(#mask-2)"></path>
        <path d="M297.3185,172.7718 L304.2025,154.0878" id="Stroke-283" stroke="#231F20" stroke-width="0.25" mask="url(#mask-2)"></path>
        <path d="M297.3185,138.1605 L304.2025,154.0875" id="Stroke-284" stroke="#231F20" stroke-width="0.25" mask="url(#mask-2)"></path>
        <path d="M315.5866,151.1459 L304.2026,154.0879" id="Stroke-285" stroke="#231F20" stroke-width="0.25" mask="url(#mask-2)"></path>
        <path d="M329.2355,127.5209 L324.9565,147.8789" id="Stroke-286" stroke="#231F20" stroke-width="0.25" mask="url(#mask-2)"></path>
        <path d="M315.5866,151.1459 L324.9566,147.8789" id="Stroke-287" stroke="#231F20" stroke-width="0.25" mask="url(#mask-2)"></path>
        <path d="M334.1696,164.3553 L324.9566,147.8793" id="Stroke-288" stroke="#231F20" stroke-width="0.25" mask="url(#mask-2)"></path>
        <path d="M253.4606,154.0878 L272.1856,128.9128" id="Stroke-289" stroke="#231F20" mask="url(#mask-2)"></path>
        <path d="M261.4753,261.3187 L274.9133,239.5007" id="Stroke-290" stroke="#231F20" mask="url(#mask-2)"></path>
        <path d="M290.1921,261.3187 L274.9141,239.5007" id="Stroke-291" stroke="#231F20" mask="url(#mask-2)"></path>
        <path d="M290.4733,216.3998 L274.9133,239.5008" id="Stroke-292" stroke="#231F20" mask="url(#mask-2)"></path>
        <path d="M257.9523,216.058 L274.9133,239.5" id="Stroke-293" stroke="#231F20" mask="url(#mask-2)"></path>
        <path d="M273.7194,213.6644 L290.6734,184.4954" id="Stroke-294" stroke="#231F20" mask="url(#mask-2)"></path>
        <path d="M290.4733,216.3998 L273.7193,213.6648" id="Stroke-295" stroke="#231F20" mask="url(#mask-2)"></path>
        <path d="M257.9523,216.058 L273.7193,213.664" id="Stroke-296" stroke="#231F20" mask="url(#mask-2)"></path>
        <path d="M256.0558,187.2767 L273.7198,213.6647" id="Stroke-297" stroke="#231F20" mask="url(#mask-2)"></path>
        <path d="M253.4606,154.0878 L271.5086,169.6498" id="Stroke-298" stroke="#231F20" mask="url(#mask-2)"></path>
        <path d="M256.0558,187.2767 L271.5088,169.6497" id="Stroke-299" stroke="#231F20" mask="url(#mask-2)"></path>
        <path d="M290.6735,184.4955 L271.5085,169.6495" id="Stroke-300" stroke="#231F20" mask="url(#mask-2)"></path>
        <path d="M290.9094,150.1576 L271.5094,169.6496" id="Stroke-301" stroke="#231F20" mask="url(#mask-2)"></path>
        <path d="M272.1852,128.913 L251.7482,132.839" id="Stroke-302" stroke="#231F20" stroke-width="0.25" mask="url(#mask-2)"></path>
        <path d="M253.4606,154.0878 L261.8786,130.8928" id="Stroke-303" stroke="#231F20" stroke-width="0.25" mask="url(#mask-2)"></path>
        <path d="M256.0558,110.6127 L261.8788,130.8927" id="Stroke-304" stroke="#231F20" stroke-width="0.25" mask="url(#mask-2)"></path>
        <path d="M253.4606,154.0878 L272.1856,143.8208" id="Stroke-305" stroke="#231F20" stroke-width="0.25" mask="url(#mask-2)"></path>
        <path d="M272.1852,128.913 L272.1852,143.821" id="Stroke-306" stroke="#231F20" stroke-width="0.25" mask="url(#mask-2)"></path>
        <path d="M290.9094,150.1576 L272.1854,143.8206" id="Stroke-307" stroke="#231F20" stroke-width="0.25" mask="url(#mask-2)"></path>
        <path d="M270.6159,156.1171 L271.5089,169.6491" id="Stroke-308" stroke="#231F20" stroke-width="0.25" mask="url(#mask-2)"></path>
        <path d="M282.5744,127.5209 L272.1854,128.9129" id="Stroke-309" stroke="#231F20" stroke-width="0.25" mask="url(#mask-2)"></path>
        <path d="M290.9094,150.1576 L270.6164,156.1166" id="Stroke-310" stroke="#231F20" stroke-width="0.25" mask="url(#mask-2)"></path>
        <path d="M253.4606,154.0878 L270.6156,156.1168" id="Stroke-311" stroke="#231F20" stroke-width="0.25" mask="url(#mask-2)"></path>
        <path d="M273.7194,213.6644 L271.5094,169.6494" id="Stroke-312" stroke="#231F20" stroke-width="0.25" mask="url(#mask-2)"></path>
        <path d="M290.6735,184.4955 L272.3105,191.6565" id="Stroke-313" stroke="#231F20" stroke-width="0.25" mask="url(#mask-2)"></path>
        <path d="M256.0558,187.2767 L272.3098,191.6567" id="Stroke-314" stroke="#231F20" stroke-width="0.25" mask="url(#mask-2)"></path>
        <path d="M273.7194,213.6644 L286.7414,207.0804" id="Stroke-315" stroke="#231F20" stroke-width="0.25" mask="url(#mask-2)"></path>
        <path d="M290.6735,184.4955 L286.7415,207.0805" id="Stroke-316" stroke="#231F20" stroke-width="0.25" mask="url(#mask-2)"></path>
        <path d="M290.4733,216.3998 L286.7423,207.0808" id="Stroke-317" stroke="#231F20" stroke-width="0.25" mask="url(#mask-2)"></path>
        <path d="M273.7194,213.6644 L273.4824,223.7304" id="Stroke-318" stroke="#231F20" stroke-width="0.25" mask="url(#mask-2)"></path>
        <path d="M274.9138,239.5003 L273.4828,223.7303" id="Stroke-319" stroke="#231F20" stroke-width="0.25" mask="url(#mask-2)"></path>
        <path d="M290.4733,216.3998 L273.4823,223.7308" id="Stroke-320" stroke="#231F20" stroke-width="0.25" mask="url(#mask-2)"></path>
        <path d="M257.9523,216.058 L273.4823,223.731" id="Stroke-321" stroke="#231F20" stroke-width="0.25" mask="url(#mask-2)"></path>
        <path d="M274.9138,239.5003 L274.9138,250.4093" id="Stroke-322" stroke="#231F20" stroke-width="0.25" mask="url(#mask-2)"></path>
        <path d="M261.4753,261.3187 L274.9133,250.4097" id="Stroke-323" stroke="#231F20" stroke-width="0.25" mask="url(#mask-2)"></path>
        <path d="M290.1921,261.3187 L274.9141,250.4097" id="Stroke-324" stroke="#231F20" stroke-width="0.25" mask="url(#mask-2)"></path>
        <path d="M274.9138,239.5003 L282.6938,239.5003" id="Stroke-325" stroke="#231F20" stroke-width="0.25" mask="url(#mask-2)"></path>
        <path d="M290.4733,216.3998 L282.6933,239.5008" id="Stroke-326" stroke="#231F20" stroke-width="0.25" mask="url(#mask-2)"></path>
        <path d="M290.1921,261.3187 L282.6931,239.5007" id="Stroke-327" stroke="#231F20" stroke-width="0.25" mask="url(#mask-2)"></path>
        <path d="M257.9523,216.058 L263.3353,205.738" id="Stroke-328" stroke="#231F20" stroke-width="0.25" mask="url(#mask-2)"></path>
        <path d="M256.0558,187.2767 L263.3358,205.7377" id="Stroke-329" stroke="#231F20" stroke-width="0.25" mask="url(#mask-2)"></path>
        <path d="M273.7194,213.6644 L263.3354,205.7374" id="Stroke-330" stroke="#231F20" stroke-width="0.25" mask="url(#mask-2)"></path>
        <path d="M274.9138,250.4095 L273.7198,261.1855" id="Stroke-331" stroke="#231F20" stroke-width="0.25" mask="url(#mask-2)"></path>
        <path d="M261.4753,261.3187 L266.4333,239.5007" id="Stroke-332" stroke="#231F20" stroke-width="0.25" mask="url(#mask-2)"></path>
        <path d="M274.9138,239.5003 L266.4328,239.5003" id="Stroke-333" stroke="#231F20" stroke-width="0.25" mask="url(#mask-2)"></path>
        <path d="M257.9523,216.058 L266.4323,239.5" id="Stroke-334" stroke="#231F20" stroke-width="0.25" mask="url(#mask-2)"></path>
        <path d="M256.0558,187.2767 L260.6438,169.6497" id="Stroke-335" stroke="#231F20" stroke-width="0.25" mask="url(#mask-2)"></path>
        <path d="M253.4606,154.0878 L260.6436,169.6498" id="Stroke-336" stroke="#231F20" stroke-width="0.25" mask="url(#mask-2)"></path>
        <path d="M271.509,169.6493 L260.644,169.6493" id="Stroke-337" stroke="#231F20" stroke-width="0.25" mask="url(#mask-2)"></path>
        <path d="M290.6735,184.4955 L284.0275,171.0955" id="Stroke-338" stroke="#231F20" stroke-width="0.25" mask="url(#mask-2)"></path>
        <path d="M271.509,169.6493 L284.027,171.0953" id="Stroke-339" stroke="#231F20" stroke-width="0.25" mask="url(#mask-2)"></path>
        <path d="M290.9094,150.1576 L284.0274,171.0946" id="Stroke-340" stroke="#231F20" stroke-width="0.25" mask="url(#mask-2)"></path>
        <path d="M266.53,261.3187 C266.53,264.1107 264.267,266.3737 261.475,266.3737 C258.684,266.3737 256.421,264.1107 256.421,261.3187 C256.421,258.5277 258.684,256.2637 261.475,256.2637 C264.267,256.2637 266.53,258.5277 266.53,261.3187" id="Fill-341" fill="#F6931D" mask="url(#mask-2)"></path>
        <path d="M266.53,261.3187 C266.53,264.1107 264.267,266.3737 261.475,266.3737 C258.684,266.3737 256.421,264.1107 256.421,261.3187 C256.421,258.5277 258.684,256.2637 261.475,256.2637 C264.267,256.2637 266.53,258.5277 266.53,261.3187 Z" id="Stroke-342" stroke="#231F20" stroke-width="0.25" mask="url(#mask-2)"></path>
        <path d="M295.2468,261.3187 C295.2468,264.1107 292.9838,266.3737 290.1918,266.3737 C287.4008,266.3737 285.1378,264.1107 285.1378,261.3187 C285.1378,258.5277 287.4008,256.2637 290.1918,256.2637 C292.9838,256.2637 295.2468,258.5277 295.2468,261.3187" id="Fill-343" fill="#F6931D" mask="url(#mask-2)"></path>
        <path d="M295.2468,261.3187 C295.2468,264.1107 292.9838,266.3737 290.1918,266.3737 C287.4008,266.3737 285.1378,264.1107 285.1378,261.3187 C285.1378,258.5277 287.4008,256.2637 290.1918,256.2637 C292.9838,256.2637 295.2468,258.5277 295.2468,261.3187 Z" id="Stroke-344" stroke="#231F20" stroke-width="0.25" mask="url(#mask-2)"></path>
        <path d="M311.7819,205.5101 L309.6069,220.8821" id="Stroke-345" stroke="#231F20" stroke-width="1.5" mask="url(#mask-2)"></path>
        <path d="M309.468,219.6966 L316.925,234.2596" id="Stroke-346" stroke="#231F20" stroke-width="1.5" mask="url(#mask-2)"></path>
        <path d="M316.7741,233.1898 L314.7001,249.3568" id="Stroke-347" stroke="#231F20" stroke-width="1.5" mask="url(#mask-2)"></path>
        <path d="M314.6452,248.4115 L322.0182,262.7345" id="Stroke-348" stroke="#231F20" stroke-width="1.5" mask="url(#mask-2)"></path>
        <path d="M322.0295,261.6341 L319.7625,277.6561" id="Stroke-349" stroke="#231F20" stroke-width="1.5" mask="url(#mask-2)"></path>
        <path d="M319.8976,276.7015 L327.0806,291.0345" id="Stroke-350" stroke="#231F20" stroke-width="1.5" mask="url(#mask-2)"></path>
        <path d="M327.113,290.0277 L324.844,306.0637" id="Stroke-351" stroke="#231F20" stroke-width="1.5" mask="url(#mask-2)"></path>
        <path d="M324.1476,202.2709 L331.9266,216.6119" id="Stroke-352" stroke="#231F20" stroke-width="1.5" mask="url(#mask-2)"></path>
        <path d="M331.466,215.6488 L329.291,231.0218" id="Stroke-353" stroke="#231F20" stroke-width="1.5" mask="url(#mask-2)"></path>
        <path d="M329.423,230.0863 L336.611,244.4113" id="Stroke-354" stroke="#231F20" stroke-width="1.5" mask="url(#mask-2)"></path>
        <path d="M336.4572,243.5277 L339.2722,259.9507" id="Stroke-355" stroke="#231F20" stroke-width="1.5" mask="url(#mask-2)"></path>
        <path d="M339.09,259.0892 L349.924,270.2102" id="Stroke-356" stroke="#231F20" stroke-width="1.5" mask="url(#mask-2)"></path>
        <path d="M348.6271,269.5404 L365.1021,272.5944" id="Stroke-357" stroke="#231F20" stroke-width="1.5" mask="url(#mask-2)"></path>
        <path d="M333.8361,244.599 L336.4371,259.772" id="Stroke-358" stroke="#231F20" stroke-width="1.5" mask="url(#mask-2)"></path>
        <path d="M364.2184,271.9066 L375.7154,283.5686" id="Stroke-359" stroke="#231F20" stroke-width="1.5" mask="url(#mask-2)"></path>
        <path d="M337.4743,197.1146 C339.4793,208.3246 332.0173,219.0376 320.8083,221.0426 C309.5983,223.0486 298.8853,215.5866 296.8803,204.3766 C294.8753,193.1666 302.3373,182.4536 313.5463,180.4486 C324.7563,178.4436 335.4693,185.9056 337.4743,197.1146" id="Fill-360" fill="#1C75BB" mask="url(#mask-2)"></path>
        <path d="M337.4743,197.1146 C339.4793,208.3246 332.0173,219.0376 320.8083,221.0426 C309.5983,223.0486 298.8853,215.5866 296.8803,204.3766 C294.8753,193.1666 302.3373,182.4536 313.5463,180.4486 C324.7563,178.4436 335.4693,185.9056 337.4743,197.1146 Z" id="Stroke-361" stroke="#231F20" stroke-width="0.25" mask="url(#mask-2)"></path>
    </g>
</svg>