<?xml version="1.0" encoding="UTF-8"?>
<svg width="788px" height="210px" viewBox="0 0 788 210" version="1.1" xmlns="http://www.w3.org/2000/svg" xmlns:xlink="http://www.w3.org/1999/xlink">
    <title>small-logo-color1</title>
    <g id="Page-1" stroke="none" stroke-width="1" fill="none" fill-rule="evenodd">
        <g id="PEPRMINT_LOGO_1.0" transform="translate(-75.000000, -1000.000000)">
            <g id="small-logo-color1" transform="translate(75.000000, 1000.000000)">
                <path d="M214.6555,96.9359 L159.8385,96.9359 C158.9995,94.1649 158.5815,91.6179 158.5815,89.2979 C158.5815,86.0759 159.1615,82.9169 160.3215,79.8229 L178.6905,79.8229 C177.4005,72.6689 173.3735,69.0919 166.6055,69.0919 C162.0935,69.0919 158.4195,71.0109 155.5845,74.8439 C152.7475,78.6799 151.3305,83.5939 151.3305,89.5879 C151.3305,95.8399 152.6985,100.8999 155.4395,104.7669 C158.1775,108.6339 161.7715,110.5679 166.2185,110.5679 C169.8275,110.5679 173.3085,108.7639 176.6605,105.1539 L197.2535,129.9039 C187.6485,137.4449 176.9825,141.2149 165.2525,141.2149 C150.9435,141.2149 138.9225,136.4149 129.1905,126.8099 C119.4575,117.2069 114.5925,105.3149 114.5925,91.1349 C114.5925,77.0189 119.5065,65.0969 129.3355,55.3629 C139.1635,45.6319 151.2335,40.7649 165.5425,40.7649 C179.5275,40.7649 191.2745,45.5189 200.7815,55.0249 C210.2885,64.5329 215.0425,76.2459 215.0425,90.1679 C215.0425,91.5869 214.9125,93.8419 214.6555,96.9359 Z" id="Stroke-3" stroke="#231F20" stroke-width="3" fill="#000000"></path>
                <g id="P1-" transform="translate(0.000000, 1.000000)">
                    <path d="M46.5607,89.8099 L46.5607,55.1989 C54.4887,55.1989 58.4527,52.1699 58.4527,46.1109 C58.4527,40.5679 55.4217,37.7959 49.3647,37.7959 C43.2397,37.7959 40.1797,41.6009 40.1797,49.2049 L39.3717,178.2249 L10.6547,178.2249 L0.9277,53.2649 C0.9277,44.7569 1.7817,37.7819 3.4897,32.3339 C5.1967,26.8879 8.1137,21.8119 12.2397,17.1069 C16.8797,11.8859 22.6807,7.7629 29.6417,4.7319 C36.6027,1.7029 43.7887,0.1879 51.2017,0.1879 C64.6057,0.1879 75.8697,4.6999 84.9907,13.7229 C94.1107,22.7479 98.6707,33.9289 98.6707,47.2709 C98.6707,60.2259 94.5767,70.7319 86.3927,78.7889 C78.9147,86.2009 67.6367,89.9069 52.5547,89.9069 L46.5607,89.8099 Z" id="Fill-86" fill="#00A69D"></path>
                    <path d="M46.5607,89.8099 L46.5607,55.1989 C54.4887,55.1989 58.4527,52.1699 58.4527,46.1109 C58.4527,40.5679 55.4217,37.7959 49.3647,37.7959 C43.2397,37.7959 40.1797,41.6009 40.1797,49.2049 L39.3717,178.2249 L10.6547,178.2249 L0.9277,53.2649 C0.9277,44.7569 1.7817,37.7819 3.4897,32.3339 C5.1967,26.8879 8.1137,21.8119 12.2397,17.1069 C16.8797,11.8859 22.6807,7.7629 29.6417,4.7319 C36.6027,1.7029 43.7887,0.1879 51.2017,0.1879 C64.6057,0.1879 75.8697,4.6999 84.9907,13.7229 C94.1107,22.7479 98.6707,33.9289 98.6707,47.2709 C98.6707,60.2259 94.5767,70.7319 86.3927,78.7889 C78.9147,86.2009 67.6367,89.9069 52.5547,89.9069 L46.5607,89.8099 Z" id="Stroke-87" stroke="#231F20"></path>
                    <path d="M5.2351,27.5179 L40.0891,67.0629" id="Stroke-88" stroke="#231F20" stroke-width="0.75"></path>
                    <path d="M2.6403,70.9935 L40.0893,67.0625" id="Stroke-89" stroke="#231F20" stroke-width="0.75"></path>
                    <path d="M42.9514,39.9261 L5.2354,27.5181" id="Stroke-90" stroke="#231F20" stroke-width="0.75"></path>
                    <path d="M57.2785,0.055 L42.9515,39.926" id="Stroke-91" stroke="#231F20" stroke-width="0.75"></path>
                    <path d="M24.0935,6.7162 L32.9345,19.9902" id="Stroke-92" stroke="#231F20" stroke-width="0.75"></path>
                    <path d="M42.9514,39.9261 L32.9344,19.9901" id="Stroke-93" stroke="#231F20" stroke-width="0.75"></path>
                    <path d="M51.7058,15.5638 L32.9348,19.9908" id="Stroke-94" stroke="#231F20" stroke-width="0.75"></path>
                    <path d="M21.5813,32.8954 L32.9343,19.9904" id="Stroke-95" stroke="#231F20" stroke-width="0.75"></path>
                    <path d="M46.4982,55.0658 L83.3492,81.2608" id="Stroke-96" stroke="#231F20" stroke-width="0.75"></path>
                    <path d="M46.4982,89.6771 L64.7662,68.0521" id="Stroke-97" stroke="#231F20" stroke-width="0.75"></path>
                    <path d="M58.3898,45.9779 L98.4408,42.8739" id="Stroke-98" stroke="#231F20" stroke-width="0.75"></path>
                    <path d="M83.3488,81.2606 L78.4148,44.4266" id="Stroke-99" stroke="#231F20" stroke-width="0.75"></path>
                    <path d="M64.7663,68.0516 L78.4153,44.4266" id="Stroke-100" stroke="#231F20" stroke-width="0.75"></path>
                    <path d="M56.6496,40.2943 L51.7056,15.5643" id="Stroke-101" stroke="#231F20" stroke-width="0.75"></path>
                    <path d="M94.9787,29.9584 L54.1777,27.9294" id="Stroke-102" stroke="#231F20" stroke-width="0.75"></path>
                    <path d="M70.5715,4.3817 L74.5785,29.9587" id="Stroke-103" stroke="#231F20" stroke-width="0.75"></path>
                    <path d="M68.677,45.181 L74.578,29.958" id="Stroke-104" stroke="#231F20" stroke-width="0.75"></path>
                    <path d="M40.0891,67.0629 L31.7541,44.4259" id="Stroke-105" stroke="#231F20" stroke-width="0.25"></path>
                    <path d="M5.2351,27.5179 L31.7541,44.4259" id="Stroke-106" stroke="#231F20" stroke-width="0.25"></path>
                    <path d="M42.9514,39.9261 L31.7544,44.4261" id="Stroke-107" stroke="#231F20" stroke-width="0.25"></path>
                    <path d="M64.7663,68.0516 L64.9233,83.4326" id="Stroke-108" stroke="#231F20" stroke-width="0.25"></path>
                    <path d="M46.4982,89.6771 L64.9232,83.4321" id="Stroke-109" stroke="#231F20" stroke-width="0.25"></path>
                    <path d="M83.3488,81.2606 L64.9238,83.4326" id="Stroke-110" stroke="#231F20" stroke-width="0.25"></path>
                    <path d="M87.1257,43.7513 L87.1257,60.7263" id="Stroke-111" stroke="#231F20" stroke-width="0.25"></path>
                    <path d="M97.3435,58.8417 L87.1255,60.7257" id="Stroke-112" stroke="#231F20" stroke-width="0.25"></path>
                    <path d="M83.3488,81.2606 L87.1258,60.7256" id="Stroke-113" stroke="#231F20" stroke-width="0.25"></path>
                    <path d="M68.677,45.181 L83.951,35.972" id="Stroke-114" stroke="#231F20" stroke-width="0.25"></path>
                    <path d="M74.5783,29.9584 L83.9513,35.9724" id="Stroke-115" stroke="#231F20" stroke-width="0.25"></path>
                    <path d="M97.5959,36.7933 L83.9509,35.9723" id="Stroke-116" stroke="#231F20" stroke-width="0.25"></path>
                    <path d="M64.7663,68.0516 L63.0343,55.0626" id="Stroke-117" stroke="#231F20" stroke-width="0.25"></path>
                    <path d="M46.4982,55.0658 L63.0342,55.0628" id="Stroke-118" stroke="#231F20" stroke-width="0.25"></path>
                    <path d="M78.4152,44.4261 L63.0342,55.0621" id="Stroke-119" stroke="#231F20" stroke-width="0.25"></path>
                    <path d="M5.2351,27.5179 L19.7951,19.9909" id="Stroke-120" stroke="#231F20" stroke-width="0.25"></path>
                    <path d="M24.0935,6.7162 L19.7955,19.9902" id="Stroke-121" stroke="#231F20" stroke-width="0.25"></path>
                    <path d="M21.5813,32.8954 L19.7953,19.9904" id="Stroke-122" stroke="#231F20" stroke-width="0.25"></path>
                    <path d="M32.9343,19.9906 L19.7953,19.9906" id="Stroke-123" stroke="#231F20" stroke-width="0.25"></path>
                    <path d="M57.2785,0.055 L42.3205,8.591" id="Stroke-124" stroke="#231F20" stroke-width="0.25"></path>
                    <path d="M32.9343,19.9906 L42.3203,8.5916" id="Stroke-125" stroke="#231F20" stroke-width="0.25"></path>
                    <path d="M51.7058,15.5638 L42.3198,8.5908" id="Stroke-126" stroke="#231F20" stroke-width="0.25"></path>
                    <path d="M24.0935,6.7162 L42.3205,8.5912" id="Stroke-127" stroke="#231F20" stroke-width="0.25"></path>
                    <path d="M42.9514,39.9261 L42.3204,26.4431" id="Stroke-128" stroke="#231F20" stroke-width="0.25"></path>
                    <path d="M32.9343,19.9906 L42.3203,26.4436" id="Stroke-129" stroke="#231F20" stroke-width="0.25"></path>
                    <path d="M51.7058,15.5638 L42.3198,26.4428" id="Stroke-130" stroke="#231F20" stroke-width="0.25"></path>
                    <path d="M70.5715,4.3817 L61.4735,14.2907" id="Stroke-131" stroke="#231F20" stroke-width="0.25"></path>
                    <path d="M74.5783,29.9584 L61.4743,14.2914" id="Stroke-132" stroke="#231F20" stroke-width="0.25"></path>
                    <path d="M54.1774,27.9291 L61.4734,14.2911" id="Stroke-133" stroke="#231F20" stroke-width="0.25"></path>
                    <path d="M57.2785,0.055 L61.4735,14.291" id="Stroke-134" stroke="#231F20" stroke-width="0.25"></path>
                    <path d="M74.5783,29.9584 L80.8823,19.9904" id="Stroke-135" stroke="#231F20" stroke-width="0.25"></path>
                    <path d="M70.5715,4.3817 L80.8825,19.9907" id="Stroke-136" stroke="#231F20" stroke-width="0.25"></path>
                    <path d="M94.9787,29.9584 L80.8817,19.9904" id="Stroke-137" stroke="#231F20" stroke-width="0.25"></path>
                    <path d="M56.6496,40.2943 L64.7666,36.3823" id="Stroke-138" stroke="#231F20" stroke-width="0.25"></path>
                    <path d="M68.677,45.181 L64.766,36.383" id="Stroke-139" stroke="#231F20" stroke-width="0.25"></path>
                    <path d="M74.5783,29.9584 L64.7663,36.3824" id="Stroke-140" stroke="#231F20" stroke-width="0.25"></path>
                    <path d="M54.1774,27.9291 L64.7664,36.3831" id="Stroke-141" stroke="#231F20" stroke-width="0.25"></path>
                    <path d="M42.9514,39.9261 L50.1154,29.9581" id="Stroke-142" stroke="#231F20" stroke-width="0.25"></path>
                    <path d="M51.7058,15.5638 L50.1148,29.9588" id="Stroke-143" stroke="#231F20" stroke-width="0.25"></path>
                    <path d="M56.6496,40.2943 L50.1146,29.9583" id="Stroke-144" stroke="#231F20" stroke-width="0.25"></path>
                    <path d="M46.4982,89.6771 L53.3822,70.9931" id="Stroke-145" stroke="#231F20" stroke-width="0.25"></path>
                    <path d="M46.4982,55.0658 L53.3822,70.9938" id="Stroke-146" stroke="#231F20" stroke-width="0.25"></path>
                    <path d="M64.7663,68.0516 L53.3823,70.9936" id="Stroke-147" stroke="#231F20" stroke-width="0.25"></path>
                    <path d="M78.4152,44.4261 L74.1362,64.7841" id="Stroke-148" stroke="#231F20" stroke-width="0.25"></path>
                    <path d="M64.7663,68.0516 L74.1363,64.7846" id="Stroke-149" stroke="#231F20" stroke-width="0.25"></path>
                    <path d="M83.3488,81.2606 L74.1368,64.7846" id="Stroke-150" stroke="#231F20" stroke-width="0.25"></path>
                    <path d="M2.6403,70.9935 L21.3643,45.8185" id="Stroke-151" stroke="#231F20"></path>
                    <path d="M10.655,178.2249 L24.093,156.4059" id="Stroke-152" stroke="#231F20"></path>
                    <path d="M39.3718,178.2249 L24.0938,156.4059" id="Stroke-153" stroke="#231F20"></path>
                    <path d="M39.653,133.305 L24.093,156.406" id="Stroke-154" stroke="#231F20"></path>
                    <path d="M7.1315,132.9632 L24.0935,156.4052" id="Stroke-155" stroke="#231F20"></path>
                    <path d="M22.8991,130.5697 L39.8531,101.4017" id="Stroke-156" stroke="#231F20"></path>
                    <path d="M39.653,133.305 L22.899,130.57" id="Stroke-157" stroke="#231F20"></path>
                    <path d="M7.1315,132.9632 L22.8995,130.5692" id="Stroke-158" stroke="#231F20"></path>
                    <path d="M5.2351,104.183 L22.8991,130.57" id="Stroke-159" stroke="#231F20"></path>
                    <path d="M2.6403,70.9935 L20.6883,86.5545" id="Stroke-160" stroke="#231F20"></path>
                    <path d="M5.2351,104.183 L20.6881,86.555" id="Stroke-161" stroke="#231F20"></path>
                    <path d="M39.8527,101.4017 L20.6877,86.5547" id="Stroke-162" stroke="#231F20"></path>
                    <path d="M40.0891,67.0629 L20.6881,86.5549" id="Stroke-163" stroke="#231F20"></path>
                    <path d="M21.3645,45.8182 L0.9275,49.7442" id="Stroke-164" stroke="#231F20" stroke-width="0.25"></path>
                    <path d="M2.6403,70.9935 L11.0583,47.7985" id="Stroke-165" stroke="#231F20" stroke-width="0.25"></path>
                    <path d="M5.2351,27.5179 L11.0591,47.7979" id="Stroke-166" stroke="#231F20" stroke-width="0.25"></path>
                    <path d="M2.6403,70.9935 L21.3643,60.7255" id="Stroke-167" stroke="#231F20" stroke-width="0.25"></path>
                    <path d="M21.3645,45.8182 L21.3645,60.7262" id="Stroke-168" stroke="#231F20" stroke-width="0.25"></path>
                    <path d="M40.0891,67.0629 L21.3641,60.7259" id="Stroke-169" stroke="#231F20" stroke-width="0.25"></path>
                    <path d="M19.7951,73.0228 L20.6881,86.5548" id="Stroke-170" stroke="#231F20" stroke-width="0.25"></path>
                    <path d="M31.7541,44.4261 L21.3641,45.8181" id="Stroke-171" stroke="#231F20" stroke-width="0.25"></path>
                    <path d="M40.0891,67.0629 L19.7951,73.0229" id="Stroke-172" stroke="#231F20" stroke-width="0.25"></path>
                    <path d="M2.6403,70.9935 L19.7953,73.0225" id="Stroke-173" stroke="#231F20" stroke-width="0.25"></path>
                    <path d="M22.8991,130.5697 L20.6881,86.5547" id="Stroke-174" stroke="#231F20" stroke-width="0.25"></path>
                    <path d="M39.8527,101.4017 L21.4897,108.5617" id="Stroke-175" stroke="#231F20" stroke-width="0.25"></path>
                    <path d="M5.2351,104.183 L21.4891,108.562" id="Stroke-176" stroke="#231F20" stroke-width="0.25"></path>
                    <path d="M22.8991,130.5697 L35.9211,123.9867" id="Stroke-177" stroke="#231F20" stroke-width="0.25"></path>
                    <path d="M39.8527,101.4017 L35.9217,123.9867" id="Stroke-178" stroke="#231F20" stroke-width="0.25"></path>
                    <path d="M39.653,133.305 L35.922,123.987" id="Stroke-179" stroke="#231F20" stroke-width="0.25"></path>
                    <path d="M22.8991,130.5697 L22.6621,140.6357" id="Stroke-180" stroke="#231F20" stroke-width="0.25"></path>
                    <path d="M24.0935,156.4056 L22.6625,140.6356" id="Stroke-181" stroke="#231F20" stroke-width="0.25"></path>
                    <path d="M39.653,133.305 L22.662,140.636" id="Stroke-182" stroke="#231F20" stroke-width="0.25"></path>
                    <path d="M7.1315,132.9632 L22.6625,140.6362" id="Stroke-183" stroke="#231F20" stroke-width="0.25"></path>
                    <path d="M24.0935,156.4056 L24.0935,167.3146" id="Stroke-184" stroke="#231F20" stroke-width="0.25"></path>
                    <path d="M10.655,178.2249 L24.093,167.3149" id="Stroke-185" stroke="#231F20" stroke-width="0.25"></path>
                    <path d="M39.3718,178.2249 L24.0938,167.3149" id="Stroke-186" stroke="#231F20" stroke-width="0.25"></path>
                    <path d="M24.0935,156.4056 L31.8735,156.4056" id="Stroke-187" stroke="#231F20" stroke-width="0.25"></path>
                    <path d="M39.653,133.305 L31.873,156.406" id="Stroke-188" stroke="#231F20" stroke-width="0.25"></path>
                    <path d="M39.3718,178.2249 L31.8728,156.4059" id="Stroke-189" stroke="#231F20" stroke-width="0.25"></path>
                    <path d="M7.1315,132.9632 L12.5155,122.6442" id="Stroke-190" stroke="#231F20" stroke-width="0.25"></path>
                    <path d="M5.2351,104.183 L12.5151,122.644" id="Stroke-191" stroke="#231F20" stroke-width="0.25"></path>
                    <path d="M22.8991,130.5697 L12.5151,122.6437" id="Stroke-192" stroke="#231F20" stroke-width="0.25"></path>
                    <path d="M24.0935,167.3148 L22.8995,178.0918" id="Stroke-193" stroke="#231F20" stroke-width="0.25"></path>
                    <path d="M10.655,178.2249 L15.613,156.4059" id="Stroke-194" stroke="#231F20" stroke-width="0.25"></path>
                    <path d="M24.0935,156.4056 L15.6125,156.4056" id="Stroke-195" stroke="#231F20" stroke-width="0.25"></path>
                    <path d="M7.1315,132.9632 L15.6125,156.4052" id="Stroke-196" stroke="#231F20" stroke-width="0.25"></path>
                    <path d="M5.2351,104.183 L9.8231,86.555" id="Stroke-197" stroke="#231F20" stroke-width="0.25"></path>
                    <path d="M2.6403,70.9935 L9.8233,86.5545" id="Stroke-198" stroke="#231F20" stroke-width="0.25"></path>
                    <path d="M20.6882,86.5546 L9.8232,86.5546" id="Stroke-199" stroke="#231F20" stroke-width="0.25"></path>
                    <path d="M39.8527,101.4017 L33.2067,88.0007" id="Stroke-200" stroke="#231F20" stroke-width="0.25"></path>
                    <path d="M20.6882,86.5546 L33.2072,88.0006" id="Stroke-201" stroke="#231F20" stroke-width="0.25"></path>
                    <path d="M40.0891,67.0629 L33.2071,87.9999" id="Stroke-202" stroke="#231F20" stroke-width="0.25"></path>
                    <path d="M15.7097,178.2249 C15.7097,181.0159 13.4467,183.2799 10.6547,183.2799 C7.8627,183.2799 5.6007,181.0159 5.6007,178.2249 C5.6007,175.4329 7.8627,173.1699 10.6547,173.1699 C13.4467,173.1699 15.7097,175.4329 15.7097,178.2249" id="Fill-203" fill="#F6931D"></path>
                    <path d="M15.7097,178.2249 C15.7097,181.0159 13.4467,183.2799 10.6547,183.2799 C7.8627,183.2799 5.6007,181.0159 5.6007,178.2249 C5.6007,175.4329 7.8627,173.1699 10.6547,173.1699 C13.4467,173.1699 15.7097,175.4329 15.7097,178.2249 Z" id="Stroke-204" stroke="#231F20" stroke-width="0.25"></path>
                    <path d="M44.4265,178.2249 C44.4265,181.0159 42.1635,183.2799 39.3715,183.2799 C36.5795,183.2799 34.3175,181.0159 34.3175,178.2249 C34.3175,175.4329 36.5795,173.1699 39.3715,173.1699 C42.1635,173.1699 44.4265,175.4329 44.4265,178.2249" id="Fill-205" fill="#F6931D"></path>
                    <path d="M44.4265,178.2249 C44.4265,181.0159 42.1635,183.2799 39.3715,183.2799 C36.5795,183.2799 34.3175,181.0159 34.3175,178.2249 C34.3175,175.4329 36.5795,173.1699 39.3715,173.1699 C42.1635,173.1699 44.4265,175.4329 44.4265,178.2249 Z" id="Stroke-206" stroke="#231F20" stroke-width="0.25"></path>
                    <path d="M60.9616,120.4154 L58.7866,135.7874" id="Stroke-207" stroke="#231F20" stroke-width="1.5"></path>
                    <path d="M58.6477,134.6029 L66.1047,149.1659" id="Stroke-208" stroke="#231F20" stroke-width="1.5"></path>
                    <path d="M65.9538,148.0961 L63.8798,164.2631" id="Stroke-209" stroke="#231F20" stroke-width="1.5"></path>
                    <path d="M63.8249,163.3177 L71.1979,177.6407" id="Stroke-210" stroke="#231F20" stroke-width="1.5"></path>
                    <path d="M71.2092,176.5394 L68.9412,192.5614" id="Stroke-211" stroke="#231F20" stroke-width="1.5"></path>
                    <path d="M69.0769,191.6068 L76.2599,205.9398" id="Stroke-212" stroke="#231F20" stroke-width="1.5"></path>
                    <path d="M73.3273,117.1761 L81.1063,131.5171" id="Stroke-214" stroke="#231F20" stroke-width="1.5"></path>
                    <path d="M80.6457,130.5541 L78.4697,145.9271" id="Stroke-215" stroke="#231F20" stroke-width="1.5"></path>
                    <path d="M78.6022,144.9925 L85.7902,159.3165" id="Stroke-216" stroke="#231F20" stroke-width="1.5"></path>
                    <path d="M85.6369,158.433 L88.4519,174.856" id="Stroke-217" stroke="#231F20" stroke-width="1.5"></path>
                    <path d="M88.2697,173.9945 L99.1037,185.1155" id="Stroke-218" stroke="#231F20" stroke-width="1.5"></path>
                    <path d="M97.8064,184.4466 L114.2814,187.4996" id="Stroke-219" stroke="#231F20" stroke-width="1.5"></path>
                    <path d="M83.0158,159.5042 L85.6168,174.6772" id="Stroke-220" stroke="#231F20" stroke-width="1.5"></path>
                    <path d="M86.654,112.0199 C88.659,123.2299 81.197,133.9429 69.987,135.9479 C58.778,137.9539 48.065,130.4919 46.06,119.2819 C44.055,108.0719 51.516,97.3599 62.726,95.3539 C73.936,93.3489 84.649,100.8109 86.654,112.0199" id="Fill-222" fill="#00A69D"></path>
                    <path d="M86.654,112.0199 C88.659,123.2299 81.197,133.9429 69.987,135.9479 C58.778,137.9539 48.065,130.4919 46.06,119.2819 C44.055,108.0719 51.516,97.3599 62.726,95.3539 C73.936,93.3489 84.649,100.8109 86.654,112.0199 Z" id="Stroke-223" stroke="#231F20"></path>
                </g>
                <path d="M393.8039,41.9247 L393.8039,80.5967 C391.2899,79.1797 389.0019,78.4697 386.9389,78.4697 C380.3649,78.4697 377.0779,83.4967 377.0779,93.5517 L377.0779,139.2817 L340.9189,139.2817 L340.9189,86.5907 C340.9189,72.6687 344.7219,61.5677 352.3269,53.2847 C359.9319,45.0037 370.0829,40.8617 382.7819,40.8617 C385.6179,40.8617 389.2919,41.2167 393.8039,41.9247" id="Fill-5" stroke="#979797" fill="#00A69D"></path>
                <path d="M393.8039,41.9247 L393.8039,80.5967 C391.2899,79.1797 389.0019,78.4697 386.9389,78.4697 C380.3649,78.4697 377.0779,83.4967 377.0779,93.5517 L377.0779,139.2817 L340.9189,139.2817 L340.9189,86.5907 C340.9189,72.6687 344.7219,61.5677 352.3269,53.2847 C359.9319,45.0037 370.0829,40.8617 382.7819,40.8617 C385.6179,40.8617 389.2919,41.2167 393.8039,41.9247 Z" id="Stroke-7" stroke="#231F20"></path>
                <path d="M404.4387,139.2816 L404.4387,44.1486 C404.4387,32.3536 408.0157,22.7186 415.1697,15.2406 C422.3247,7.7656 431.6057,4.0266 443.0137,4.0266 C456.5487,4.0266 466.9567,10.2476 474.2417,22.6856 C478.6887,15.9836 483.4587,11.1976 488.5497,8.3286 C493.6397,5.4616 499.9237,4.0266 507.4027,4.0266 C519.2597,4.0266 528.3477,7.7656 534.6667,15.2406 C540.9827,22.7186 544.1407,33.4826 544.1407,47.5316 L544.1407,139.2816 L504.8887,139.2816 L504.8887,53.4296 C504.8887,49.1756 504.5497,46.3576 503.8737,44.9696 C503.1967,43.5856 501.8277,42.8916 499.7647,42.8916 C495.8977,42.8916 493.9637,46.1786 493.9637,52.7526 L493.9637,139.2816 L454.7117,139.2816 L454.7117,53.4296 C454.7117,49.2406 454.3577,46.4376 453.6487,45.0186 C452.9377,43.6016 451.5537,42.8916 449.4917,42.8916 C445.6247,42.8916 443.6907,46.4056 443.6907,53.4296 L443.6907,139.2816 L404.4387,139.2816 Z" id="Fill-9" fill="#FEFEFE"></path>
                <path d="M404.4387,139.2816 L404.4387,44.1486 C404.4387,32.3536 408.0157,22.7186 415.1697,15.2406 C422.3247,7.7656 431.6057,4.0266 443.0137,4.0266 C456.5487,4.0266 466.9567,10.2476 474.2417,22.6856 C478.6887,15.9836 483.4587,11.1976 488.5497,8.3286 C493.6397,5.4616 499.9237,4.0266 507.4027,4.0266 C519.2597,4.0266 528.3477,7.7656 534.6667,15.2406 C540.9827,22.7186 544.1407,33.4826 544.1407,47.5316 L544.1407,139.2816 L504.8887,139.2816 L504.8887,53.4296 C504.8887,49.1756 504.5497,46.3576 503.8737,44.9696 C503.1967,43.5856 501.8277,42.8916 499.7647,42.8916 C495.8977,42.8916 493.9637,46.1786 493.9637,52.7526 L493.9637,139.2816 L454.7117,139.2816 L454.7117,53.4296 C454.7117,49.2406 454.3577,46.4376 453.6487,45.0186 C452.9377,43.6016 451.5537,42.8916 449.4917,42.8916 C445.6247,42.8916 443.6907,46.4056 443.6907,53.4296 L443.6907,139.2816 L404.4387,139.2816 Z" id="Stroke-11" stroke="#231F20"></path>
                <polygon id="Fill-13" fill="#D8D8D8" points="567.924 139.282 607.176 139.282 607.176 7.314 567.924 7.314"></polygon>
                <polygon id="Stroke-15" stroke="#231F20" fill="#00A69D" points="567.924 139.282 607.176 139.282 607.176 7.314 567.924 7.314"></polygon>
                <path d="M716.8107,139.2816 L680.6527,139.2816 L680.6527,84.8506 C680.6527,79.3086 678.3647,76.5356 673.7887,76.5356 C669.2767,76.5356 667.0207,79.3086 667.0207,84.8506 L667.0207,139.2816 L630.8627,139.2816 L630.8627,85.5276 C630.8627,72.9586 635.0197,62.3726 643.3337,53.7676 C651.6487,45.1636 661.8317,40.8616 673.8847,40.8616 C687.6757,40.8616 698.7317,45.8576 707.0457,55.8466 C713.5557,63.6466 716.8107,74.5056 716.8107,88.4276 L716.8107,139.2816 Z" id="Fill-16" fill="#00A69D"></path>
                <path d="M716.8107,139.2816 L680.6527,139.2816 L680.6527,84.8506 C680.6527,79.3086 678.3647,76.5356 673.7887,76.5356 C669.2767,76.5356 667.0207,79.3086 667.0207,84.8506 L667.0207,139.2816 L630.8627,139.2816 L630.8627,85.5276 C630.8627,72.9586 635.0197,62.3726 643.3337,53.7676 C651.6487,45.1636 661.8317,40.8616 673.8847,40.8616 C687.6757,40.8616 698.7317,45.8576 707.0457,55.8466 C713.5557,63.6466 716.8107,74.5056 716.8107,88.4276 L716.8107,139.2816 Z" id="Stroke-17" stroke="#231F20"></path>
                <path d="M770.0812,7.3133 L770.0812,44.2453 L786.3232,44.2453 L786.3232,82.4333 L770.0812,82.4333 C770.0812,90.1053 771.2892,95.3893 773.7062,98.2893 C776.1232,101.1893 780.5552,102.6403 787.0002,102.6403 L787.0002,140.6353 C785.1292,140.6983 783.7452,140.7313 782.8432,140.7313 C774.6572,140.7313 766.9382,138.8313 759.6872,135.0273 C752.4362,131.2253 746.6202,126.0693 742.2372,119.5593 C736.6922,111.2443 733.9232,100.2233 733.9232,86.4943 L733.9232,7.3133 L770.0812,7.3133 Z" id="Fill-18" fill="#FEFEFE"></path>
                <path d="M770.0812,7.3133 L770.0812,44.2453 L786.3232,44.2453 L786.3232,82.4333 L770.0812,82.4333 C770.0812,90.1053 771.2892,95.3893 773.7062,98.2893 C776.1232,101.1893 780.5552,102.6403 787.0002,102.6403 L787.0002,140.6353 C785.1292,140.6983 783.7452,140.7313 782.8432,140.7313 C774.6572,140.7313 766.9382,138.8313 759.6872,135.0273 C752.4362,131.2253 746.6202,126.0693 742.2372,119.5593 C736.6922,111.2443 733.9232,100.2233 733.9232,86.4943 L733.9232,7.3133 L770.0812,7.3133 Z" id="Stroke-19" stroke="#231F20" fill="#00A69D"></path>
                <polygon id="Fill-20" fill="#00A69D" points="404.439 139.282 443.691 139.282 443.691 121.439 404.439 121.439"></polygon>
                <polygon id="Stroke-21" stroke="#231F20" fill="#00A69D" points="404.439 139.282 443.691 139.282 443.691 121.439 404.439 121.439"></polygon>
                <polygon id="Fill-22" fill="#00A69D" points="454.712 139.281 493.964 139.281 493.964 87.026 454.712 87.026"></polygon>
                <polygon id="Stroke-23" stroke="#231F20" points="454.712 139.281 493.964 139.281 493.964 87.026 454.712 87.026"></polygon>
                <polygon id="Fill-24" fill="#F6931D" points="504.889 139.282 544.141 139.282 544.141 56.21 504.889 56.21"></polygon>
                <polygon id="Stroke-25" stroke="#231F20" fill="#00A69D" points="504.889 139.282 544.141 139.282 544.141 56.21 504.889 56.21"></polygon>
                <path d="M648.4103,117.7093 L655.6313,96.5043" id="Stroke-26" stroke="#231F20" stroke-width="0.25"></path>
                <path d="M644.799,74.5873 L655.631,96.5043" id="Stroke-27" stroke="#231F20" stroke-width="0.25"></path>
                <path d="M707.8342,90.9896 L693.6432,113.1536" id="Stroke-28" stroke="#231F20" stroke-width="0.25"></path>
                <path d="M711.4445,131.1966 L693.6425,112.1476" id="Stroke-29" stroke="#231F20" stroke-width="0.25"></path>
                <path d="M684.7267,71.6537 L707.8337,90.9897" id="Stroke-30" stroke="#231F20" stroke-width="0.25"></path>
                <path d="M694.0256,112.557 L684.7266,71.654" id="Stroke-31" stroke="#231F20" stroke-width="0.25"></path>
                <path d="M707.8342,90.9896 L711.4442,131.1966" id="Stroke-32" stroke="#231F20" stroke-width="0.25"></path>
                <path d="M670.549,48.0199 L684.727,71.6539" id="Stroke-33" stroke="#231F20" stroke-width="0.25"></path>
                <path d="M644.799,74.5873 L670.549,48.0203" id="Stroke-34" stroke="#231F20" stroke-width="0.25"></path>
                <path d="M684.7267,71.6537 L644.7987,74.5877" id="Stroke-35" stroke="#231F20" stroke-width="0.25"></path>
                <path d="M648.4103,117.7093 L644.7993,74.5873" id="Stroke-36" stroke="#231F20" stroke-width="0.25"></path>
                <path d="M684.7267,71.6537 L702.5437,63.4477" id="Stroke-37" stroke="#231F20" stroke-width="0.25"></path>
                <path d="M693.6428,112.1478 L702.5438,63.4478" id="Stroke-38" stroke="#231F20" stroke-width="0.25"></path>
                <path d="M639.0314,130.2923 L648.4104,117.7093" id="Stroke-39" stroke="#231F20" stroke-width="0.25"></path>
                <path d="M658.506,126.681 L648.41,117.709" id="Stroke-40" stroke="#231F20" stroke-width="0.25"></path>
                <path d="M655.631,96.5043 L658.506,126.6813" id="Stroke-41" stroke="#231F20" stroke-width="0.25"></path>
                <path d="M639.0314,100.1146 L655.6314,96.5046" id="Stroke-42" stroke="#231F20" stroke-width="0.25"></path>
                <path d="M648.4103,117.7093 L638.0443,100.1143" id="Stroke-43" stroke="#231F20" stroke-width="0.25"></path>
                <path d="M693.6349,130.2923 L693.6429,112.1473" id="Stroke-44" stroke="#231F20" stroke-width="0.25"></path>
                <path d="M706.5978,77.2186 L693.6348,113.1536" id="Stroke-45" stroke="#231F20" stroke-width="0.25"></path>
                <path d="M672.6711,64.9144 L652.0211,53.6744" id="Stroke-46" stroke="#231F20" stroke-width="0.25"></path>
                <path d="M684.7267,71.6537 L672.6707,64.9147" id="Stroke-47" stroke="#231F20" stroke-width="0.25"></path>
                <path d="M706.5978,77.2186 L684.7268,71.6536" id="Stroke-48" stroke="#231F20" stroke-width="0.25"></path>
                <path d="M652.0207,117.7093 C652.0207,119.7033 650.4037,121.3193 648.4107,121.3193 C646.4167,121.3193 644.7987,119.7033 644.7987,117.7093 C644.7987,115.7153 646.4167,114.0983 648.4107,114.0983 C650.4037,114.0983 652.0207,115.7153 652.0207,117.7093" id="Fill-49" fill="#1C75BB"></path>
                <path d="M652.0207,117.7093 C652.0207,119.7033 650.4037,121.3193 648.4107,121.3193 C646.4167,121.3193 644.7987,119.7033 644.7987,117.7093 C644.7987,115.7153 646.4167,114.0983 648.4107,114.0983 C650.4037,114.0983 652.0207,115.7153 652.0207,117.7093 Z" id="Stroke-50" stroke="#231F20" stroke-width="0.25"></path>
                <path d="M648.4103,74.5873 C648.4103,76.5813 646.7933,78.1973 644.7993,78.1973 C642.8053,78.1973 641.1883,76.5813 641.1883,74.5873 C641.1883,72.5933 642.8053,70.9773 644.7993,70.9773 C646.7933,70.9773 648.4103,72.5933 648.4103,74.5873" id="Fill-51" fill="#1C75BB"></path>
                <path d="M648.4103,74.5873 C648.4103,76.5813 646.7933,78.1973 644.7993,78.1973 C642.8053,78.1973 641.1883,76.5813 641.1883,74.5873 C641.1883,72.5933 642.8053,70.9773 644.7993,70.9773 C646.7933,70.9773 648.4103,72.5933 648.4103,74.5873 Z" id="Stroke-52" stroke="#231F20" stroke-width="0.25"></path>
                <path d="M688.3371,71.6537 C688.3371,73.6477 686.7201,75.2647 684.7271,75.2647 C682.7331,75.2647 681.1151,73.6477 681.1151,71.6537 C681.1151,69.6597 682.7331,68.0437 684.7271,68.0437 C686.7201,68.0437 688.3371,69.6597 688.3371,71.6537" id="Fill-53" fill="#1C75BB"></path>
                <path d="M688.3371,71.6537 C688.3371,73.6477 686.7201,75.2647 684.7271,75.2647 C682.7331,75.2647 681.1151,73.6477 681.1151,71.6537 C681.1151,69.6597 682.7331,68.0437 684.7271,68.0437 C686.7201,68.0437 688.3371,69.6597 688.3371,71.6537 Z" id="Stroke-54" stroke="#231F20" stroke-width="0.25"></path>
                <path d="M711.4445,90.9896 C711.4445,92.9836 709.8285,94.5996 707.8345,94.5996 C705.8405,94.5996 704.2235,92.9836 704.2235,90.9896 C704.2235,88.9956 705.8405,87.3796 707.8345,87.3796 C709.8285,87.3796 711.4445,88.9956 711.4445,90.9896" id="Fill-55" fill="#1C75BB"></path>
                <path d="M711.4445,90.9896 C711.4445,92.9836 709.8285,94.5996 707.8345,94.5996 C705.8405,94.5996 704.2235,92.9836 704.2235,90.9896 C704.2235,88.9956 705.8405,87.3796 707.8345,87.3796 C709.8285,87.3796 711.4445,88.9956 711.4445,90.9896 Z" id="Stroke-56" stroke="#231F20" stroke-width="0.25"></path>
                <path d="M715.0549,130.2923 C715.0549,132.2853 713.4389,133.9023 711.4449,133.9023 C709.4509,133.9023 707.8339,132.2853 707.8339,130.2923 C707.8339,128.2983 709.4509,126.6813 711.4449,126.6813 C713.4389,126.6813 715.0549,128.2983 715.0549,130.2923" id="Fill-57" fill="#1C75BB"></path>
                <path d="M715.0549,130.2923 C715.0549,132.2853 713.4389,133.9023 711.4449,133.9023 C709.4509,133.9023 707.8339,132.2853 707.8339,130.2923 C707.8339,128.2983 709.4509,126.6813 711.4449,126.6813 C713.4389,126.6813 715.0549,128.2983 715.0549,130.2923 Z" id="Stroke-58" stroke="#231F20" stroke-width="0.25"></path>
                <path d="M670.549,48.0199 L655.631,96.5039" id="Stroke-59" stroke="#231F20" stroke-width="0.25"></path>
                <path d="M642.6418,130.2923 C642.6418,132.2853 641.0258,133.9023 639.0318,133.9023 C637.0378,133.9023 635.4208,132.2853 635.4208,130.2923 C635.4208,128.2983 637.0378,126.6813 639.0318,126.6813 C641.0258,126.6813 642.6418,128.2983 642.6418,130.2923" id="Fill-60" fill="#1C75BB"></path>
                <path d="M642.6418,130.2923 C642.6418,132.2853 641.0258,133.9023 639.0318,133.9023 C637.0378,133.9023 635.4208,132.2853 635.4208,130.2923 C635.4208,128.2983 637.0378,126.6813 639.0318,126.6813 C641.0258,126.6813 642.6418,128.2983 642.6418,130.2923 Z" id="Stroke-61" stroke="#231F20" stroke-width="0.25"></path>
                <path d="M670.549,48.0199 L702.544,63.4479" id="Stroke-62" stroke="#231F20" stroke-width="0.25"></path>
                <path d="M662.1164,126.681 C662.1164,128.675 660.5004,130.292 658.5064,130.292 C656.5124,130.292 654.8954,128.675 654.8954,126.681 C654.8954,124.688 656.5124,123.071 658.5064,123.071 C660.5004,123.071 662.1164,124.688 662.1164,126.681" id="Fill-63" fill="#00A69D"></path>
                <path d="M662.1164,126.681 C662.1164,128.675 660.5004,130.292 658.5064,130.292 C656.5124,130.292 654.8954,128.675 654.8954,126.681 C654.8954,124.688 656.5124,123.071 658.5064,123.071 C660.5004,123.071 662.1164,124.688 662.1164,126.681 Z" id="Stroke-64" stroke="#231F20" stroke-width="0.25"></path>
                <path d="M697.2453,128.9994 C697.2453,130.9934 695.6293,132.6094 693.6353,132.6094 C691.6413,132.6094 690.0243,130.9934 690.0243,128.9994 C690.0243,127.0054 691.6413,125.3894 693.6353,125.3894 C695.6293,125.3894 697.2453,127.0054 697.2453,128.9994" id="Fill-65" fill="#00A69D"></path>
                <path d="M697.2453,128.9994 C697.2453,130.9934 695.6293,132.6094 693.6353,132.6094 C691.6413,132.6094 690.0243,130.9934 690.0243,128.9994 C690.0243,127.0054 691.6413,125.3894 693.6353,125.3894 C695.6293,125.3894 697.2453,127.0054 697.2453,128.9994 Z" id="Stroke-66" stroke="#231F20" stroke-width="0.25"></path>
                <path d="M655.631,53.6747 C655.631,55.6687 654.015,57.2857 652.021,57.2857 C650.027,57.2857 648.41,55.6687 648.41,53.6747 C648.41,51.6807 650.027,50.0647 652.021,50.0647 C654.015,50.0647 655.631,51.6807 655.631,53.6747" id="Fill-67" fill="#00A69D"></path>
                <path d="M655.631,53.6747 C655.631,55.6687 654.015,57.2857 652.021,57.2857 C650.027,57.2857 648.41,55.6687 648.41,53.6747 C648.41,51.6807 650.027,50.0647 652.021,50.0647 C654.015,50.0647 655.631,51.6807 655.631,53.6747 Z" id="Stroke-68" stroke="#231F20" stroke-width="0.25"></path>
                <path d="M642.6418,100.1146 C642.6418,102.1086 641.0258,103.7246 639.0318,103.7246 C637.0378,103.7246 635.4208,102.1086 635.4208,100.1146 C635.4208,98.1206 637.0378,96.5046 639.0318,96.5046 C641.0258,96.5046 642.6418,98.1206 642.6418,100.1146" id="Fill-69" fill="#00A69D"></path>
                <path d="M642.6418,100.1146 C642.6418,102.1086 641.0258,103.7246 639.0318,103.7246 C637.0378,103.7246 635.4208,102.1086 635.4208,100.1146 C635.4208,98.1206 637.0378,96.5046 639.0318,96.5046 C641.0258,96.5046 642.6418,98.1206 642.6418,100.1146 Z" id="Stroke-70" stroke="#231F20" stroke-width="0.25"></path>
                <path d="M676.2814,64.9144 C676.2814,66.9084 674.6654,68.5244 672.6714,68.5244 C670.6774,68.5244 669.0604,66.9084 669.0604,64.9144 C669.0604,62.9204 670.6774,61.3034 672.6714,61.3034 C674.6654,61.3034 676.2814,62.9204 676.2814,64.9144" id="Fill-71" fill="#00A69D"></path>
                <path d="M676.2814,64.9144 C676.2814,66.9084 674.6654,68.5244 672.6714,68.5244 C670.6774,68.5244 669.0604,66.9084 669.0604,64.9144 C669.0604,62.9204 670.6774,61.3034 672.6714,61.3034 C674.6654,61.3034 676.2814,62.9204 676.2814,64.9144 Z" id="Stroke-72" stroke="#231F20" stroke-width="0.25"></path>
                <path d="M710.2082,77.2186 C710.2082,79.2126 708.5922,80.8286 706.5982,80.8286 C704.6042,80.8286 702.9872,79.2126 702.9872,77.2186 C702.9872,75.2246 704.6042,73.6086 706.5982,73.6086 C708.5922,73.6086 710.2082,75.2246 710.2082,77.2186" id="Fill-73" fill="#00A69D"></path>
                <path d="M710.2082,77.2186 C710.2082,79.2126 708.5922,80.8286 706.5982,80.8286 C704.6042,80.8286 702.9872,79.2126 702.9872,77.2186 C702.9872,75.2246 704.6042,73.6086 706.5982,73.6086 C708.5922,73.6086 710.2082,75.2246 710.2082,77.2186 Z" id="Stroke-74" stroke="#231F20" stroke-width="0.25"></path>
                <path d="M697.2531,113.1537 C697.2531,115.1477 695.6371,116.7637 693.6431,116.7637 C691.6491,116.7637 690.0321,115.1477 690.0321,113.1537 C690.0321,111.1597 691.6491,109.5437 693.6431,109.5437 C695.6371,109.5437 697.2531,111.1597 697.2531,113.1537" id="Fill-75" fill="#1C75BB"></path>
                <path d="M697.2531,113.1537 C697.2531,115.1477 695.6371,116.7637 693.6431,116.7637 C691.6491,116.7637 690.0321,115.1477 690.0321,113.1537 C690.0321,111.1597 691.6491,109.5437 693.6431,109.5437 C695.6371,109.5437 697.2531,111.1597 697.2531,113.1537 Z" id="Stroke-76" stroke="#231F20" stroke-width="0.25"></path>
                <path d="M706.1545,63.4476 C706.1545,65.4416 704.5385,67.0576 702.5445,67.0576 C700.5505,67.0576 698.9335,65.4416 698.9335,63.4476 C698.9335,61.4536 700.5505,59.8366 702.5445,59.8366 C704.5385,59.8366 706.1545,61.4536 706.1545,63.4476" id="Fill-77" fill="#1C75BB"></path>
                <path d="M706.1545,63.4476 C706.1545,65.4416 704.5385,67.0576 702.5445,67.0576 C700.5505,67.0576 698.9335,65.4416 698.9335,63.4476 C698.9335,61.4536 700.5505,59.8366 702.5445,59.8366 C704.5385,59.8366 706.1545,61.4536 706.1545,63.4476 Z" id="Stroke-78" stroke="#231F20" stroke-width="0.25"></path>
                <path d="M674.1594,48.0199 C674.1594,50.0139 672.5434,51.6309 670.5494,51.6309 C668.5554,51.6309 666.9384,50.0139 666.9384,48.0199 C666.9384,46.0259 668.5554,44.4099 670.5494,44.4099 C672.5434,44.4099 674.1594,46.0259 674.1594,48.0199" id="Fill-79" fill="#1C75BB"></path>
                <path d="M674.1594,48.0199 C674.1594,50.0139 672.5434,51.6309 670.5494,51.6309 C668.5554,51.6309 666.9384,50.0139 666.9384,48.0199 C666.9384,46.0259 668.5554,44.4099 670.5494,44.4099 C672.5434,44.4099 674.1594,46.0259 674.1594,48.0199 Z" id="Stroke-80" stroke="#231F20" stroke-width="0.25"></path>
                <path d="M659.2414,96.5043 C659.2414,98.4973 657.6254,100.1143 655.6314,100.1143 C653.6374,100.1143 652.0204,98.4973 652.0204,96.5043 C652.0204,94.5103 653.6374,92.8933 655.6314,92.8933 C657.6254,92.8933 659.2414,94.5103 659.2414,96.5043" id="Fill-81" fill="#1C75BB"></path>
                <path d="M659.2414,96.5043 C659.2414,98.4973 657.6254,100.1143 655.6314,100.1143 C653.6374,100.1143 652.0204,98.4973 652.0204,96.5043 C652.0204,94.5103 653.6374,92.8933 655.6314,92.8933 C657.6254,92.8933 659.2414,94.5103 659.2414,96.5043 Z" id="Stroke-82" stroke="#231F20" stroke-width="0.25"></path>
                <path d="M423.5158,126.681 L423.5158,108.911" id="Stroke-83" stroke="#231F20"></path>
                <path d="M474.3381,92.8934 L474.2891,74.4364" id="Stroke-84" stroke="#231F20"></path>
                <path d="M524.5148,64.3197 L524.5148,47.3447" id="Stroke-85" stroke="#231F20"></path>
                <path d="M275.381,90.9047 L275.381,56.2937 C283.309,56.2937 287.273,53.2647 287.273,47.2057 C287.273,41.6627 284.242,38.8907 278.185,38.8907 C272.061,38.8907 269,42.6947 269,50.2997 L268.192,179.3187 L239.475,179.3187 L229.748,54.3597 C229.748,45.8517 230.602,38.8757 232.31,33.4287 C234.017,27.9827 236.934,22.9067 241.06,18.2017 C245.7,12.9807 251.501,8.8567 258.462,5.8267 C265.423,2.7977 272.609,1.2827 280.022,1.2827 C293.427,1.2827 304.69,5.7947 313.811,14.8177 C322.931,23.8417 327.491,35.0237 327.491,48.3657 C327.491,61.3207 323.398,71.8267 315.213,79.8837 C307.735,87.2957 296.457,91.0017 281.375,91.0017 L275.381,90.9047 Z" id="Fill-224" fill="#00A69D"></path>
                <path d="M275.381,90.9047 L275.381,56.2937 C283.309,56.2937 287.273,53.2647 287.273,47.2057 C287.273,41.6627 284.242,38.8907 278.185,38.8907 C272.061,38.8907 269,42.6947 269,50.2997 L268.192,179.3187 L239.475,179.3187 L229.748,54.3597 C229.748,45.8517 230.602,38.8757 232.31,33.4287 C234.017,27.9827 236.934,22.9067 241.06,18.2017 C245.7,12.9807 251.501,8.8567 258.462,5.8267 C265.423,2.7977 272.609,1.2827 280.022,1.2827 C293.427,1.2827 304.69,5.7947 313.811,14.8177 C322.931,23.8417 327.491,35.0237 327.491,48.3657 C327.491,61.3207 323.398,71.8267 315.213,79.8837 C307.735,87.2957 296.457,91.0017 281.375,91.0017 L275.381,90.9047 Z" id="Stroke-225" stroke="#231F20"></path>
                <path d="M234.0558,28.6127 L268.9098,68.1577" id="Stroke-226" stroke="#231F20" stroke-width="0.75"></path>
                <path d="M231.4606,72.0878 L268.9096,68.1578" id="Stroke-227" stroke="#231F20" stroke-width="0.75"></path>
                <path d="M271.7717,41.0204 L234.0557,28.6124" id="Stroke-228" stroke="#231F20" stroke-width="0.75"></path>
                <path d="M286.0993,1.1498 L271.7713,41.0208" id="Stroke-229" stroke="#231F20" stroke-width="0.75"></path>
                <path d="M252.9138,7.8104 L261.7548,21.0844" id="Stroke-230" stroke="#231F20" stroke-width="0.75"></path>
                <path d="M271.7717,41.0204 L261.7547,21.0844" id="Stroke-231" stroke="#231F20" stroke-width="0.75"></path>
                <path d="M280.5261,16.6586 L261.7551,21.0846" id="Stroke-232" stroke="#231F20" stroke-width="0.75"></path>
                <path d="M250.4016,33.9901 L261.7546,21.0851" id="Stroke-233" stroke="#231F20" stroke-width="0.75"></path>
                <path d="M275.3185,56.1605 L312.1695,82.3555" id="Stroke-234" stroke="#231F20" stroke-width="0.75"></path>
                <path d="M275.3185,90.7718 L293.5865,69.1458" id="Stroke-235" stroke="#231F20" stroke-width="0.75"></path>
                <path d="M287.2101,47.0726 L327.2611,43.9686" id="Stroke-236" stroke="#231F20" stroke-width="0.75"></path>
                <path d="M312.1696,82.3553 L307.2356,45.5213" id="Stroke-237" stroke="#231F20" stroke-width="0.75"></path>
                <path d="M293.5866,69.1459 L307.2356,45.5209" id="Stroke-238" stroke="#231F20" stroke-width="0.75"></path>
                <path d="M285.4699,41.3885 L280.5259,16.6585" id="Stroke-239" stroke="#231F20" stroke-width="0.75"></path>
                <path d="M323.799,31.0526 L282.998,29.0236" id="Stroke-240" stroke="#231F20" stroke-width="0.75"></path>
                <path d="M299.3918,5.4764 L303.3988,31.0524" id="Stroke-241" stroke="#231F20" stroke-width="0.75"></path>
                <path d="M297.4973,46.2753 L303.3983,31.0523" id="Stroke-242" stroke="#231F20" stroke-width="0.75"></path>
                <path d="M268.9094,68.1576 L260.5744,45.5206" id="Stroke-243" stroke="#231F20" stroke-width="0.25"></path>
                <path d="M234.0558,28.6127 L260.5748,45.5207" id="Stroke-244" stroke="#231F20" stroke-width="0.25"></path>
                <path d="M271.7717,41.0204 L260.5747,45.5204" id="Stroke-245" stroke="#231F20" stroke-width="0.25"></path>
                <path d="M293.5866,69.1459 L293.7436,84.5269" id="Stroke-246" stroke="#231F20" stroke-width="0.25"></path>
                <path d="M275.3185,90.7718 L293.7435,84.5268" id="Stroke-247" stroke="#231F20" stroke-width="0.25"></path>
                <path d="M312.1696,82.3553 L293.7436,84.5263" id="Stroke-248" stroke="#231F20" stroke-width="0.25"></path>
                <path d="M315.946,44.8461 L315.946,61.8211" id="Stroke-249" stroke="#231F20" stroke-width="0.25"></path>
                <path d="M326.1638,59.9364 L315.9458,61.8204" id="Stroke-250" stroke="#231F20" stroke-width="0.25"></path>
                <path d="M312.1696,82.3553 L315.9456,61.8203" id="Stroke-251" stroke="#231F20" stroke-width="0.25"></path>
                <path d="M297.4973,46.2753 L312.7713,37.0673" id="Stroke-252" stroke="#231F20" stroke-width="0.25"></path>
                <path d="M303.3986,31.0526 L312.7716,37.0666" id="Stroke-253" stroke="#231F20" stroke-width="0.25"></path>
                <path d="M326.4167,37.8881 L312.7717,37.0671" id="Stroke-254" stroke="#231F20" stroke-width="0.25"></path>
                <path d="M293.5866,69.1459 L291.8556,56.1569" id="Stroke-255" stroke="#231F20" stroke-width="0.25"></path>
                <path d="M275.3185,56.1605 L291.8555,56.1565" id="Stroke-256" stroke="#231F20" stroke-width="0.25"></path>
                <path d="M307.2355,45.5209 L291.8555,56.1569" id="Stroke-257" stroke="#231F20" stroke-width="0.25"></path>
                <path d="M234.0558,28.6127 L248.6158,21.0847" id="Stroke-258" stroke="#231F20" stroke-width="0.25"></path>
                <path d="M252.9138,7.8104 L248.6158,21.0844" id="Stroke-259" stroke="#231F20" stroke-width="0.25"></path>
                <path d="M250.4016,33.9901 L248.6156,21.0851" id="Stroke-260" stroke="#231F20" stroke-width="0.25"></path>
                <path d="M261.7546,21.0848 L248.6156,21.0848" id="Stroke-261" stroke="#231F20" stroke-width="0.25"></path>
                <path d="M286.0993,1.1498 L271.1403,9.6858" id="Stroke-262" stroke="#231F20" stroke-width="0.25"></path>
                <path d="M261.7546,21.0848 L271.1406,9.6858" id="Stroke-263" stroke="#231F20" stroke-width="0.25"></path>
                <path d="M280.5261,16.6586 L271.1401,9.6856" id="Stroke-264" stroke="#231F20" stroke-width="0.25"></path>
                <path d="M252.9138,7.8104 L271.1408,9.6854" id="Stroke-265" stroke="#231F20" stroke-width="0.25"></path>
                <path d="M271.7717,41.0204 L271.1407,27.5374" id="Stroke-266" stroke="#231F20" stroke-width="0.25"></path>
                <path d="M261.7546,21.0848 L271.1406,27.5378" id="Stroke-267" stroke="#231F20" stroke-width="0.25"></path>
                <path d="M280.5261,16.6586 L271.1401,27.5376" id="Stroke-268" stroke="#231F20" stroke-width="0.25"></path>
                <path d="M299.3918,5.4764 L290.2938,15.3854" id="Stroke-269" stroke="#231F20" stroke-width="0.25"></path>
                <path d="M303.3986,31.0526 L290.2946,15.3856" id="Stroke-270" stroke="#231F20" stroke-width="0.25"></path>
                <path d="M282.9982,29.0238 L290.2942,15.3858" id="Stroke-271" stroke="#231F20" stroke-width="0.25"></path>
                <path d="M286.0993,1.1498 L290.2943,15.3858" id="Stroke-272" stroke="#231F20" stroke-width="0.25"></path>
                <path d="M303.3986,31.0526 L309.7026,21.0846" id="Stroke-273" stroke="#231F20" stroke-width="0.25"></path>
                <path d="M299.3918,5.4764 L309.7028,21.0844" id="Stroke-274" stroke="#231F20" stroke-width="0.25"></path>
                <path d="M323.799,31.0526 L309.702,21.0846" id="Stroke-275" stroke="#231F20" stroke-width="0.25"></path>
                <path d="M285.4699,41.3885 L293.5869,37.4775" id="Stroke-276" stroke="#231F20" stroke-width="0.25"></path>
                <path d="M297.4973,46.2753 L293.5863,37.4773" id="Stroke-277" stroke="#231F20" stroke-width="0.25"></path>
                <path d="M303.3986,31.0526 L293.5866,37.4776" id="Stroke-278" stroke="#231F20" stroke-width="0.25"></path>
                <path d="M282.9982,29.0238 L293.5862,37.4778" id="Stroke-279" stroke="#231F20" stroke-width="0.25"></path>
                <path d="M271.7717,41.0204 L278.9357,31.0524" id="Stroke-280" stroke="#231F20" stroke-width="0.25"></path>
                <path d="M280.5261,16.6586 L278.9351,31.0526" id="Stroke-281" stroke="#231F20" stroke-width="0.25"></path>
                <path d="M285.4699,41.3885 L278.9349,31.0525" id="Stroke-282" stroke="#231F20" stroke-width="0.25"></path>
                <path d="M275.3185,90.7718 L282.2025,72.0878" id="Stroke-283" stroke="#231F20" stroke-width="0.25"></path>
                <path d="M275.3185,56.1605 L282.2025,72.0875" id="Stroke-284" stroke="#231F20" stroke-width="0.25"></path>
                <path d="M293.5866,69.1459 L282.2026,72.0879" id="Stroke-285" stroke="#231F20" stroke-width="0.25"></path>
                <path d="M307.2355,45.5209 L302.9565,65.8789" id="Stroke-286" stroke="#231F20" stroke-width="0.25"></path>
                <path d="M293.5866,69.1459 L302.9566,65.8789" id="Stroke-287" stroke="#231F20" stroke-width="0.25"></path>
                <path d="M312.1696,82.3553 L302.9566,65.8793" id="Stroke-288" stroke="#231F20" stroke-width="0.25"></path>
                <path d="M231.4606,72.0878 L250.1856,46.9128" id="Stroke-289" stroke="#231F20"></path>
                <path d="M239.4753,179.3187 L252.9133,157.5007" id="Stroke-290" stroke="#231F20"></path>
                <path d="M268.1921,179.3187 L252.9141,157.5007" id="Stroke-291" stroke="#231F20"></path>
                <path d="M268.4733,134.3998 L252.9133,157.5008" id="Stroke-292" stroke="#231F20"></path>
                <path d="M235.9523,134.058 L252.9133,157.5" id="Stroke-293" stroke="#231F20"></path>
                <path d="M251.7194,131.6644 L268.6734,102.4954" id="Stroke-294" stroke="#231F20"></path>
                <path d="M268.4733,134.3998 L251.7193,131.6648" id="Stroke-295" stroke="#231F20"></path>
                <path d="M235.9523,134.058 L251.7193,131.664" id="Stroke-296" stroke="#231F20"></path>
                <path d="M234.0558,105.2767 L251.7198,131.6647" id="Stroke-297" stroke="#231F20"></path>
                <path d="M231.4606,72.0878 L249.5086,87.6498" id="Stroke-298" stroke="#231F20"></path>
                <path d="M234.0558,105.2767 L249.5088,87.6497" id="Stroke-299" stroke="#231F20"></path>
                <path d="M268.6735,102.4955 L249.5085,87.6495" id="Stroke-300" stroke="#231F20"></path>
                <path d="M268.9094,68.1576 L249.5094,87.6496" id="Stroke-301" stroke="#231F20"></path>
                <path d="M250.1852,46.913 L229.7482,50.839" id="Stroke-302" stroke="#231F20" stroke-width="0.25"></path>
                <path d="M231.4606,72.0878 L239.8786,48.8928" id="Stroke-303" stroke="#231F20" stroke-width="0.25"></path>
                <path d="M234.0558,28.6127 L239.8788,48.8927" id="Stroke-304" stroke="#231F20" stroke-width="0.25"></path>
                <path d="M231.4606,72.0878 L250.1856,61.8208" id="Stroke-305" stroke="#231F20" stroke-width="0.25"></path>
                <path d="M250.1852,46.913 L250.1852,61.821" id="Stroke-306" stroke="#231F20" stroke-width="0.25"></path>
                <path d="M268.9094,68.1576 L250.1854,61.8206" id="Stroke-307" stroke="#231F20" stroke-width="0.25"></path>
                <path d="M248.6159,74.1171 L249.5089,87.6491" id="Stroke-308" stroke="#231F20" stroke-width="0.25"></path>
                <path d="M260.5744,45.5209 L250.1854,46.9129" id="Stroke-309" stroke="#231F20" stroke-width="0.25"></path>
                <path d="M268.9094,68.1576 L248.6164,74.1166" id="Stroke-310" stroke="#231F20" stroke-width="0.25"></path>
                <path d="M231.4606,72.0878 L248.6156,74.1168" id="Stroke-311" stroke="#231F20" stroke-width="0.25"></path>
                <path d="M251.7194,131.6644 L249.5094,87.6494" id="Stroke-312" stroke="#231F20" stroke-width="0.25"></path>
                <path d="M268.6735,102.4955 L250.3105,109.6565" id="Stroke-313" stroke="#231F20" stroke-width="0.25"></path>
                <path d="M234.0558,105.2767 L250.3098,109.6567" id="Stroke-314" stroke="#231F20" stroke-width="0.25"></path>
                <path d="M251.7194,131.6644 L264.7414,125.0804" id="Stroke-315" stroke="#231F20" stroke-width="0.25"></path>
                <path d="M268.6735,102.4955 L264.7415,125.0805" id="Stroke-316" stroke="#231F20" stroke-width="0.25"></path>
                <path d="M268.4733,134.3998 L264.7423,125.0808" id="Stroke-317" stroke="#231F20" stroke-width="0.25"></path>
                <path d="M251.7194,131.6644 L251.4824,141.7304" id="Stroke-318" stroke="#231F20" stroke-width="0.25"></path>
                <path d="M252.9138,157.5003 L251.4828,141.7303" id="Stroke-319" stroke="#231F20" stroke-width="0.25"></path>
                <path d="M268.4733,134.3998 L251.4823,141.7308" id="Stroke-320" stroke="#231F20" stroke-width="0.25"></path>
                <path d="M235.9523,134.058 L251.4823,141.731" id="Stroke-321" stroke="#231F20" stroke-width="0.25"></path>
                <path d="M252.9138,157.5003 L252.9138,168.4093" id="Stroke-322" stroke="#231F20" stroke-width="0.25"></path>
                <path d="M239.4753,179.3187 L252.9133,168.4097" id="Stroke-323" stroke="#231F20" stroke-width="0.25"></path>
                <path d="M268.1921,179.3187 L252.9141,168.4097" id="Stroke-324" stroke="#231F20" stroke-width="0.25"></path>
                <path d="M252.9138,157.5003 L260.6938,157.5003" id="Stroke-325" stroke="#231F20" stroke-width="0.25"></path>
                <path d="M268.4733,134.3998 L260.6933,157.5008" id="Stroke-326" stroke="#231F20" stroke-width="0.25"></path>
                <path d="M268.1921,179.3187 L260.6931,157.5007" id="Stroke-327" stroke="#231F20" stroke-width="0.25"></path>
                <path d="M235.9523,134.058 L241.3353,123.738" id="Stroke-328" stroke="#231F20" stroke-width="0.25"></path>
                <path d="M234.0558,105.2767 L241.3358,123.7377" id="Stroke-329" stroke="#231F20" stroke-width="0.25"></path>
                <path d="M251.7194,131.6644 L241.3354,123.7374" id="Stroke-330" stroke="#231F20" stroke-width="0.25"></path>
                <path d="M252.9138,168.4095 L251.7198,179.1855" id="Stroke-331" stroke="#231F20" stroke-width="0.25"></path>
                <path d="M239.4753,179.3187 L244.4333,157.5007" id="Stroke-332" stroke="#231F20" stroke-width="0.25"></path>
                <path d="M252.9138,157.5003 L244.4328,157.5003" id="Stroke-333" stroke="#231F20" stroke-width="0.25"></path>
                <path d="M235.9523,134.058 L244.4323,157.5" id="Stroke-334" stroke="#231F20" stroke-width="0.25"></path>
                <path d="M234.0558,105.2767 L238.6438,87.6497" id="Stroke-335" stroke="#231F20" stroke-width="0.25"></path>
                <path d="M231.4606,72.0878 L238.6436,87.6498" id="Stroke-336" stroke="#231F20" stroke-width="0.25"></path>
                <path d="M249.509,87.6493 L238.644,87.6493" id="Stroke-337" stroke="#231F20" stroke-width="0.25"></path>
                <path d="M268.6735,102.4955 L262.0275,89.0955" id="Stroke-338" stroke="#231F20" stroke-width="0.25"></path>
                <path d="M249.509,87.6493 L262.027,89.0953" id="Stroke-339" stroke="#231F20" stroke-width="0.25"></path>
                <path d="M268.9094,68.1576 L262.0274,89.0946" id="Stroke-340" stroke="#231F20" stroke-width="0.25"></path>
                <path d="M244.53,179.3187 C244.53,182.1107 242.267,184.3737 239.475,184.3737 C236.684,184.3737 234.421,182.1107 234.421,179.3187 C234.421,176.5277 236.684,174.2637 239.475,174.2637 C242.267,174.2637 244.53,176.5277 244.53,179.3187" id="Fill-341" fill="#F6931D"></path>
                <path d="M244.53,179.3187 C244.53,182.1107 242.267,184.3737 239.475,184.3737 C236.684,184.3737 234.421,182.1107 234.421,179.3187 C234.421,176.5277 236.684,174.2637 239.475,174.2637 C242.267,174.2637 244.53,176.5277 244.53,179.3187 Z" id="Stroke-342" stroke="#231F20" stroke-width="0.25"></path>
                <path d="M273.2468,179.3187 C273.2468,182.1107 270.9838,184.3737 268.1918,184.3737 C265.4008,184.3737 263.1378,182.1107 263.1378,179.3187 C263.1378,176.5277 265.4008,174.2637 268.1918,174.2637 C270.9838,174.2637 273.2468,176.5277 273.2468,179.3187" id="Fill-343" fill="#F6931D"></path>
                <path d="M273.2468,179.3187 C273.2468,182.1107 270.9838,184.3737 268.1918,184.3737 C265.4008,184.3737 263.1378,182.1107 263.1378,179.3187 C263.1378,176.5277 265.4008,174.2637 268.1918,174.2637 C270.9838,174.2637 273.2468,176.5277 273.2468,179.3187 Z" id="Stroke-344" stroke="#231F20" stroke-width="0.25"></path>
                <path d="M289.7819,123.5101 L287.6069,138.8821" id="Stroke-345" stroke="#231F20" stroke-width="1.5"></path>
                <path d="M287.468,137.6966 L294.925,152.2596" id="Stroke-346" stroke="#231F20" stroke-width="1.5"></path>
                <path d="M294.7741,151.1898 L292.7001,167.3568" id="Stroke-347" stroke="#231F20" stroke-width="1.5"></path>
                <path d="M292.6452,166.4115 L300.0182,180.7345" id="Stroke-348" stroke="#231F20" stroke-width="1.5"></path>
                <path d="M300.0295,179.6341 L297.7625,195.6561" id="Stroke-349" stroke="#231F20" stroke-width="1.5"></path>
                <path d="M297.8976,194.7015 L305.0806,209.0345" id="Stroke-350" stroke="#231F20" stroke-width="1.5"></path>
                <path d="M302.1476,120.2709 L309.9266,134.6119" id="Stroke-352" stroke="#231F20" stroke-width="1.5"></path>
                <path d="M309.466,133.6488 L307.291,149.0218" id="Stroke-353" stroke="#231F20" stroke-width="1.5"></path>
                <path d="M307.423,148.0863 L314.611,162.4113" id="Stroke-354" stroke="#231F20" stroke-width="1.5"></path>
                <path d="M314.4572,161.5277 L317.2722,177.9507" id="Stroke-355" stroke="#231F20" stroke-width="1.5"></path>
                <path d="M317.09,177.0892 L327.924,188.2102" id="Stroke-356" stroke="#231F20" stroke-width="1.5"></path>
                <path d="M326.6271,187.5404 L343.1021,190.5944" id="Stroke-357" stroke="#231F20" stroke-width="1.5"></path>
                <path d="M311.8361,162.599 L314.4371,177.772" id="Stroke-358" stroke="#231F20" stroke-width="1.5"></path>
                <path d="M315.4743,115.1146 C317.4793,126.3246 310.0173,137.0376 298.8083,139.0426 C287.5983,141.0486 276.8853,133.5866 274.8803,122.3766 C272.8753,111.1666 280.3373,100.4536 291.5463,98.4486 C302.7563,96.4436 313.4693,103.9056 315.4743,115.1146" id="Fill-360" fill="#1C75BB"></path>
                <path d="M315.4743,115.1146 C317.4793,126.3246 310.0173,137.0376 298.8083,139.0426 C287.5983,141.0486 276.8853,133.5866 274.8803,122.3766 C272.8753,111.1666 280.3373,100.4536 291.5463,98.4486 C302.7563,96.4436 313.4693,103.9056 315.4743,115.1146 Z" id="Stroke-361" stroke="#231F20" stroke-width="0.25"></path>
                <path d="M159.8385,96.9359 C158.9995,94.1649 158.5815,91.6179 158.5815,89.2979 C158.5815,86.0759 159.1615,82.9169 160.3215,79.8229 L178.6905,79.8229 C177.4005,72.6689 173.3735,69.0919 166.6055,69.0919 C162.0935,69.0919 158.4195,71.0109 155.5845,74.8439 C152.7475,78.6799 151.3305,83.5939 151.3305,89.5879 C151.3305,95.8399 152.6985,100.8999 155.4395,104.7669 C158.1775,108.6339 161.7715,110.5679 166.2185,110.5679 C169.8275,110.5679 173.3085,108.7639 176.6605,105.1539 L197.2535,129.9039 C187.6485,137.4449 176.9825,141.2149 165.2525,141.2149 C150.9435,141.2149 138.9225,136.4149 129.1905,126.8099 C119.4575,117.2069 114.5925,105.3149 114.5925,91.1349 C114.5925,77.0189 119.5065,65.0969 129.3355,55.3629 C139.1635,45.6319 151.2335,40.7649 165.5425,40.7649 C179.5275,40.7649 191.2745,45.5189 200.7815,55.0249 C210.2885,64.5329 215.0425,76.2459 215.0425,90.1679 C215.0425,91.5869 214.9125,93.8419 214.6555,96.9359 L159.8385,96.9359 Z" id="Fill-1" stroke="#979797" fill="#00A69D"></path>
            </g>
        </g>
    </g>
</svg>