<?xml version="1.0" encoding="UTF-8"?>
<svg width="356px" height="357px" viewBox="0 0 356 357" version="1.1" xmlns="http://www.w3.org/2000/svg" xmlns:xlink="http://www.w3.org/1999/xlink">
    <!-- Generator: Sketch 52.1 (67048) - http://www.bohemiancoding.com/sketch -->
    <title>uib-logo</title>
    <desc>Created with Sketch.</desc>
    <g id="Symbols" stroke="none" stroke-width="1" fill="none" fill-rule="evenodd">
        <g id="uib-logo" fill="black">
            <g>
                <path d="M31.9364,140.6412 C28.7234,140.0852 22.7424,139.1592 21.0374,139.7692 C20.3514,140.0262 19.8284,140.8982 19.4994,142.1762 L19.1714,143.4472 C18.7554,143.7002 18.0984,143.4772 17.9474,143.1322 C18.3874,141.1772 18.7744,139.2722 19.1224,137.2492 C19.4994,135.0742 19.6904,133.6632 19.9064,131.7822 C20.2394,131.4102 20.9004,131.5792 21.1694,131.8902 L21.0574,133.1562 C20.9394,134.4692 21.2334,135.5322 21.8554,135.9632 C23.4384,136.9842 29.3994,138.0132 32.3044,138.5132 L38.1624,139.5292 C42.6684,140.3052 47.3174,141.8582 49.9234,145.2992 C51.9754,147.9522 52.6564,152.0202 51.9994,155.8552 C51.3784,159.4342 50.0844,162.8912 47.4694,165.0542 C44.7114,167.4082 40.7044,168.0472 34.5324,166.9842 L22.3014,164.8632 C16.9084,163.9322 16.0124,163.8842 15.2334,166.8472 L14.9054,168.1262 C14.6404,168.4002 13.7784,168.1432 13.6754,167.8102 C14.2284,165.2332 14.5864,163.4772 14.9444,161.4052 C15.3114,159.2792 15.5564,157.5572 15.8894,155.0002 C16.1004,154.7212 17.0014,154.7682 17.1534,155.1152 L17.0454,156.3742 C16.7804,159.4282 17.6434,159.6832 23.0364,160.6162 L34.2334,162.5512 C42.5804,163.9982 48.5224,162.3552 49.8934,154.4222 C51.1964,146.9062 45.7794,143.0362 37.8974,141.6742 L31.9364,140.6412 Z" id="Fill-7"></path>
                <path d="M64.672,98.7872 C66.053,99.5562 71.515,102.6082 72.788,103.1372 C73.014,103.3822 73.087,103.7882 72.808,104.2932 C71.716,104.4082 69.364,104.8422 62.585,106.2992 L44.506,110.1782 C42.395,110.6212 36.884,111.6402 35.331,112.0392 L35.282,112.1302 C35.728,112.6252 36.761,113.2572 38.138,114.0282 L48.15,119.6242 C50.31,120.8322 56.301,124.1162 58.118,124.1072 C58.779,124.1162 59.563,123.3522 60.298,122.2532 L61.233,120.9112 C61.757,120.8372 62.281,121.1892 62.326,121.6382 C61.082,123.6582 60.141,125.2332 59.191,126.9382 C58.113,128.8682 57.467,130.1322 56.658,131.7872 C56.252,131.9862 55.581,131.6672 55.458,131.2392 L56.017,129.9242 C56.467,128.7902 56.604,127.8982 56.227,127.3912 C54.929,125.8212 49.301,122.7372 47.097,121.5052 L33.822,114.0872 C32.539,113.3702 31.55,112.8802 29.953,113.2522 C28.953,113.5392 28.013,114.4572 27.264,115.4852 L26.734,116.2152 C26.304,116.3332 25.613,115.9512 25.637,115.4812 C26.852,113.6262 28.214,111.1972 28.674,110.3692 C29.086,109.6342 29.473,108.8292 29.717,108.1802 C32.573,108.5692 41.66,106.5372 44.207,105.9732 L51.706,104.3152 C57.006,103.1202 60.836,102.3072 64.246,101.3812 L64.3,101.2902 C64.177,100.9772 63.443,100.5652 62.473,100.0292 L52.646,94.5362 C50.487,93.3302 44.491,90.0412 42.625,90.1422 C42.056,90.1862 41.371,90.7692 40.117,92.4782 L39.588,93.2082 C39.132,93.3742 38.422,92.9162 38.491,92.4732 C39.764,90.4112 40.68,88.8762 41.66,87.1322 C42.762,85.1572 43.384,83.9352 44.163,82.3242 C44.599,82.0842 45.24,82.4462 45.363,82.8732 L45.094,83.5682 C44.501,85.1652 44.359,86.2892 44.623,86.6792 C45.838,88.3832 51.584,91.4712 53.7,92.6552 L64.672,98.7872 Z" id="Fill-9"></path>
                <path d="M64.5105,72.0841 C60.5035,68.2121 59.7835,67.6661 57.4375,69.7181 L56.4475,70.5901 C56.0805,70.6711 55.4675,69.9391 55.5755,69.6031 C57.4815,67.7831 58.7595,66.5321 60.2975,64.9421 C61.7575,63.4291 62.9575,62.1041 64.7065,60.1401 C65.0445,60.0191 65.7935,60.6021 65.7295,60.9771 L64.8925,61.9941 C62.9225,64.4111 63.4965,65.1091 67.5085,68.9811 L80.9835,81.9861 C84.9945,85.8581 85.5975,86.2971 88.0225,84.3151 L89.0505,83.4801 C89.4185,83.3971 90.0255,84.1321 89.9225,84.4671 C88.0175,86.2891 86.7385,87.5381 85.2795,89.0521 C83.7405,90.6441 82.5365,91.9661 80.7875,93.9331 C80.4545,94.0481 79.7785,93.5411 79.7685,93.0931 L80.5665,92.0401 C82.4575,89.5511 82.0025,88.9611 77.9905,85.0891 L64.5105,72.0841 Z" id="Fill-11"></path>
                <path d="M83.1826,51.5356 C80.5866,49.6866 79.3326,49.1726 77.2756,50.1546 L76.4186,50.5726 C75.9336,50.5026 75.5896,49.8506 75.8056,49.4026 C77.1526,48.6796 78.6026,47.8256 80.5186,46.6176 C82.4776,45.3856 84.0056,44.3596 85.8176,43.0906 C86.2396,43.0736 86.7486,43.6866 86.6116,44.1496 L85.9946,44.6586 C84.4466,45.9466 84.2606,46.4386 84.4366,46.8216 C84.8086,47.2106 87.0816,49.1356 90.5886,51.6506 C95.8886,55.5226 101.1686,59.3506 106.5866,63.0226 C106.1166,59.2136 105.0976,53.4536 104.6326,50.4486 C104.0156,46.6106 102.9376,40.2596 102.4916,37.8696 C102.2566,36.7116 101.9926,36.1936 101.7966,35.8826 C101.6006,35.5696 100.9296,35.4966 99.2586,36.2996 L98.4066,36.7136 C97.9216,36.6446 97.5936,35.9196 97.7896,35.5446 C99.0926,34.8496 100.8116,33.8286 102.5016,32.7626 C103.9706,31.8376 105.3236,30.9236 106.7336,29.9076 C107.1546,29.8896 107.6056,30.6026 107.5276,30.9646 L106.2446,31.8956 C105.2346,32.6576 104.9016,33.6106 104.9116,34.9106 C104.9856,37.7886 105.5236,42.4886 106.3806,48.2886 L107.4296,55.2776 C108.2326,60.4946 109.3886,66.9726 110.1236,69.8116 C110.0456,69.9846 109.8936,70.1396 109.7126,70.2526 C109.4966,70.3946 109.2416,70.4896 108.9676,70.5386 C107.2926,68.9786 105.1176,67.3006 103.1876,65.9096 L83.1826,51.5356 Z" id="Fill-13"></path>
                <path d="M127.1354,31.1465 C125.6464,25.8835 125.3234,25.1515 122.2414,25.6405 L121.4044,25.7705 C121.0424,25.6535 120.8854,24.7125 121.1454,24.4775 C123.3544,23.9605 125.0884,23.5245 127.1604,22.9395 L136.6774,20.2475 C139.9194,19.3315 142.9034,18.4885 143.4664,18.1635 C144.0154,18.9395 145.3474,22.4965 146.1804,24.6685 C146.0674,25.0285 145.2834,25.3595 144.9454,25.1265 C143.5154,22.9615 142.5554,21.3205 139.7384,21.4035 C138.6074,21.4525 136.9714,21.8595 134.7474,22.4915 L131.0984,23.5225 C129.5794,23.9485 129.6094,24.0485 130.1524,25.9735 L133.0134,36.0985 C133.4154,37.5165 133.5664,37.4725 135.0904,37.0415 L138.0244,36.2165 C140.1454,35.6115 141.6884,35.0675 142.2364,34.6925 C142.7904,34.3185 143.0594,33.9165 142.9524,32.5765 L142.7704,30.3875 C142.9374,30.0125 143.7994,29.7705 144.1034,30.0665 C144.4464,31.2805 144.7984,33.3115 145.3474,35.2365 C145.8614,37.0585 146.6114,38.9255 146.9244,40.0395 C146.8164,40.4505 145.9594,40.6935 145.6214,40.4625 L144.6024,38.6165 C144.1474,37.7615 143.5744,37.1025 142.4914,37.1345 C141.7274,37.1345 140.4984,37.4285 138.5194,37.9875 L135.5854,38.8175 C134.0714,39.2435 133.9344,39.3385 134.3014,40.6545 L136.3204,47.7905 C137.0784,50.4755 137.7154,52.1535 138.7734,52.7875 C139.5474,53.2225 140.7724,53.4755 145.2254,52.2195 C149.1194,51.1165 150.5344,50.4975 151.4904,49.6255 C152.2584,48.8615 153.1254,46.7055 153.6934,43.7005 C153.9784,43.3485 154.7324,43.2965 155.0654,43.6955 C155.2124,45.5675 155.0464,49.8235 154.7714,51.3765 C150.1864,52.5615 145.6704,53.7865 141.1644,55.0625 L136.6094,56.3485 C134.4344,56.9655 132.7244,57.5015 129.7704,58.4475 C129.4184,58.3815 129.0904,57.6025 129.3104,57.2105 L130.9364,56.5865 C133.7484,55.5155 133.7874,54.6855 132.2884,49.3735 L127.1354,31.1465 Z" id="Fill-15"></path>
                <path d="M172.8857,30.4849 C172.8757,31.4329 172.8757,32.0129 173.0327,32.2219 C173.1887,32.3829 173.9727,32.4929 176.6577,32.5079 C178.5477,32.5229 180.5467,32.3269 182.0847,31.1759 C183.5107,30.0839 184.7347,28.2489 184.7597,24.6709 C184.7887,20.5169 182.2317,16.5539 176.3927,16.5149 C173.1307,16.4929 172.9737,16.7009 172.9637,18.1779 L172.8857,30.4849 Z M168.6147,22.9369 C168.6537,17.9379 168.4967,17.0439 166.3417,16.7649 L164.6667,16.5439 C164.2937,16.2779 164.3037,15.4349 164.7247,15.2289 C167.6737,14.9839 171.3037,14.8499 176.4617,14.8869 C179.7237,14.9089 182.8197,15.1899 185.2297,16.5199 C187.7517,17.8519 189.5737,20.2329 189.5497,23.9169 C189.5207,28.9129 185.5527,31.6219 182.9127,32.6549 C182.6527,32.9709 182.9127,33.4979 183.1727,33.9209 C187.3357,40.7349 190.0937,44.9599 193.6547,47.9839 C194.5467,48.7779 195.8487,49.3659 197.2697,49.4809 C197.5337,49.5879 197.5827,50.0069 197.3187,50.2179 C196.8437,50.3699 196.0057,50.4699 195.0067,50.4649 C190.5347,50.4359 187.8597,49.1039 184.1517,43.7669 C182.8047,41.8099 180.6647,38.1659 179.0577,35.7879 C178.2737,34.6269 177.4317,34.0949 175.3347,34.0799 C172.9637,34.0659 172.8557,34.1149 172.8557,35.2219 L172.8077,41.8499 C172.7727,47.3699 172.8757,48.0039 175.9227,48.4469 L177.0247,48.6109 C177.3387,48.8759 177.2257,49.7699 176.9117,49.9239 C174.5417,49.8039 172.7587,49.7399 170.6517,49.7259 C168.4377,49.7129 166.5467,49.7509 164.0737,49.8409 C163.7607,49.6789 163.6577,48.8909 163.9807,48.5229 L165.2927,48.3739 C168.3497,48.0289 168.4577,47.3449 168.4967,41.8219 L168.6147,22.9369 Z" id="Fill-17"></path>
                <path d="M215.3149,56.2039 C211.0929,54.8739 208.8489,52.7289 208.0749,51.8759 C207.8159,50.5829 208.2909,46.8159 208.9319,44.4259 C209.2899,44.1539 210.0839,44.2909 210.1909,44.6559 C210.1279,47.4529 210.6319,53.0169 216.4509,54.8539 C220.6639,56.1839 223.5929,54.0729 224.5479,51.0659 C225.2389,48.8589 225.5629,46.2579 222.6529,42.7409 L218.8609,38.1269 C216.8769,35.6799 214.8739,31.9039 216.1769,27.7889 C217.6759,23.0229 222.6139,20.3309 229.1279,22.3929 C230.6909,22.8829 232.3999,23.7549 233.5959,24.5169 C234.1779,24.9249 234.8489,25.2439 235.2509,25.3739 C235.3199,26.7209 234.8879,29.6719 234.2219,31.7759 C233.9289,32.0159 233.0759,31.9109 232.9239,31.5309 C233.0319,28.9179 232.7039,25.2289 227.8889,23.7109 C222.9709,22.1559 220.8889,25.0869 220.1589,27.3919 C219.2429,30.3009 220.9819,33.1699 222.4759,34.9109 L225.6939,38.6849 C228.2419,41.6389 230.4269,45.5309 228.9229,50.2939 C227.1839,55.8149 221.8299,58.2609 215.3149,56.2039" id="Fill-19"></path>
                <path d="M257.0486,44.727 C259.9586,39.973 260.3406,39.158 257.8276,37.311 L256.7596,36.535 C256.6026,36.189 257.1856,35.435 257.5386,35.469 C259.7286,36.931 261.2216,37.908 263.1076,39.065 C264.9006,40.164 266.4536,41.053 268.7556,42.339 C268.9416,42.638 268.5306,43.5 268.1576,43.515 L266.9826,42.917 C264.1956,41.521 263.6316,42.227 260.7226,46.983 L250.9406,62.951 C248.0306,67.705 247.7326,68.388 250.1906,70.326 L251.2296,71.146 C251.3866,71.489 250.8036,72.243 250.4506,72.212 C248.2606,70.749 246.7626,69.77 244.9696,68.67 C243.0886,67.517 241.5306,66.627 239.2386,65.342 C239.0476,65.043 239.3996,64.271 239.8366,64.166 L241.0356,64.719 C243.8716,66.027 244.3516,65.454 247.2616,60.698 L257.0486,44.727 Z" id="Fill-21"></path>
                <path d="M279.4536,87.2296 C275.3976,90.9816 274.8886,91.5946 276.7686,94.0136 L277.7926,95.3586 C277.8516,95.7306 277.0876,96.2946 276.7596,96.1716 C274.8006,93.8966 273.6246,92.5496 272.1936,91.0036 C270.7646,89.4586 269.4756,88.1406 267.1196,85.7406 C267.0166,85.4026 267.5996,84.7196 268.0846,84.8466 L269.4806,86.1306 C271.7136,88.1556 272.4686,87.8126 276.5246,84.0626 L293.7966,68.1016 C294.9916,66.9946 295.0306,66.9576 293.9626,65.7996 L291.9986,63.6756 C290.4646,62.0156 288.4176,59.9606 286.6396,59.8166 C284.9296,59.6766 283.7246,60.0736 282.3676,60.5436 C281.8486,60.4486 281.5406,59.7276 281.7116,59.2876 C284.0186,58.3006 287.0266,56.5926 288.8196,55.4346 C289.0056,55.4806 289.5046,55.9466 289.4996,56.1696 C288.4766,57.5436 289.6916,58.7826 291.3366,60.5606 L305.7966,76.2066 C307.7266,78.2926 308.1286,78.5676 309.6666,78.2186 C309.9216,78.3416 310.2736,78.8026 310.1956,79.0226 C308.2166,80.0606 304.8366,82.6846 303.7836,83.8696 C303.3286,84.0016 302.7256,83.3456 302.7796,82.9386 C303.6416,81.9276 304.8166,80.3356 304.7046,79.3656 C304.5426,77.8686 303.4896,76.1156 301.5306,73.9896 L298.9926,71.2486 C297.9206,70.0886 297.9206,70.1636 296.6466,71.3396 L279.4536,87.2296 Z" id="Fill-23"></path>
                <path d="M307.031,111.212 C305.757,111.351 305.738,111.42 306.365,112.75 L309.142,118.598 C309.794,119.977 310.029,119.977 311.106,118.944 L317.636,112.701 C318.601,111.778 319.678,110.742 320.114,110.186 L320.071,110.092 C319.762,110.061 318.396,110.127 316.72,110.284 L307.031,111.212 Z M307.266,122.63 C308.158,121.8 308.207,121.543 307.531,120.115 L304.122,112.941 C303.563,111.753 303.279,111.533 302.128,111.677 L296.343,112.38 C293.874,112.684 292.434,112.958 291.905,113.21 C291.337,113.477 291.17,113.85 291.611,115.038 L292.209,116.674 C292.135,117.117 291.371,117.482 290.984,117.141 C290.485,115.863 289.789,114.386 288.78,112.13 C288.031,110.563 287.125,108.898 286.473,107.636 C286.527,107.259 287.237,106.806 287.614,106.977 L288.496,108.479 C289.133,109.573 290.152,110.372 292.179,110.222 C294.776,110.044 298.499,109.906 304.763,109.378 L319.894,108.136 C321.922,107.989 322.96,107.844 323.651,107.34 C324.528,108.324 325.767,108.726 326.634,108.956 C326.771,109.24 326.83,109.62 326.546,109.87 C324.744,111.484 322.921,113.282 321.168,114.983 L305.15,130.563 C301.717,133.879 301.3,134.834 302.035,136.992 L302.5,138.346 C302.417,138.789 301.614,139.057 301.31,138.91 C300.477,136.913 299.742,135.229 298.724,133.09 C297.646,130.808 296.686,129.046 295.99,127.69 C295.99,127.225 296.735,126.81 297.127,127.034 L297.93,128.341 C298.499,129.297 299.096,129.828 299.571,129.603 C300.095,129.35 300.84,128.711 301.8,127.785 L307.266,122.63 Z" id="Fill-25"></path>
                <path d="M304.0581,158.4536 C303.4161,154.0826 304.3561,151.1236 304.7781,150.0486 C305.8361,149.2546 309.4321,148.0356 311.8611,147.5696 C312.2621,147.7726 312.4781,148.5376 312.2041,148.7946 C309.6621,149.9656 304.8761,152.8576 305.7721,158.8896 C306.4191,163.2636 309.5981,164.9716 312.7231,164.5106 C315.0061,164.1706 317.4941,163.3276 319.3751,159.1636 L321.8631,153.7466 C323.1951,150.8866 325.7181,147.4326 329.9901,146.8006 C334.9321,146.0656 339.5071,149.3256 340.5061,156.0876 C340.7511,157.7016 340.7121,159.6246 340.5501,161.0276 C340.4431,161.7406 340.4431,162.4806 340.5061,162.8996 C339.3261,163.5506 336.4801,164.4516 334.2951,164.7756 C333.9571,164.6136 333.6781,163.8006 333.9521,163.4966 C336.3431,162.4506 339.5171,160.5456 338.7821,155.5516 C338.0271,150.4496 334.4811,149.8576 332.0861,150.2096 C329.0691,150.6576 327.2511,153.4776 326.3401,155.5806 L324.3561,160.1266 C322.8081,163.7096 320.2711,167.3836 315.3241,168.1136 C309.6021,168.9606 305.0621,165.2236 304.0581,158.4536" id="Fill-27"></path>
                <path d="M42.5023,223.2659 C41.1163,223.7759 41.0373,223.8639 42.0663,226.3419 C44.1233,231.2989 46.6113,233.4739 51.2503,231.7599 C56.0853,229.9669 56.5753,225.6859 55.1893,221.9339 C54.7923,220.8559 54.4193,220.1509 54.0573,219.7779 C53.7243,219.3379 53.4013,219.2399 52.5193,219.5629 L42.5023,223.2659 Z M31.0503,227.5029 C29.2763,228.1649 26.7983,229.1879 26.0583,230.5249 C25.2693,231.8869 25.5733,233.4599 26.1173,234.9339 C27.7433,239.3229 30.9613,241.9529 35.8893,240.1259 C39.7883,238.6859 43.5993,235.0319 40.6943,227.1849 C39.7103,224.5199 39.3433,224.4319 38.3533,224.8039 L31.0503,227.5029 Z M47.5623,216.7899 C51.2163,215.4439 52.0783,214.8999 51.4563,212.6069 L51.0203,210.9719 C51.1673,210.4669 51.9313,210.2459 52.2743,210.5699 C53.5083,213.1359 54.8953,216.4379 56.5903,221.0269 C57.7403,224.1379 58.5883,227.1849 58.2793,229.8299 C58.0253,232.3279 56.6533,234.6889 53.4983,235.8639 C49.9433,237.1779 47.3513,235.7769 44.8723,233.3269 C44.3833,233.5029 44.3783,233.9639 44.4813,234.5419 C44.9753,237.3829 43.9673,242.2469 38.6913,244.2019 C32.9653,246.3169 27.5473,243.4959 24.2603,234.6099 C23.7323,233.1849 22.9823,230.7119 22.2183,228.6399 C21.4153,226.4699 20.6953,224.8239 19.9703,223.0209 C20.0093,222.6689 20.7633,222.2769 21.1693,222.4669 L21.6453,223.2959 C23.0553,225.7449 23.6333,225.6469 28.8163,223.7259 L47.5623,216.7899 Z" id="Fill-29"></path>
                <path d="M63.4131,253.3712 C67.7821,250.0842 68.3511,249.5212 66.7831,246.8222 L66.3621,246.0872 C66.3421,245.7052 67.1651,245.2202 67.4791,245.3772 C68.7521,247.2532 69.7811,248.7172 71.0791,250.4372 L77.0211,258.3482 C79.0381,261.0422 80.9001,263.5252 81.4091,263.9322 C80.8801,264.7152 78.0391,267.2432 76.3151,268.8052 C75.9381,268.8302 75.3451,268.2232 75.4431,267.8212 C76.9421,265.7052 78.1381,264.2162 77.0401,261.6202 C76.5901,260.5812 75.6201,259.2002 74.2291,257.3492 L71.9551,254.3212 C71.0061,253.0582 70.9221,253.1262 69.3201,254.3212 L60.9101,260.6402 C59.7291,261.5222 59.8281,261.6492 60.7781,262.9132 L62.6051,265.3522 C63.9321,267.1212 64.9951,268.3602 65.5391,268.7422 C66.0921,269.1142 66.5621,269.2222 67.7721,268.6442 L69.7521,267.6842 C70.1631,267.7032 70.6971,268.4192 70.5311,268.8102 C69.5211,269.5652 67.7531,270.6332 66.1561,271.8282 C64.6371,272.9692 63.1681,274.3362 62.2421,275.0312 C61.8211,275.0802 61.2871,274.3652 61.3761,273.9642 L62.7371,272.3572 C63.3641,271.6222 63.7761,270.8582 63.3541,269.8592 C63.0801,269.1432 62.3651,268.0952 61.1301,266.4592 L59.3041,264.0152 C58.3531,262.7562 58.2201,262.6582 57.1241,263.4812 L51.1871,267.9342 C48.9631,269.6042 47.6261,270.8092 47.4151,272.0192 C47.2881,272.9052 47.4891,274.1302 50.2711,277.8382 C52.7051,281.0762 53.7831,282.1682 54.9441,282.7512 C55.9331,283.1922 58.2601,283.2222 61.2681,282.6732 C61.6991,282.8102 62.0121,283.4862 61.7671,283.9462 C60.0721,284.7542 56.0411,286.1362 54.4931,286.4402 C51.7361,282.5952 48.9631,278.8132 46.1511,275.0712 L43.3151,271.2842 C41.9541,269.4762 40.8361,268.0762 38.8871,265.6562 C38.8281,265.3132 39.4361,264.7152 39.8771,264.7842 L41.0471,266.0772 C43.0611,268.3162 43.8491,268.0562 48.2671,264.7352 L63.4131,253.3712 Z" id="Fill-31"></path>
                <path d="M88.0515,291.2451 C87.4935,292.0141 87.1505,292.4791 87.1505,292.7441 C87.1895,292.9591 87.7575,293.5131 89.9275,295.1051 C91.4555,296.2221 93.1895,297.2301 95.1055,297.2011 C96.9035,297.1421 98.9655,296.3731 101.0815,293.4881 C103.5405,290.1281 103.7845,285.4261 99.0725,281.9771 C96.4475,280.0571 96.1925,280.1261 95.3205,281.3111 L88.0515,291.2451 Z M89.0115,282.6291 C91.9655,278.5971 92.3675,277.7841 90.7805,276.2951 L89.5505,275.1291 C89.4035,274.6981 89.9035,274.0271 90.3685,274.1011 C92.9005,275.6341 95.9185,277.6471 100.0825,280.6941 C102.7125,282.6141 105.0635,284.6661 106.2345,287.1601 C107.4985,289.7071 107.5855,292.7051 105.4115,295.6731 C102.4625,299.7091 97.6615,299.5861 94.9145,298.8861 C94.5175,298.9791 94.4195,299.5621 94.3805,300.0521 C93.7725,308.0171 93.5325,313.0571 94.6495,317.5931 C94.8995,318.7541 95.6245,319.9981 96.7075,320.9291 C96.8585,321.1641 96.6535,321.5361 96.3155,321.5551 C95.8395,321.3991 95.0955,320.9881 94.2925,320.3951 C90.6815,317.7541 89.2965,315.1101 89.4185,308.6151 C89.4675,306.2331 89.8685,302.0311 89.9525,299.1611 C90.0015,297.7601 89.6295,296.8391 87.9345,295.5951 C86.0235,294.1981 85.9065,294.1741 85.2545,295.0711 L81.3405,300.4151 C78.0735,304.8721 77.7845,305.4501 79.9985,307.5861 L80.8025,308.3691 C80.8995,308.7711 80.2825,309.4281 79.9395,309.3681 C78.0885,307.8841 76.6775,306.7821 74.9825,305.5431 C73.2005,304.2351 71.6375,303.1581 69.5805,301.7861 C69.4185,301.4721 69.8005,300.7671 70.2705,300.6591 L71.4265,301.3061 C74.1055,302.8151 74.5955,302.3251 77.8535,297.8671 L89.0115,282.6291 Z" id="Fill-33"></path>
                <path d="M142.3104,333.0374 C141.6534,335.0404 141.5664,336.3384 142.3494,336.9854 C142.4474,337.1864 142.3494,337.4854 142.0994,337.5684 C141.5024,337.3674 140.5374,337.2744 139.5084,337.2154 C136.6284,337.0494 132.8274,336.4664 130.1284,335.5844 C124.1814,333.6344 119.2784,330.1964 116.7014,325.0334 C114.6844,321.0514 114.3794,316.5784 115.8204,312.1804 C117.2114,307.9334 120.0224,304.0884 124.2064,301.8104 C128.7024,299.4054 134.4244,298.6804 141.9674,301.1494 C144.8184,302.0844 147.2874,303.5054 148.0704,303.9804 C148.9524,304.4904 150.3924,305.3524 151.0244,305.4504 C150.4804,307.0954 149.9324,309.7994 149.3984,312.9444 C149.1184,313.2964 148.1984,313.0524 148.0024,312.6504 C148.3694,306.7924 145.1764,303.8634 140.0764,302.1924 C130.3784,299.0134 123.8684,304.5194 121.4144,312.0184 C118.2644,321.6194 120.7384,330.7894 130.7894,334.0754 C133.8854,335.0954 135.9524,335.0554 136.7754,334.3844 C137.1424,334.1144 137.6864,333.2974 138.2104,331.6954 L138.8724,329.7014 C140.2434,325.5034 140.1944,325.1514 137.2064,323.7894 L135.0904,322.8094 C134.7574,322.4864 135.1004,321.5994 135.5014,321.5654 C136.9174,322.1384 139.6504,323.0884 142.5994,324.0544 C144.5494,324.6954 146.2634,325.2004 147.9484,325.6414 C148.2324,325.9644 148.0364,326.7284 147.5904,326.9144 L146.7584,326.7484 C144.5734,326.3074 144.0644,327.6934 143.2314,330.2454 L142.3104,333.0374 Z" id="Fill-35"></path>
                <path d="M168.9036,314.8845 C168.9186,309.4175 168.8106,308.6245 165.7056,308.2515 L164.8716,308.1445 C164.5536,307.9335 164.6566,306.9835 164.9796,306.8315 C167.2376,306.9395 169.0256,306.9985 171.1816,306.9985 L181.0756,307.0175 C184.4406,307.0275 187.5506,307.0275 188.1786,306.8755 C188.4916,307.7715 188.7956,311.5585 189.0066,313.8705 C188.7906,314.1885 187.9526,314.2965 187.6886,313.9785 C186.9046,311.4995 186.4346,309.6625 183.7016,308.9715 C182.5936,308.7025 180.9096,308.6485 178.5976,308.6435 L174.8056,308.6345 C173.2286,308.6345 173.2286,308.7415 173.2286,310.7405 L173.2046,321.2615 C173.1996,322.7315 173.3606,322.7365 174.9436,322.7365 L177.9896,322.7415 C180.2036,322.7505 181.8306,322.6435 182.4566,322.4375 C183.0936,322.2265 183.4616,321.9085 183.7256,320.5955 L184.1516,318.4405 C184.4166,318.1265 185.3126,318.1265 185.5236,318.4945 C185.5136,319.7625 185.3026,321.8105 185.3026,323.8095 C185.2986,325.7045 185.5036,327.6985 185.5036,328.8595 C185.2886,329.2265 184.3966,329.2265 184.1326,328.9035 L183.6616,326.8555 C183.4556,325.9055 183.0936,325.1215 182.0406,324.8575 C181.3006,324.6415 180.0376,324.5875 177.9896,324.5825 L174.9336,324.5735 C173.3566,324.5735 173.1996,324.6225 173.1996,325.9935 L173.1796,333.4095 C173.1746,336.2015 173.3316,337.9845 174.1696,338.8855 C174.8006,339.5125 175.9036,340.0955 180.5366,340.1105 C184.5826,340.1105 186.1116,339.9095 187.2726,339.3265 C188.2176,338.8075 189.6376,336.9705 191.0096,334.2325 C191.3816,333.9725 192.1166,334.1345 192.3276,334.6045 C191.9596,336.4465 190.6276,340.4925 189.9516,341.9135 C185.2096,341.7955 180.5366,341.7375 175.8496,341.7265 L171.1126,341.7175 C168.8546,341.7175 167.0666,341.7615 163.9606,341.8645 C163.6476,341.7025 163.5396,340.8605 163.8526,340.5515 L165.5916,340.3945 C168.5906,340.1395 168.8596,339.3465 168.8686,333.8205 L168.9036,314.8845 Z" id="Fill-37"></path>
                <path d="M240.8499,306.2928 C240.0069,304.0298 237.6319,297.9508 237.8029,295.8688 C237.8569,295.3938 238.6949,294.6348 240.1789,293.8018 L240.8359,293.4488 C241.0219,293.0378 240.7619,292.3468 240.2769,292.2448 C238.6359,292.9738 237.3769,293.4978 235.2509,294.2918 C233.3799,294.9878 231.6849,295.5608 229.3829,296.3098 C229.0399,296.6038 229.2949,297.4168 229.7449,297.5828 L230.6179,297.3678 C232.6849,296.8778 233.5809,296.8778 234.0409,297.2108 C235.5259,298.3378 237.9649,304.7298 238.8319,307.0468 L242.7649,317.5978 C243.1469,318.6318 243.4409,319.4208 243.3329,319.7438 L243.2409,319.7778 C240.0419,318.2738 236.5979,316.4128 231.7729,313.8848 L224.9939,310.2998 C222.6819,309.0798 214.4479,304.7348 212.5229,302.5898 C211.9209,302.9318 211.0929,303.2948 210.3089,303.5838 C209.4229,303.9218 206.8119,304.8918 204.6849,305.5138 C204.3719,305.8618 204.6459,306.6008 205.0479,306.7828 L205.9199,306.5718 C207.1589,306.2778 208.4669,306.1848 209.4229,306.6158 C210.8819,307.3608 211.3079,308.3798 211.8279,309.7608 L217.1369,324.0048 C218.0189,326.3758 220.3069,332.3618 220.2819,334.3988 C220.2329,335.0258 219.5569,335.6238 218.4789,336.1918 L217.2009,336.8338 C217.0199,337.2398 217.3239,337.9168 217.7649,338.0338 C219.4489,337.2898 220.7619,336.7408 222.8289,335.9758 C224.6559,335.2908 226.3999,334.7028 228.6579,333.9728 C228.9129,333.5958 228.7369,332.9888 228.2959,332.6998 L226.7089,333.1258 C225.4449,333.4838 224.3479,333.5568 223.8429,333.1258 C222.4569,331.9598 220.0169,325.5678 219.1599,323.2508 L215.1539,312.5038 C214.5999,311.0238 214.2279,309.8728 214.2029,309.2118 L214.3059,309.1728 C215.7459,309.8688 220.5999,312.6608 222.5009,313.6988 L238.7879,322.4478 C244.8959,325.7298 246.9679,326.9238 247.8689,327.5418 C248.4129,327.3358 248.6139,326.9728 248.6039,326.6498 C247.9869,325.4158 245.7969,319.5518 245.2439,318.0778 L240.8499,306.2928 Z" id="Fill-39"></path>
                <path d="M282.1672,305.1366 C278.7732,307.9676 275.7552,308.7126 274.6192,308.9076 C273.3892,308.4236 270.4752,305.9886 268.8042,304.1666 C268.7752,303.7056 269.3092,303.1236 269.6772,303.2306 C271.9982,304.7836 276.9652,307.3606 281.6482,303.4466 C285.0322,300.6156 284.8322,297.0056 282.8092,294.5856 C281.3242,292.8126 279.3062,291.1376 274.7762,291.7056 L268.8482,292.4006 C265.7192,292.7636 261.4572,292.4106 258.6852,289.1046 C255.4862,285.2696 255.8732,279.6606 261.1242,275.2766 C262.3732,274.2286 264.0292,273.2586 265.3172,272.6606 C265.9732,272.3866 266.6102,271.9946 266.9332,271.7296 C268.0992,272.3866 270.3522,274.3456 271.7722,276.0456 C271.8122,276.4226 271.2692,277.0836 270.8722,277.0106 C268.7262,275.5116 265.4392,273.7966 261.5652,277.0396 C257.6072,280.3406 258.9492,283.6726 260.5072,285.5336 C262.4562,287.8746 265.8162,287.9436 268.0842,287.6306 L272.9982,286.9436 C276.8572,286.3956 281.3152,286.6496 284.5232,290.4806 C288.2312,294.9186 287.4082,300.7526 282.1672,305.1366" id="Fill-41"></path>
                <path d="M287.9426,259.2588 C283.3916,256.0258 282.6086,255.5948 280.5906,257.9758 L279.7476,258.9848 C279.3846,259.1168 278.6796,258.4848 278.7386,258.1368 C280.3446,256.0548 281.4226,254.6248 282.7016,252.8228 C283.9256,251.1078 284.9196,249.6238 286.3596,247.4198 C286.6686,247.2528 287.5066,247.7178 287.4966,248.0958 L286.8106,249.2268 C285.2286,251.9118 285.9006,252.5188 290.4356,255.7468 L305.6986,266.6068 C310.2446,269.8398 310.9006,270.1818 312.9976,267.8608 L313.8986,266.8808 C314.2516,266.7538 314.9566,267.3808 314.9076,267.7328 C313.2916,269.8148 312.2136,271.2398 310.9936,272.9548 C309.7156,274.7578 308.7166,276.2458 307.2756,278.4508 C306.9676,278.6168 306.2176,278.2158 306.1496,277.7748 L306.7816,276.6088 C308.2806,273.8658 307.7466,273.3518 303.2006,270.1228 L287.9426,259.2588 Z" id="Fill-43"></path>
                <path d="M331.1699,237.0891 C329.6219,241.2181 327.3539,243.3491 326.4679,244.0841 C325.1549,244.2651 321.4229,243.5941 319.0709,242.8251 C318.8169,242.4471 318.9979,241.6741 319.3649,241.5861 C322.1519,241.7911 327.7409,241.5861 329.8819,235.8641 C331.4349,231.7301 329.4849,228.6981 326.5309,227.5861 C324.3609,226.7731 321.7849,226.3131 318.1209,229.0361 L313.3109,232.5731 C310.7639,234.4241 306.8749,236.2321 302.8379,234.7131 C298.1649,232.9551 295.7359,227.8901 298.1359,221.4881 C298.7139,219.9641 299.6739,218.2991 300.4969,217.1531 C300.9329,216.5851 301.2899,215.9281 301.4419,215.5311 C302.7889,215.5361 305.7129,216.1291 307.7809,216.8981 C308.0009,217.2121 307.8539,218.0541 307.4719,218.1911 C304.8659,217.9461 301.1629,218.0741 299.3899,222.8051 C297.5779,227.6261 300.3889,229.8641 302.6519,230.7111 C305.5129,231.7891 308.4669,230.1971 310.2839,228.8011 L314.2219,225.7841 C317.3129,223.4031 321.3149,221.4141 325.9929,223.1731 C331.4149,225.2051 333.5749,230.6821 331.1699,237.0891" id="Fill-45"></path>
                <path d="M177.8132,350.7892 C82.6142,350.7892 5.4312,273.6112 5.4312,178.4122 C5.4312,83.2152 82.6142,6.0472 177.8132,6.0472 C273.0072,6.0472 350.1752,83.2152 350.1752,178.4122 C350.1752,273.6112 273.0072,350.7892 177.8132,350.7892 M177.8132,0.6832 C79.6512,0.6832 0.0822,80.2522 0.0822,178.4122 C0.0822,276.5692 79.6512,356.1382 177.8132,356.1382 C275.9712,356.1382 355.5392,276.5692 355.5392,178.4122 C355.5392,80.2522 275.9712,0.6832 177.8132,0.6832" id="Fill-47"></path>
                <g id="Group" transform="translate(95.000000, 66.000000)">
                    <path d="M124.6843,198.6128 C121.1473,201.3118 118.7863,205.3628 117.2783,208.7078 C120.5403,211.0688 128.1863,214.5128 141.0443,216.7118 C146.6683,213.5818 151.0573,210.7508 156.0923,206.8328 C151.5073,205.6708 147.0643,203.2028 144.2773,201.6098 C138.6053,198.3728 131.5713,193.3418 124.6843,198.6128" id="Fill-49"></path>
                    <path d="M41.6871,175.0075 C37.3371,173.8125 34.9961,173.8565 28.5351,175.9585 C17.3281,179.6025 0.0661,198.9115 0.0661,198.9115 C5.2491,203.8685 10.9011,208.3455 16.9211,212.3135 C21.7211,206.0535 34.6631,191.5985 46.5511,191.5985 C53.0611,191.5985 56.4211,194.3365 61.8441,197.6475 C62.2751,196.9715 62.7651,196.2955 63.2881,195.6005 C53.5411,190.7755 41.6871,175.0075 41.6871,175.0075" id="Fill-51"></path>
                    <path d="M79.512,191.9216 C74.241,192.6126 70.387,197.1186 67.829,201.5266 C77.866,208.3166 86.781,216.3396 99.85,220.2246 C110.029,223.2566 113.932,224.4026 124.317,224.5736 C128.907,222.8646 133.335,220.8466 137.65,218.6326 C131.248,217.8586 122.813,214.7286 115.574,211.3636 C103.817,205.8966 90.254,190.5116 79.512,191.9216" id="Fill-53"></path>
                    <path d="M48.8679,198.0154 C33.9479,198.0154 28.0449,210.4914 23.1819,216.0754 C40.7569,226.2094 61.0649,232.1124 82.8129,232.1124 C94.2459,232.1124 105.2569,230.4034 115.7399,227.4204 C109.0349,227.0234 100.8879,225.3034 93.5409,222.4134 C77.1509,215.9474 59.5609,198.0154 48.8679,198.0154" id="Fill-55"></path>
                    <path d="M155.3284,187.8512 C145.4144,175.2032 137.5864,172.8622 133.7654,173.8222 C129.9454,174.7772 130.8024,177.6672 126.2124,183.0902 C122.0344,188.0272 112.4634,193.4842 110.6014,194.8262 C112.1444,196.4622 114.2804,198.9012 114.8194,199.4842 C119.5604,195.0902 125.6144,190.9172 131.5714,190.9172 C142.2014,190.9172 145.1884,199.3282 159.2374,204.3582 C162.2344,201.9192 165.1544,199.3762 167.8774,196.6192 C167.8774,196.6192 161.1864,195.3262 155.3284,187.8512" id="Fill-57"></path>
                    <path d="M131.209,91.3737 C128.951,89.5807 126.174,87.8717 124.616,85.3147 C123.989,84.6457 123.43,83.8327 123.744,82.8427 C124.077,82.4827 124.44,82.0547 124.944,82.3047 C126.164,82.4957 126.389,83.7397 127.711,83.6667 C128.172,83.9187 127.966,84.6117 128.388,84.9327 C129.642,85.8407 130.974,87.2867 132.1,88.2777 C132.423,88.9467 132.889,89.4977 132.806,90.3447 C132.365,90.7637 132.012,91.6947 131.209,91.3737 Z M128.28,93.7867 C127.614,96.5707 128.27,99.5437 127.746,102.3627 C127.858,104.9817 126.869,107.1677 126.977,109.7477 C126.83,113.7277 125.576,117.2987 125.429,121.2777 C124.743,125.1727 123.724,128.9927 123.048,132.8767 C122.005,137.4177 120.628,141.8267 118.855,146.0877 C118.743,146.1767 118.556,146.1767 118.473,146.0197 C119.032,141.8017 119.737,137.6437 120.408,133.4507 C121.589,128.3017 122.294,122.9727 123.234,117.7537 C123.763,113.7857 123.562,109.5447 124.469,105.7577 C125.164,100.9177 125.39,95.9487 126.198,91.1827 C126.938,90.7517 127.614,91.5647 128.368,91.6117 C128.245,92.3757 128.446,92.9737 128.28,93.7867 Z M117.459,141.4047 C116.534,145.8627 115.985,150.4377 114.594,154.7187 C114.457,156.2077 114.192,157.6187 113.438,158.8527 C113.276,158.8627 113.134,158.8237 113.007,158.7207 C112.806,155.4237 114.275,152.7687 114.52,149.6887 C114.824,147.0967 114.858,144.4427 115.392,141.9587 C115.666,138.4667 115.789,135.1937 116.142,131.7457 C116.494,130.6187 116.646,129.4487 116.769,128.1947 C116.49,125.5057 117.376,123.2517 117.18,120.5977 C117.552,117.9327 118.082,115.2187 117.959,112.4587 C118.223,107.5967 119.149,102.9727 119.149,97.9667 C119.639,96.5587 118.939,94.6457 119.541,93.2597 C119.345,91.9347 119.453,90.5357 119.614,89.2357 C120.138,88.0037 118.816,85.5427 120.854,85.4467 C121.589,85.8777 122.441,86.4267 122.999,87.0487 C123.073,88.6017 122.598,90.1297 122.72,91.8027 C122.72,94.4087 122.078,96.9407 122.308,99.5807 C122.235,103.3427 122.078,107.0947 121.628,110.7517 C121.03,115.1017 120.717,119.5437 119.923,123.7717 C119.58,129.8547 118.15,135.5077 117.459,141.4047 Z M46.767,139.4607 C46.223,136.3697 46.228,132.9117 45.615,129.9727 C44.822,124.0017 44.744,117.5967 44.342,111.5867 C43.989,109.8797 43.774,107.9567 43.685,106.0687 C43.147,102.1717 43.323,98.1117 42.461,94.3127 C42.118,91.9687 42.892,90.0097 43.715,88.0997 C44.264,87.6217 45.067,86.6047 45.694,87.3107 C46.046,91.2417 45.782,95.1597 46.046,99.1617 C46.443,100.9057 46.458,102.4957 46.507,104.3467 C46.889,110.7517 47.075,116.8797 47.869,123.0807 C49.034,131.6577 49.867,140.3817 50.661,149.1247 C51.019,152.2887 51.602,155.3507 52.082,158.4907 C52.003,158.6377 51.709,158.8387 51.513,158.6477 C49.211,152.5787 47.761,146.1367 46.767,139.4607 Z M44.949,144.4517 C43.015,137.9177 41.188,131.2997 40.183,124.3097 C39.013,118.4687 38.836,112.1747 37.778,106.2937 C38.082,103.5587 37.612,100.8107 37.533,98.0407 C38.15,97.1907 39.12,96.7007 39.894,96.0317 C40.09,96.0197 40.242,96.1027 40.364,96.2847 C40.267,100.8347 41.379,105.0177 41.178,109.5317 C41.579,112.8187 42.02,116.4017 42.431,119.7007 C42.309,123.1147 43.049,126.4947 43.157,130.0217 C43.538,133.8127 44.401,137.4177 44.714,141.2877 C44.852,142.3407 45.224,143.3207 45.106,144.4517 L44.949,144.4517 Z M36.377,97.3467 C35.809,97.5507 35.495,97.0727 35.07,96.8917 C34.447,96.2227 33.997,95.3637 34.276,94.3717 C34.58,93.1177 36.132,93.1047 36.593,91.8757 C38.346,91.0627 39.277,89.1377 40.717,87.9207 C41.442,88.0497 42.216,87.1907 42.725,87.9447 C41.129,91.3957 39.174,94.4917 36.377,97.3467 Z M34.884,77.7757 C35.114,76.4387 35.447,75.0277 36.789,74.2637 C37.504,73.8577 38.312,73.2377 39.12,73.4627 L39.963,75.0407 C40.178,77.1557 37.916,77.6807 36.701,78.8167 C36.279,78.8637 36.264,79.4737 35.839,79.1747 C35.221,78.8997 35.055,78.2907 34.884,77.7757 Z M45.479,79.6767 C46.82,77.5137 49.015,76.0817 49.779,73.7157 C49.965,73.5467 50.21,73.0097 50.494,73.4287 C50.24,77.5627 48.525,81.2167 46.086,84.4797 C44.915,86.0687 43.029,86.3897 41.423,87.1907 C40.894,87.2517 40.428,86.7617 40.227,86.3187 C39.983,85.8287 39.737,85.2317 39.909,84.6577 C41.912,83.2717 44.023,81.6237 45.479,79.6767 Z M43.612,80.4037 C43.015,80.6807 42.388,81.2287 41.775,81.0257 C41.623,79.8557 41.227,78.0867 42.461,77.4057 C43.093,76.9657 44.039,75.6867 44.538,76.9997 C44.758,78.2437 44.803,79.6177 43.612,80.4037 Z M49.475,61.5997 C49.73,61.1827 50.484,61.0017 50.612,61.6357 C50.592,63.2377 49.946,64.6217 49.456,65.9977 C48.079,68.1237 47.697,70.7157 45.713,72.5567 C44.666,73.2007 43.803,74.6587 42.392,74.4787 C41.746,73.3547 40.84,72.2457 40.923,70.9187 C44.068,68.2907 47.614,65.1477 49.475,61.5997 Z M41.055,64.4547 C41.604,62.6527 41.237,60.5017 42.402,58.9467 C43.289,59.1867 42.716,60.2747 43.039,61.0257 C43.538,62.6407 43.563,64.5627 43.842,66.1887 C43.338,67.0367 42.358,67.6807 41.379,67.5507 C40.781,66.7377 41.041,65.4347 41.055,64.4547 Z M41.898,8.4477 C41.697,7.0857 42.006,5.7457 42.079,4.4217 C42.295,4.2527 42.441,3.9197 42.706,3.9067 C44.136,3.5247 43.803,5.1977 44.469,5.7827 C45.194,7.1687 46.301,8.6137 47.898,8.9837 C50.749,9.1167 54.07,8.5307 56.676,9.5107 C58.89,9.9397 60.683,11.6607 62.407,13.3217 C62.858,13.3457 63.073,12.9277 63.602,13.0567 C64.126,13.7627 65.571,14.0607 65.189,15.1727 C66.825,15.3517 67.335,17.2037 68.54,18.1127 C67.394,19.1287 70.93,20.6567 68.226,20.4657 C66.189,19.3537 64.381,21.0017 62.368,21.0997 C61.873,20.9677 61.271,21.0147 60.84,20.6097 L61.016,20.1917 C62.241,19.3197 63.587,18.6727 65.214,18.5527 C65.591,18.3157 65.336,17.5267 66.066,17.8007 C66.336,18.0997 66.62,18.6507 67.11,18.5647 C67.261,18.4937 67.178,18.3027 67.178,18.1487 C66.257,17.9087 66.037,16.8087 65.042,16.6177 C64.288,16.6427 63.446,16.5097 63.044,15.7337 C62.701,14.4547 61.281,13.8457 60.242,13.3927 C59.742,13.0697 59.164,12.6647 58.522,12.9147 C58.229,13.1767 57.896,13.5367 58.175,13.9437 C59.135,15.4357 60.35,16.7967 61.491,18.1707 L61.491,18.3157 C60.085,18.2437 59.204,16.4517 57.763,16.6057 C57.577,16.8087 57.436,17.1447 57.631,17.4067 C58.194,18.3027 59.4,19.4027 58.596,20.4187 C57.616,20.5247 57.126,19.4397 56.617,18.8047 C56.5,17.4437 55.123,17.0737 54.085,16.6547 C53.012,16.2607 51.856,16.8207 50.71,16.5937 C49.71,16.2357 48.564,17.1197 47.82,16.1897 C44.45,15.1487 42.148,11.8397 41.898,8.4477 Z M67.506,8.0877 C68.608,8.1237 69.705,8.1367 70.568,8.8637 C71.15,9.3777 71.332,10.4657 72.282,10.5857 C72.635,10.7277 72.645,11.1467 72.645,11.3747 C72.204,11.8767 71.591,11.4457 71.058,11.5047 C69.921,11.5407 68.403,10.0957 67.766,11.8277 C67.447,12.3657 67.247,13.2847 66.527,13.3457 C65.856,12.6867 65.415,11.8637 65.581,10.9437 C66.276,9.9397 66.502,8.7927 67.506,8.0877 Z M74.271,14.1687 C74.486,14.6957 74.653,15.4477 74.486,15.9497 C73.369,15.8297 72.057,16.0577 71.557,17.3237 C71.126,18.0287 70.959,18.8877 70.254,19.4497 C69.607,19.0917 69.206,18.3027 68.917,17.6337 C69.529,16.3927 69.911,15.1367 70.587,13.9777 C70.734,13.7867 70.92,13.5837 71.136,13.5467 C72.213,13.6917 73.144,14.4677 74.271,14.1687 Z M78.238,6.2727 C78.988,6.1777 79.6,6.3067 80.11,6.7867 C80.805,7.4437 80.766,8.4697 81.471,9.1387 C81.486,9.5817 81.53,10.1177 81.089,10.3577 C79.311,10.6447 79.022,8.3277 77.278,8.7687 C76.661,9.4987 75.544,10.1077 75.27,11.0977 C75.011,11.3377 74.761,11.6487 74.413,11.4207 C74.016,11.0267 73.658,10.6197 73.541,10.0957 C74.388,8.1367 75.882,6.2607 78.238,6.2727 Z M78.086,14.5287 C77.905,15.0307 77.548,15.5307 77.063,15.8537 C76.573,15.9027 76.294,15.5307 76.098,15.1607 C75.78,14.7907 75.956,14.2517 75.897,13.7987 C76.593,12.7827 76.892,11.4577 77.979,10.8607 C79.228,10.8137 79.875,12.3537 81.197,12.1267 C81.628,12.4497 81.53,13.0227 81.589,13.5467 C80.443,14.5757 78.792,12.8657 78.086,14.5287 Z M81.844,20.6447 C81.197,20.6197 81.481,19.9387 81.167,19.6057 C80.932,19.3067 80.688,18.6727 80.198,18.9127 C79.688,19.4977 79.561,20.3337 79.772,21.0877 L79.551,21.2787 C78.758,20.3217 78.238,19.1627 78.312,17.9447 C78.405,17.1077 79.14,16.3687 79.845,15.9617 C80.531,15.9857 80.962,16.5837 81.579,16.7847 C82.368,17.8617 82.225,19.4497 81.844,20.6447 Z M82.813,30.6077 C83.656,30.1077 84.836,30.9917 85.478,30.0127 L85.703,30.0837 C85.924,31.2177 86.634,32.5787 85.968,33.7527 C85.939,34.4207 86.409,34.9697 86.277,35.5547 C85.566,35.4347 85.693,34.6457 85.273,34.2517 C85.032,33.8457 84.88,33.4877 84.459,33.3087 C83.499,33.4537 83.935,35.6627 82.716,34.5507 C82.392,33.7747 83.245,32.4247 82.157,32.0427 C81.471,32.8067 81.388,33.7397 80.888,34.5387 C80.516,34.3257 80.051,33.8937 80.002,33.3677 C81.653,32.7607 79.737,30.8477 81.545,30.2747 C82.02,30.0007 82.475,30.3237 82.813,30.6077 Z M85.459,10.8607 C86.654,10.3697 87.007,12.0677 87.673,12.7237 C87.917,13.3687 89.024,13.7037 88.525,14.5997 C88.27,14.9457 88.182,15.7467 87.565,15.4597 C86.639,14.9227 86.139,13.4877 84.979,14.0607 C84.459,14.4927 84.18,15.1857 83.504,15.3147 C82.877,14.8037 83.23,13.8457 83.093,13.0937 C83.872,12.2707 84.455,11.6487 85.459,10.8607 Z M83.274,8.4357 C84.087,6.5967 86.32,6.2977 88.182,6.2847 C89.074,7.0857 89.367,8.0997 90.082,8.9467 C90.289,9.5817 89.848,10.2507 89.598,10.7527 C89.074,10.8007 88.78,9.8927 88.201,9.6527 C87.241,9.2237 86.169,8.8757 85.037,9.1747 C84.435,9.3077 84.009,10.0007 83.392,9.7967 C83.117,9.4617 83.176,8.8537 83.274,8.4357 Z M94.05,11.5167 C94.403,11.5167 94.741,11.4947 94.937,11.8277 C94.922,13.6197 97.322,15.4837 95.245,17.0127 C93.805,16.9167 94.138,15.3147 93.58,14.4207 C92.483,13.5467 91.777,15.2317 90.641,15.1487 C90.151,15.2317 89.788,14.7537 90.043,14.3007 C90.289,12.3177 92.551,12.0897 94.05,11.5167 Z M92.243,8.5427 C92.277,7.2157 93.761,7.3947 94.579,7.0367 C96.289,6.8697 97.959,7.2027 98.88,8.7337 C99.164,9.3317 99.438,9.8437 99.575,10.4897 C98.762,11.0757 98.949,12.2827 98.057,12.8437 C96.676,12.4007 97.082,10.5977 96.029,9.7257 C94.589,8.7467 93.276,10.2987 91.963,10.7157 C91.449,10.0467 92.106,9.2707 92.243,8.5427 Z M91.053,19.9877 C90.514,19.5227 90.082,20.2497 89.632,20.4527 C88.971,21.1227 88.76,21.8027 88.172,22.5077 C87.878,22.6277 87.712,22.2927 87.594,22.1017 C87.589,20.7037 88.05,19.4737 88.618,18.3277 C89.196,17.5387 90.376,17.5507 90.881,16.5467 C91.444,16.1897 92.752,15.7337 92.825,16.9047 C92.855,18.0407 93.345,19.0207 93.869,19.9047 C93.707,20.9677 93.085,21.8637 92.659,22.8317 C92.443,23.0597 92.106,23.2967 91.802,23.1897 C92.027,22.0057 91.317,21.0877 91.053,19.9877 Z M85.953,21.9477 C85.449,21.3867 85.527,20.4407 85.468,19.6397 C85.233,19.4617 85.16,19.4277 84.822,19.4737 C84.19,20.0227 83.72,20.8017 83.857,21.6607 C83.67,21.8147 83.519,21.8277 83.367,21.6117 C83.019,20.2497 83.318,18.7217 83.964,17.4897 C84.332,17.0617 84.88,16.5467 85.459,16.7257 C86.149,17.1197 86.517,17.8617 87.065,18.4597 C86.761,19.6397 86.918,21.0877 85.953,21.9477 Z M102.427,12.9977 C103.602,11.6857 105.38,11.8157 106.688,10.8607 C110.112,9.8927 113.932,11.1837 116.827,9.0447 L120.501,6.5107 C121.873,6.4637 122.519,5.0897 123.592,4.5167 C123.969,4.3967 124.361,4.6117 124.405,4.9577 C124.038,6.6797 123.176,8.2077 123.039,9.9517 C122.696,12.6287 119.796,13.0107 118.204,14.5407 C117.058,15.3057 115.574,15.3057 114.304,15.7587 C111.341,15.7707 108.73,17.2867 107.217,19.6897 C107.697,20.4777 106.835,20.9927 106.277,21.3127 C105.605,21.7447 104.542,21.6237 104.15,22.4007 C104.459,22.7237 105.179,22.6277 105.081,23.2847 C103.528,24.5747 100.923,23.5247 99.331,24.7077 C99.105,24.8987 98.733,25.0287 98.704,25.3637 C99.13,25.6997 100.065,25.2927 100.007,26.0447 C98.87,27.1447 97.112,26.7867 95.804,27.4677 C95.706,27.7667 96.049,27.9087 96.235,27.9457 C96.842,27.9577 97.361,27.5267 97.969,27.7417 C97.954,28.3147 97.234,28.2567 96.901,28.5647 C95.598,29.1747 93.791,28.7337 92.688,29.7137 C93.237,30.2257 94.217,29.9757 94.609,30.5727 C93.158,31.4817 91.297,31.4697 89.896,32.4617 C88.77,33.2137 90.332,35.7827 88.329,35.0897 C87.144,34.2047 86.639,32.8897 86.409,31.5287 C86.771,30.9917 86.164,29.6527 87.154,29.8097 C88.114,30.3087 87.996,31.3747 88.809,31.8397 C89.455,31.8987 89.769,31.1707 90.132,30.7767 C89.221,29.2237 91.537,29.1877 92.15,28.1487 C91.954,26.8577 93.438,27.0367 94.109,26.5717 C95.427,26.1897 96.823,25.9127 98.057,25.3887 C98.047,25.1607 97.788,25.2097 97.665,25.0897 C97.45,25.2097 97.175,25.1847 96.95,25.1847 C96.793,25.0777 96.754,24.9697 96.789,24.7787 C98.214,22.8777 100.727,23.3337 102.715,22.6277 C102.583,22.1017 101.829,22.0897 102.225,21.4337 C103.553,20.2867 106.041,20.8597 106.619,18.7927 C106.649,18.3737 107.232,17.8257 106.663,17.5387 C105.728,18.0287 104.954,18.9597 104.063,19.5227 C103.21,20.4527 102.172,20.9677 101.079,21.3127 C101.182,20.7037 101.545,20.3947 101.986,19.9167 C103.725,18.2787 104.719,16.2017 105.424,14.1347 C105.287,13.7157 104.797,13.9187 104.542,13.9657 C102.955,15.5307 101.094,16.5717 99.389,17.8377 C98.968,17.8497 98.596,18.1247 98.174,17.9577 C97.812,17.0837 99.007,16.7847 99.34,16.1407 C100.482,15.2687 101.319,14.0267 102.427,12.9977 Z M119.962,27.8377 C119.86,28.3987 119.394,29.1037 119.938,29.6177 C120.565,30.1297 121.407,30.3697 121.652,31.2417 C121.863,31.7197 121.765,32.2217 121.206,32.3877 C119.492,32.4837 118.032,33.1307 116.945,34.5997 C116.95,34.8617 116.925,35.1727 117.229,35.3147 C118.405,35.3887 118.405,33.7987 119.492,33.6197 C120.291,33.7037 121.143,32.9147 121.804,33.6197 C121.569,34.5387 122.828,34.9577 122.857,35.8657 C122.446,37.3947 123.117,39.3067 122.245,40.6567 C120.349,40.7157 118.728,38.4597 116.798,40.0347 C115.544,39.8437 114.467,39.2577 113.066,39.4267 C112.101,38.6847 111.762,37.4067 111.944,36.1897 C112.297,35.3047 113.33,35.5797 113.844,34.9227 C114.412,34.8617 115.103,35.3047 115.583,34.7907 C115.368,33.9657 114.134,34.3477 113.487,34.2887 C112.919,34.5387 112.331,34.9697 111.684,34.8367 C111.018,34.4337 111.116,33.6077 111.209,32.9857 C112.086,30.9187 114.476,30.6197 116.426,30.1787 C116.543,30.0587 116.725,29.9047 116.646,29.7137 C114.442,28.4227 112.37,30.1077 110.66,31.2297 C110.401,31.3497 110.126,31.1217 110.112,30.8717 C110.494,29.4147 111.165,27.7547 112.816,27.2647 C112.924,27.0247 113.3,26.9047 113.173,26.6057 C112.595,26.1997 112.081,26.7497 111.518,26.7967 C110.773,27.5017 109.847,28.1487 108.917,28.5897 C108.99,27.3697 110.176,26.3897 110.675,25.2317 C110.587,25.0897 110.587,24.9327 110.391,24.8277 C108.745,25.6747 107.657,27.1787 106.09,28.1707 C105.64,28.3397 105.071,28.2787 104.729,27.9917 C104.444,27.7667 104.513,27.3597 104.616,27.0857 C105.836,25.7947 106.923,24.1687 107.521,22.5207 C108.53,19.6897 112.037,20.1077 113.903,18.0877 C114.824,18.3617 116.024,17.7547 116.46,18.7337 C116.093,19.1867 115.574,19.2827 115.054,19.4857 C113.83,20.4287 111.978,20.8717 111.537,22.6277 C112.321,23.2137 112.654,21.8757 113.296,21.6237 C113.732,21.3127 114.256,20.8477 114.868,21.0877 C115.652,21.9717 116.612,19.7847 117.111,21.4457 C116.798,22.2467 115.818,22.5327 115.152,23.0107 C114.417,23.6787 113.722,24.6467 113.413,25.6377 C113.654,26.1277 114.104,25.6627 114.442,25.6877 C115.475,24.8277 116.46,23.5487 117.827,23.5837 C119.477,24.3597 120.06,26.1277 119.962,27.8377 Z M122.529,46.2607 C122.284,46.6887 121.971,46.5097 121.628,46.4387 C120.917,45.4007 119.57,44.8737 119.311,43.6317 C119.1,43.1427 118.503,43.3577 118.199,43.4417 C118.13,43.6317 117.871,43.7497 118.032,43.9777 C119.561,45.7457 119.825,48.0527 121.353,49.8307 C121.27,51.0047 120.344,51.8267 119.844,52.6037 C119.693,52.6747 119.507,52.6867 119.355,52.6867 C118.532,51.9937 118.542,50.9427 117.905,50.1537 C117.925,49.4367 117.562,48.8387 117.209,48.2437 C117.562,46.2237 115.896,45.1357 115.133,43.6077 C114.124,42.8067 112.806,42.8067 111.89,41.6827 C111.836,41.2787 111.826,40.8597 112.159,40.5367 C113.447,39.2237 115.201,40.9087 116.661,40.1787 C117.317,40.5857 118.101,39.9877 118.826,40.2747 C119.835,40.8847 120.775,41.7197 121.98,41.7687 C122.793,42.3417 123.21,43.3577 122.931,44.3967 C122.798,45.0067 122.475,45.5787 122.529,46.2607 Z M124.469,65.6997 C123.861,65.9497 123.058,65.7087 122.524,65.3397 C120.442,64.4207 121.329,62.1137 120.932,60.4287 C120.815,59.1037 120.579,57.5137 121.305,56.4387 C121.647,56.3437 121.883,56.7617 122.039,56.9407 C123.073,59.7477 124.596,62.3637 124.469,65.6997 Z M112.967,70.1667 C113.075,69.8917 113.457,69.9877 113.604,70.0587 C114.701,70.8967 115.152,72.1377 116.014,73.1297 C117.915,74.5627 119.649,76.7137 121.941,77.3597 C122.657,78.3267 123.827,78.1357 124.679,78.7927 C124.513,79.7137 124.008,80.6317 123.073,80.9307 C120.305,81.0507 118.659,79.0547 116.783,77.1667 C114.682,75.2187 113.801,72.7107 112.967,70.1667 Z M111.238,119.2577 C108.153,119.8427 105.267,118.4927 103.22,116.1987 C102.269,114.6697 101.309,113.1537 101.06,111.3007 C101.246,111.0257 101.584,110.8717 101.858,111.0377 C103.45,112.5077 105.243,113.8567 107.188,114.5627 L107.481,114.1807 C107.834,114.3587 108.001,114.9567 108.451,114.7167 C108.451,114.4917 108.897,114.3957 108.623,114.2167 C106.208,112.2087 104.699,109.8187 103.974,107.0367 C103.837,106.5097 104.444,106.4967 104.797,106.6297 C107.344,108.1827 109.862,109.9747 112.238,112.0177 C113.154,113.3547 114.334,114.8487 113.585,116.6537 C113.399,117.8707 112.517,118.9947 111.238,119.2577 Z M116.925,169.9717 C116.597,170.2467 116.235,170.6777 115.769,170.4277 C114.339,169.7077 113.154,170.8447 111.762,170.8447 C111.273,169.7227 110.891,168.4927 110.999,167.1997 C111.851,166.2697 112.85,165.5937 113.658,164.6917 C113.688,164.4277 113.604,164.1237 113.3,164.0947 C112.272,163.8597 111.091,166.0537 110.356,164.4917 C109.745,163.2617 109.137,162.0177 108.868,160.5867 C109.793,159.8817 110.695,160.7977 111.537,161.0767 L112.987,161.4587 C115.632,161.9787 115.637,164.7897 116.827,166.5337 C116.862,167.6697 118.336,169.0667 116.925,169.9717 Z M112.135,173.4497 C111.86,173.2737 111.968,172.8037 112.037,172.5687 C112.977,171.1087 114.761,172.2647 116.102,171.7447 L116.337,171.8727 C116.612,173.4997 114.897,174.5377 114.564,176.0317 C114.304,176.4137 114.173,176.7957 114.114,177.2507 C113.305,178.2657 112.615,179.2687 111.537,180.0237 L111.043,180.0337 C111.317,177.8387 113.154,175.9967 112.135,173.4497 Z M64.974,174.5277 C66.003,174.6357 67.217,174.6357 67.746,175.6937 C67.629,176.9037 67.002,177.8687 67.197,179.1517 C67.433,180.4747 67.354,181.9237 68.104,182.9967 L68.128,183.4867 C67.173,183.4037 66.345,182.5217 65.571,181.7767 C64.126,180.3467 62.593,178.8037 62.691,176.7517 C63.039,175.7227 64.112,175.0767 64.974,174.5277 Z M55.045,173.4997 C56.054,173.0927 57.234,173.0587 58.263,173.4007 C58.116,174.6207 57.724,175.7717 57.812,177.0947 C58.003,178.6027 58.704,180.1807 60.271,180.7777 L60.271,180.8567 C59.145,181.1107 58.249,180.2387 57.249,179.9257 C55.936,179.0927 55.736,177.6087 55.128,176.3797 C55.069,175.4337 54.05,174.3217 55.045,173.4997 Z M52.532,168.5417 C52.659,166.5237 52.796,164.5157 54.148,162.9577 C54.188,161.8997 55.368,161.8117 55.99,161.2287 C57.009,161.2437 58.243,160.3717 59.066,161.2137 C59.086,161.9337 60.08,162.3167 59.762,163.1297 C59.233,164.3197 58.577,165.2057 57.499,166.0047 C56.97,166.0927 56.157,165.4707 55.917,166.2697 C56.147,167.6407 57.979,166.7497 58.351,167.9047 C58.386,169.0907 58.89,170.4037 58.386,171.5147 C57.283,171.6227 55.736,171.6667 54.658,172.2647 C54.129,172.5877 53.61,173.0197 52.963,172.8527 C51.832,171.8627 52.229,169.9137 52.532,168.5417 Z M53.899,125.6527 L55.559,125.3287 C55.75,125.3977 55.902,125.4707 56.054,125.6527 C56.5,130.0807 56.637,134.7437 57.268,139.3087 C57.44,142.6007 57.861,145.5047 58.194,148.7677 C58.488,150.9177 58.332,153.3087 59.257,155.2087 C60.115,157.0507 58.748,158.4217 58.106,159.9117 C56.441,159.7737 57.969,157.7657 56.999,156.9527 C55.569,151.0847 53.844,145.3627 53.502,139.0437 C53.11,136.1397 52.87,133.1517 52.738,130.1537 C52.209,128.6507 52.61,127.0137 52.184,125.4217 C52.777,124.9177 53.286,125.6617 53.899,125.6527 Z M55.883,114.0357 L56.132,113.5827 C57.543,112.5077 58.86,111.1087 59.928,109.8677 C60.154,109.7837 60.345,109.8917 60.497,110.0707 C59.86,112.7107 59.257,115.3047 57.616,117.5137 C57.548,117.8247 57.666,118.0867 57.939,118.1457 C58.959,116.8667 59.899,115.3977 61.276,114.3717 C62.118,113.4037 62.608,112.1747 63.769,111.5647 C64.366,112.3877 63.749,113.3547 63.74,114.2167 C63.475,118.1697 61.506,121.9097 57.803,123.5457 C56.544,123.5457 55.78,124.6917 54.442,124.2177 C53.409,123.9767 52.287,123.1297 51.88,122.1937 C51.513,118.9467 53.713,116.3057 55.883,114.0357 Z M53.178,78.5177 C53.325,78.4817 53.404,78.6017 53.482,78.6727 C53.277,84.6337 53.521,90.2367 53.933,96.3307 C54.325,101.6607 54.491,107.3477 54.765,112.5667 C54.604,113.5587 53.521,114.2047 53.286,115.1597 C52.699,115.8167 52.189,116.6667 51.445,116.9157 C50.67,115.3047 51.033,113.2467 50.636,111.4787 C50.333,102.7227 49.152,93.6657 49.328,84.5157 C49.676,83.3677 50.514,82.3997 50.828,81.2537 C51.592,80.2867 52.596,79.4607 53.178,78.5177 Z M62.73,29.7137 C65.512,28.8297 68.53,29.5817 70.631,31.4087 C72.419,34.1567 73.105,37.9667 71.871,41.1587 C71.067,43.3457 69.235,45.6747 66.742,45.9007 C63.789,47.2397 60.751,45.6997 58.415,43.7987 C56.686,41.9107 55.167,39.3067 56.269,36.7377 C56.852,33.4637 59.453,30.5727 62.73,29.7137 Z M69.441,22.6157 C66.825,22.5797 64.739,23.9307 62.162,23.7157 C61.995,23.4877 61.584,23.6077 61.506,23.2727 C61.378,22.9027 61.873,22.9977 62.059,22.8437 C62.75,21.9477 63.975,22.3657 64.753,21.6607 C65.468,21.5997 66.311,21.7567 66.747,21.1097 C68.408,20.9797 70.019,21.3497 71.038,22.4957 L71.042,22.8317 C70.479,23.1177 69.98,22.6767 69.441,22.6157 Z M73.061,25.3177 C72.762,26.6057 74.349,26.5227 75.054,27.0367 L75.284,27.3357 C75.04,27.8717 74.359,27.9337 73.859,27.7887 C72.527,27.4187 70.822,27.5387 69.627,28.1487 C68.98,28.2447 68.373,28.1487 67.908,27.7417 C68.025,26.6797 69.451,27.3477 70.156,27.0367 C70.685,26.7497 71.244,26.5717 71.724,26.1527 C70.431,24.8987 68.461,26.0567 66.83,25.9857 C65.777,26.2847 64.381,26.6307 63.529,25.8667 C63.48,25.6377 63.74,25.4477 63.926,25.3517 C65.532,25.7217 66.404,24.4087 67.805,24.3717 C69.039,23.7987 70.494,24.2177 71.675,24.4797 C72.101,24.8497 72.674,24.8737 73.061,25.3177 Z M77.406,21.9597 C76.759,21.9357 76.813,21.1707 76.348,20.8477 C75.995,20.5487 75.681,20.1547 75.118,20.3107 C74.413,20.9087 74.256,21.8637 73.82,22.5917 L73.84,23.2377 C72.973,23.3797 72.635,22.2087 72.047,21.6947 C71.699,20.1547 72.806,19.0547 73.683,17.9697 C74.741,17.8967 75.966,18.3157 76.598,19.2457 C76.935,20.1077 77.67,20.8107 77.406,21.9597 Z M74.134,29.8797 C73.154,29.9877 71.949,30.2037 71.166,29.4737 C71.439,28.5897 72.664,28.8637 73.379,28.5427 C74.77,28.2317 75.638,29.3067 76.784,29.5687 C76.828,29.6897 76.906,29.7967 76.876,29.9517 C76.049,30.2867 75.123,29.7727 74.134,29.8797 Z M77.719,34.3727 C77.592,33.8107 77.994,33.0347 77.366,32.6867 C76.769,32.8897 76.054,33.0227 75.53,33.2377 C75.339,33.1887 75.177,32.8897 75.133,32.6747 C75.162,32.5567 75.201,32.4367 75.192,32.2457 C76.387,31.4937 77.577,30.6937 78.885,30.1667 C79.14,29.7017 79.801,28.9717 80.237,29.7137 C80.105,31.6117 78.939,33.1307 78.072,34.7417 C77.739,34.8737 77.915,34.4797 77.719,34.3727 Z M89.642,91.2787 C87.928,93.4877 85.326,95.2317 82.363,95.1017 C80.918,94.8027 79.424,94.3957 78.395,93.1297 C78.591,91.8757 76.984,91.4697 77.249,90.1667 C76.343,87.6587 75.084,85.1847 75.564,82.1377 C75.206,79.0077 75.868,75.6867 76.651,72.7477 C76.935,72.2807 77.533,70.5137 78.248,71.7067 C78.258,74.5167 77.469,77.3477 78.571,79.9627 C78.924,80.1537 79.154,80.5487 79.61,80.5017 C80.423,79.7597 79.551,78.4567 80.242,77.6097 C80.654,77.3227 80.898,77.8127 81.06,78.1117 C81.53,81.0137 81.06,84.5507 82.466,87.1317 C82.745,87.6097 83.333,88.0157 83.852,87.8127 C84.332,87.5257 84.102,87.2267 84.126,86.7867 C82.603,82.8427 82.637,77.6097 84.224,73.7617 C84.528,73.6787 84.577,73.9067 84.729,74.0977 C85.032,76.7377 84.361,79.3777 85.262,81.8517 C86.394,81.5527 86.277,80.2617 86.629,79.4247 C87.349,76.6667 86.507,73.9647 87.374,71.2877 C87.682,71.3127 87.618,71.6947 87.849,71.8397 C89.813,77.8127 93.854,85.1117 89.642,91.2787 Z M105.64,72.1507 C104.126,69.8797 102.809,67.5387 102.456,64.7787 C102.524,64.5877 102.789,64.5387 102.946,64.6827 C104.126,66.2477 105.64,68.5887 107.883,68.5647 C108.539,67.8597 107.57,67.1317 107.393,66.3797 C107.261,65.5427 106.663,64.6957 107.016,63.8357 C107.736,63.6787 107.721,64.5387 108.226,64.8367 C109.695,65.7827 111.209,67.0117 111.562,68.7557 C111.576,70.4527 111.366,72.4737 110.004,73.5367 C108.486,73.5467 106.879,73.2127 105.64,72.1507 Z M104.288,73.2127 C104.826,73.4997 105.223,74.1337 105.767,74.4547 C106.849,75.3757 107.726,76.7497 107.168,78.2787 C106.805,78.9347 106.717,79.7717 106.007,80.2127 C104.611,80.2497 103.651,78.6507 102.681,77.9207 C101.819,76.9997 101.182,75.8777 101.52,74.5037 C101.657,74.0847 102.074,74.3007 102.309,74.4087 C103.151,74.6827 103.803,76.2237 104.689,75.5427 C104.669,74.7167 103.925,74.0147 104.288,73.2127 Z M98.253,88.0867 C96.274,86.6667 95.794,84.4077 95.197,82.2707 C95.255,81.5407 94.922,80.6807 95.353,80.0957 C95.691,80.0127 95.706,80.5017 95.946,80.7277 C97.117,81.8737 97.773,83.7027 99.36,84.4547 C99.664,84.7407 99.683,85.1597 100.105,85.4097 C100.496,85.6377 100.937,85.3507 101.114,84.9697 C101.094,84.2887 100.467,83.6537 100.036,83.0587 C99.644,81.4447 97.91,80.3207 98.336,78.4097 C99.042,77.7537 99.536,79.1037 100.222,79.3777 C102.368,80.1197 105.209,81.2417 105.561,83.8817 C105.669,85.2927 105.806,87.2147 104.356,88.1697 C102.574,89.2117 100.065,88.9827 98.253,88.0867 Z M104.053,131.8387 C103.661,132.5787 102.867,132.7107 102.182,132.5437 C99.38,131.5987 98.263,128.3757 97.464,125.7797 C98.14,125.5787 98.321,126.5927 98.934,126.7987 C100.046,127.0727 100.487,129.1737 101.721,128.5427 C101.525,127.2497 100.173,126.4947 99.948,125.2557 C99.791,124.7317 99.272,124.1677 99.561,123.6347 C100.281,123.7617 100.055,124.8247 100.888,124.9567 C102.529,125.3287 103.832,126.9157 104.513,128.3757 C105.086,129.5317 104.709,130.8737 104.053,131.8387 Z M99.693,149.1497 C99.869,146.2257 100.771,143.5707 100.878,140.6217 C100.751,140.1657 101.368,139.4267 101.515,140.2887 C102.054,143.0807 101.456,146.1027 102.333,148.7527 C102.211,150.7017 102.691,153.1167 100.986,154.2297 C100.271,154.6697 99.727,153.9547 99.59,153.3917 C98.904,151.8977 100.046,150.6927 99.693,149.1497 Z M88.015,159.2347 C88.319,156.8647 89.887,154.9687 90.778,152.8867 C92.6,150.5257 93.776,147.8707 94.717,145.1477 C94.848,144.5747 94.373,144.0987 94.824,143.6287 C95.808,145.1087 96.176,147.1467 95.97,149.1247 C96.049,154.2877 90.558,156.9137 89.823,161.7527 C89.24,162.2667 88.799,163.0357 88.437,163.6187 C87.682,162.4237 88.084,160.6657 88.015,159.2347 Z M86.389,149.3407 C86.551,148.3857 87.291,147.7877 87.761,147.0577 C88.564,144.7897 89.985,142.6587 91.092,140.6307 C91.934,139.4607 91.582,137.8837 92.189,136.6437 C92.87,136.8207 92.865,137.7607 93.188,138.2897 C93.452,140.9647 93.497,143.7367 92.542,146.0097 C90.886,148.8167 88.77,151.3887 87.33,154.2777 C86.742,154.7877 86.84,155.5807 86.521,156.2377 C85.277,154.1407 85.463,151.4467 86.389,149.3407 Z M81.07,144.7067 C79.257,142.6007 77.396,140.0437 78.527,137.1627 C78.66,135.2187 79.399,133.3427 81.031,132.1277 C81.359,131.6577 81.109,130.8347 81.784,130.6577 C82.098,131.1087 81.579,131.4227 81.515,131.7647 C81.834,133.7247 82.951,136.6537 81.138,138.2997 C81.114,138.6327 81.128,139.0937 81.471,139.2307 C83.382,139.7497 83.01,137.2607 84.126,136.5857 C84.322,138.1337 83.181,139.4167 82.157,140.5137 C82.324,141.0377 82.965,141.0527 83.392,141.3367 C84.489,141.2287 84.792,139.9747 85.262,139.2007 C85.767,136.9187 85.537,134.4547 84.234,132.5887 C84.322,131.9467 83.911,130.8937 84.499,130.3057 C85.762,130.4277 86.37,131.8147 87.041,132.6617 C87.937,134.8367 88.358,137.5157 87.594,139.8427 C87.898,142.1597 85.831,142.7087 84.499,144.1927 C83.534,144.7067 82.186,145.3137 81.07,144.7067 Z M73.497,149.3797 C72.39,147.8217 71.993,145.9357 71.106,144.2507 C70.872,142.4827 70.617,140.6407 71.102,138.9467 C71.273,138.4957 71.302,137.8837 71.782,137.5647 L71.979,137.7507 C71.826,141.6597 74.486,144.3447 76.661,147.2047 C78.302,148.8607 81.461,149.3647 81.207,152.3037 C81.207,153.5827 82.089,155.0427 81.251,156.1977 C80.874,156.2227 80.977,155.9477 80.746,155.7567 C78.802,152.9757 75.956,151.5837 73.497,149.3797 Z M61.016,162.3747 C61.506,161.1457 61.956,159.9117 63.146,159.0787 C63.681,157.8437 65.14,158.4217 66.066,157.8927 C66.884,158.5887 68.931,157.2367 68.677,158.9117 C67.638,160.9197 66.874,163.2217 67.443,165.6227 C66.903,166.7497 64.582,165.3777 65.062,167.2877 C65.821,168.6397 67.462,167.7487 68.187,169.0507 C68.501,170.7167 68.706,172.4607 68.946,174.1557 C68.883,174.4197 68.535,174.3607 68.422,174.2387 C67.139,173.2927 65.41,172.4707 63.803,173.3527 C62.838,173.8807 62.221,174.9687 61.407,175.7427 C60.923,176.0167 60.791,175.3507 60.663,175.0367 C59.561,170.9417 60.027,166.2697 61.016,162.3747 Z M64.641,147.3467 C64.891,149.4727 65.302,151.7307 64.18,153.5427 C63.857,154.0477 63.22,154.4447 62.682,154.0827 C61.908,153.8077 61.814,152.9017 61.751,152.1717 C61.614,150.0067 61.368,148.2437 62.064,146.2937 C62.446,145.0297 62.745,143.6387 62.897,142.2767 C63.127,141.2527 63.21,140.1507 63.593,139.2007 C63.881,139.8677 63.798,140.6997 64.082,141.3757 C64.523,143.3357 63.749,145.5547 64.641,147.3467 Z M65.013,128.1497 C65.454,127.7877 65.669,127.2147 66.149,127.0827 C66.179,128.0277 65.297,128.8167 64.983,129.7717 C64.631,130.8097 63.906,131.7067 64.014,132.9117 C64.445,133.4597 64.969,133.0337 65.376,132.7937 C66.561,131.9317 67.257,130.8097 68.241,129.7477 C68.398,129.8547 68.334,130.1297 68.334,130.3207 C68.153,130.4037 68.197,130.5997 68.197,130.7757 C67.158,132.8917 66.037,135.6937 63.396,136.3057 C62.495,136.5557 61.614,136.3697 60.987,135.6647 C60.33,133.9797 60.84,131.9117 61.858,130.5997 C63.054,129.7577 63.651,128.4937 65.013,128.1497 Z M56.549,97.7757 L59.204,95.1967 C59.502,95.1847 59.84,95.1727 59.928,95.5057 C60.32,97.1657 59.498,98.7797 58.934,100.2497 C58.993,100.9667 58.214,101.6727 58.768,102.2697 C59.561,102.1627 60.066,101.2297 60.575,100.6807 C61.711,99.2237 62.652,97.5847 64.131,96.4857 C64.278,96.4857 64.435,96.5217 64.513,96.6667 C64.322,99.0907 63.132,101.1457 62.172,103.2967 C60.977,105.1477 59.057,106.9157 56.657,106.4967 L56.074,105.9487 C55.873,103.2967 54.942,100.0587 56.549,97.7757 Z M62.152,79.4247 C61.05,80.6317 59.752,81.6117 58.033,81.2537 C57.616,81.1217 57.078,80.9427 56.95,80.4897 C56.485,77.6927 58.939,76.0317 59.321,73.5957 C59.835,73.0467 60.222,72.1967 60.947,72.1747 C61.3,73.8697 60.59,75.3757 60.217,76.9407 C60.756,77.2277 61.187,76.3067 61.55,75.9127 C62.661,73.8347 63.318,71.5407 63.857,69.2117 C64.063,68.7457 64.533,69.0787 64.582,69.4147 C65.111,73.1887 63.955,76.4847 62.152,79.4247 Z M77.317,94.9327 C77.087,96.3427 76.598,97.6097 76.372,99.0197 L75.936,99.5217 C76.357,99.8917 75.887,100.6197 75.828,101.1217 C75.231,103.9767 72.836,106.2237 70.048,106.8327 C69.054,106.6787 68.099,106.4017 67.286,105.8167 C66.003,104.6707 66.316,102.5787 66.419,101.0137 C67.428,97.8127 69.387,94.9447 71.195,92.1257 C71.381,91.9687 71.871,91.6477 71.915,92.1007 C72.312,94.9327 71.743,97.5627 70.906,100.0217 C70.695,100.5947 70.979,101.2297 71.557,101.5157 C72.571,101.1827 72.801,99.9267 73.575,99.2947 L73.565,98.8757 C74.751,96.8697 75.907,94.8247 76.367,92.5447 C76.509,92.2337 76.813,92.2917 77.082,92.2797 C77.749,92.9857 77.249,94.0257 77.317,94.9327 Z M72.928,123.9377 C73.654,122.6647 75.114,121.9487 75.868,120.6317 C76.352,120.4997 76.74,120.7887 76.979,121.0867 C76.975,123.5117 75.559,125.4077 74.285,127.4307 C75.025,128.0027 75.525,126.8177 76.357,127.0237 C77.915,125.8047 77.896,123.8297 79.032,122.3897 C79.478,122.2577 79.796,122.7477 79.963,123.0807 C81.574,126.4157 79.277,129.4037 77.719,131.8727 C76.749,133.6757 74.609,133.0687 73.027,133.2937 C72.145,133.1077 71.195,132.9407 70.901,131.9217 C70.313,128.8757 72.253,126.5727 72.928,123.9377 Z M70.2,117.7757 C71.518,116.4137 72.498,114.6697 73.585,113.2007 C73.967,113.0347 73.977,113.4157 74.173,113.5947 C74.663,117.3687 72.605,120.8467 69.549,122.6837 C68.765,123.0947 67.751,123.2227 66.835,123.1047 C66.247,122.5177 65.959,121.8017 65.41,121.2137 C65.101,118.3857 65.699,115.5177 67.721,113.6067 C68.535,112.7817 68.618,111.7897 69.51,111.0867 C70.665,111.7307 70.078,113.5707 70.185,114.7407 C70.185,116.1027 69,116.9747 68.931,118.3027 C69.358,118.8267 69.789,118.0157 70.2,117.7757 Z M95.887,120.9307 C94.197,118.9707 92.919,116.8087 93.027,114.0357 C93.178,113.8447 93.355,113.7277 93.59,113.7977 C93.943,114.2387 93.913,114.8857 94.276,115.3627 C94.834,116.3427 95.074,118.0277 96.597,118.0277 C96.999,117.7877 96.803,117.2267 96.705,116.8917 C96.705,115.4467 95.569,114.1557 96.284,112.6517 L96.514,112.6517 C98.429,114.6337 100.8,116.7247 100.094,119.7447 C99.928,120.5877 99.071,121.0627 98.365,121.3517 C97.572,121.4597 96.617,121.3217 95.887,120.9307 Z M91.493,126.5437 C90.964,125.4217 89.504,124.7067 89.387,123.4287 C89.333,122.9727 89.083,122.1847 89.686,121.9347 C91.954,122.8507 94.05,124.4907 95.735,126.4947 C96.421,127.7637 96.48,129.8057 95.49,130.8937 C95.431,131.5397 95.181,132.1967 94.55,132.5587 C93.913,132.8767 93.051,132.9847 92.243,132.8527 C89.554,131.3837 88.099,128.4687 87.624,125.5157 L87.928,125.5157 C89.137,126.3867 89.324,128.8067 91.233,128.2187 C91.689,127.8567 91.66,127.1067 91.493,126.5437 Z M93.991,97.3817 C93.316,96.1867 93.462,94.6237 93.158,93.2377 C93.316,92.2087 93.987,93.4037 94.226,93.6907 C95.304,96.6537 99.61,97.4057 99.86,100.6557 C100.296,101.4817 100.301,102.7697 99.717,103.5487 C98.655,104.6337 97.033,105.1847 95.363,104.8857 C92.904,103.9057 91.317,101.5157 89.583,99.6057 C89.465,98.1947 88.295,97.0237 88.907,95.6037 C89.353,95.5427 89.705,95.9617 89.98,96.2107 C91.239,97.8487 92.84,99.1257 94.501,100.3207 C94.8,100.3207 95.181,100.3447 95.289,99.9997 C95.672,98.8417 94.217,98.3617 93.991,97.3817 Z M79.419,107.7637 C79.536,107.9197 79.659,108.0987 79.884,108.0157 C80.315,107.3597 79.943,106.3897 80.541,105.9117 C80.795,105.6377 81.295,105.7087 81.589,105.8047 C82.882,107.0237 82.265,109.0537 82.466,110.5607 C82.392,112.3047 81.878,113.8347 81.246,115.3387 C81.559,115.8167 82.069,115.4217 82.451,115.3047 C83.72,113.4377 83.646,111.0507 84.077,108.8387 C84.209,108.3857 84.087,107.7757 84.459,107.4667 C84.758,107.3817 84.988,107.7167 85.032,107.9447 C85.082,109.4607 84.782,110.9897 84.9,112.4247 L85.174,112.5667 C86.717,110.7387 85.87,107.8837 86.791,105.7327 C87.207,104.5377 86.86,103.1057 87.241,101.9217 C88.045,101.9717 88.045,103.1517 88.251,103.8227 C88.162,104.7287 88.785,105.3267 89.034,106.0437 C89.612,111.1707 90.959,117.9327 86.086,121.1457 C84.361,122.0667 82.275,121.8607 80.609,121.0477 C79.071,120.3327 78.807,118.7797 78.008,117.5967 C77.087,114.7067 75.774,111.5647 76.632,108.2657 C77.219,105.1477 77.459,101.9097 79.169,99.2107 C79.478,99.4607 79.262,100.0707 79.277,100.4897 C79.203,102.9607 78.63,105.3637 79.419,107.7637 Z M69.901,73.0687 C71.812,72.4837 72.831,70.8227 73.888,69.3537 C73.888,68.2907 74.937,67.7667 75.329,66.8327 C75.554,66.7247 75.559,66.9877 75.672,67.0607 C75.672,70.8107 74.065,74.2057 71.072,76.5587 C70.475,76.9997 69.603,76.9867 68.917,76.8917 C67.991,76.3187 66.575,75.9737 66.61,74.6457 C66.693,72.3757 67.197,70.1907 69.25,68.9597 C69.911,68.2557 70.156,67.4557 71.013,67.2027 C70.793,68.5307 70.46,69.9877 70.195,71.3957 C70.362,72.0767 69.431,72.5197 69.901,73.0687 Z M64.416,86.8087 C66.414,85.3027 67.903,83.0347 69.363,81.2047 C69.51,81.0387 69.818,81.2657 69.867,81.4447 C69.862,85.1237 67.717,88.1947 65.488,91.0967 C64.136,92.7697 61.692,93.6437 59.448,93.2127 C57.769,92.9607 57.68,91.1457 57.034,89.9877 C56.96,88.5887 57.567,87.4307 58.214,86.3437 C60.144,85.0057 62.794,83.5247 63.828,81.2907 C64.048,80.9797 64.489,80.7027 64.768,81.0387 C64.689,83.4997 63.309,85.4467 62.422,87.5977 C63.112,87.9087 63.779,87.1687 64.416,86.8087 Z M56.838,68.1947 C57.93,67.9327 58.312,66.8577 59.164,66.2597 C59.978,65.4467 60.624,64.3247 61.545,63.3917 C62.034,63.2967 62.495,63.4757 62.622,63.9307 C62.779,65.3637 62.059,66.4387 61.79,67.7057 C60.36,70.7767 58.522,73.7497 54.937,74.3127 C53.913,74.4547 53.071,74.0267 52.473,73.2847 C52.434,71.9717 51.797,70.8477 51.983,69.5567 C52.169,66.8917 53.928,64.8617 55.383,62.6987 C55.785,62.2707 56.759,61.7077 57.117,62.4957 C56.754,64.1687 56.382,65.8167 56.402,67.6337 C56.519,67.8127 56.607,68.0507 56.838,68.1947 Z M71.342,155.4727 C68.256,153.7887 67.707,150.4967 68.138,147.3127 C68.197,146.7737 68.246,146.0097 68.892,145.8427 C69.515,146.2837 69.343,147.0677 69.74,147.5967 C71.459,150.6187 74.888,152.3777 77.014,155.0767 C79.062,156.2717 79.855,158.6377 80.002,160.9787 C80.325,161.6447 80.158,162.5317 79.914,163.1437 C79.693,163.2217 79.571,162.9577 79.414,162.8497 C77.876,159.6077 74.79,156.6297 71.342,155.4727 Z M77.043,174.6937 C76.063,174.6847 75.211,174.2877 74.369,173.8907 C73.34,173.7047 73.183,174.9197 72.321,175.1737 C72.057,175.3747 71.88,175.7577 71.538,175.8007 C71.136,174.9097 71.214,173.7727 71.072,172.7107 C70.509,171.5887 70.842,170.2467 71.42,169.2477 C72.204,168.6987 72.85,167.5717 74.114,167.9537 C74.442,167.6407 74.584,167.2147 74.486,166.7587 C74.016,166.1417 73.188,166.2697 72.546,166.4017 C71.685,166.8077 70.92,167.5817 70.215,168.1797 C69.265,166.8467 69.324,165.0637 69.162,163.4037 C69.265,161.8017 69.588,159.9747 70.964,159.2447 C72.204,159.8527 73.904,159.6857 74.555,161.2287 C76.416,163.9377 78.772,166.4847 79.062,169.8937 C79.238,171.8967 79.492,174.1157 78.444,175.7817 C77.9,175.4587 77.7,174.9687 77.043,174.6937 Z M73.261,176.6437 C74.085,175.9387 75.505,175.3117 76.588,175.9727 C77.484,176.7707 77.411,178.1137 77.44,179.1617 C76.402,181.2877 74.442,182.9727 72.346,183.7857 C72.155,183.7617 71.929,183.6187 71.841,183.4227 C71.792,181.8757 72.674,180.7137 72.546,179.1617 C72.101,178.1427 72.801,177.4077 73.261,176.6437 Z M96.078,171.8047 C94.824,171.6967 94.148,173.0337 93.007,172.9257 C92.262,172.0687 92.674,170.6877 92.199,169.7567 C91.679,166.4357 92.257,162.8887 95.03,160.8317 C95.559,160.5227 96.127,160.7637 96.626,160.9397 C97.646,161.9687 98.106,163.3547 98.821,164.5987 C99.272,165.5297 100.05,166.2937 100.129,167.4447 C100.698,168.8997 100.296,170.5847 100.026,171.9907 C98.782,172.1717 97.469,171.1577 96.078,171.8047 Z M99.438,180.2247 C97.494,179.7197 95.123,178.0057 94.677,175.8997 C94.476,175.4097 94.158,174.8507 94.413,174.3127 C95.363,173.2927 96.911,173.0927 98.277,173.0587 L98.704,173.5387 C98.429,175.6737 97.724,178.5247 99.438,180.2247 Z M104.17,174.9437 C104.513,173.3427 106.286,173.4397 107.374,172.7547 C107.785,172.7107 108.284,172.7347 108.373,173.2247 C107.903,176.3057 107.491,179.4747 105.414,181.9537 C105.194,182.2327 104.934,182.4577 104.552,182.3997 C104.278,182.2177 104.336,181.8017 104.444,181.5717 C105.571,179.6417 105.218,176.8447 104.17,174.9437 Z M107.844,163.2807 C108.696,165.0737 109.098,167.0727 109.573,168.9927 C109.598,169.9717 109.96,170.7947 109.304,171.5007 C106.938,171.1577 104.768,172.1717 102.955,173.4397 C102.387,173.6067 101.966,173.2737 101.652,172.9507 C101.324,172.0887 101.555,171.0497 101.569,170.1387 C102.059,169.0317 101.442,167.3807 102.524,166.6607 C103.043,166.2007 104.102,166.2697 104.15,165.3287 C103.22,164.6727 101.545,165.5147 101.006,164.2017 C99.938,162.7577 98.826,161.0867 98.782,159.2347 C100.359,157.7067 102.809,157.2167 104.949,157.8247 C105.532,158.1087 106.222,158.4317 106.541,159.0687 C107.217,160.3817 107.31,161.9337 107.844,163.2807 Z M108.99,133.9887 C109.196,129.7367 110.019,125.6527 109.97,121.4447 C110.479,120.7887 111.459,120.6067 112.375,120.5727 C112.542,121.1847 112.389,122.1747 112.59,122.8897 C112.713,126.9747 111.885,130.9817 112.238,135.1847 C112.174,136.8887 111.615,138.4667 111.674,140.2397 C111.395,141.2777 111.361,142.4487 111.204,143.5117 C111.273,147.0087 110.337,150.0707 109.754,153.2687 C109.235,153.9647 109.401,155.4437 108.378,155.3847 C107.129,154.4447 107.844,152.9457 107.922,151.7307 C108.314,150.7267 108.011,149.4577 108.392,148.4197 C107.971,143.3937 109.514,139.0537 108.99,133.9887 Z M109.509,101.4447 C107.775,101.8737 106.962,99.9267 105.532,99.2447 C103.925,97.3227 102.304,95.1357 102.299,92.5197 C102.407,92.2917 102.671,92.2337 102.901,92.2677 C104.111,93.6437 105.081,95.6627 106.962,96.2477 C107.232,96.2717 107.535,96.1867 107.599,95.8777 C107.324,94.3717 106.286,92.8897 106.741,91.3617 C107.844,91.5157 108.486,92.7817 109.519,93.0927 C110.225,93.8347 109.955,94.8617 109.823,95.7457 C109.509,97.5727 110.097,99.7127 109.509,101.4447 Z M121.53,70.3697 C119.815,70.0467 118.664,68.4467 117.596,67.1077 C117.288,65.6377 116.078,64.6217 116.034,63.0687 C115.863,62.1627 115.559,60.9917 115.877,60.1787 L116.024,60.1787 C117.268,62.4607 119.154,64.4427 120.883,66.5217 C121.5,67.0707 122.49,67.2647 122.823,68.0507 C122.661,68.9367 122.421,69.9637 121.53,70.3697 Z M120.428,72.0547 C120.609,71.8267 120.947,71.5527 121.285,71.3857 C122.157,71.3617 122.882,71.6357 123.606,71.9597 C124.165,72.9387 124.405,74.4427 123.9,75.4837 C122.49,76.0937 121.285,75.2927 120.305,74.4087 C119.904,73.5587 120.756,72.8777 120.428,72.0547 Z M94.285,32.0547 C95.813,29.8797 98.273,29.4367 100.594,28.8297 C103.249,28.9837 105.958,29.1627 107.736,31.4937 C109.519,33.9897 110.386,37.6807 109.225,40.6687 C107.657,43.8697 104.567,46.0447 100.967,46.1157 C99.575,46.4977 98.263,45.7457 96.999,45.2807 C95.04,44.3967 94.334,42.4127 93.257,40.8477 C92.37,37.8377 92.963,34.5997 94.285,32.0547 Z M94.31,48.5057 C93.796,49.0207 93.242,49.5227 92.6,49.7727 C92.272,48.9127 92.894,48.0167 93.33,47.2517 C93.36,47.0247 93.541,46.8207 93.452,46.5347 C93.105,46.1527 92.316,46.4027 92.375,45.6867 C92.287,45.3177 92.463,44.9937 92.6,44.7297 L93.404,44.7077 C94.648,45.7707 96.054,47.0127 97.264,48.1247 C97.371,49.2107 97.322,50.1667 96.823,51.1707 C96.744,52.3417 95.931,53.2377 95.627,54.3127 C95.75,54.5747 96.054,54.6337 96.269,54.4797 C97.406,53.0107 97.925,51.2417 99.174,49.8797 C100.565,49.5687 102.172,49.9877 103.641,49.6767 C104.719,50.2497 104.013,51.7787 104.709,52.5917 C104.924,53.3087 104.65,54.3007 105.307,54.7417 C106.286,54.5997 106.066,53.3917 106.389,52.7357 C106.766,51.3957 106.541,50.3457 106.424,48.9377 C106.188,48.6847 106.375,48.3737 106.404,48.0747 C106.727,47.7537 107.29,47.5847 107.678,47.8837 C108.535,48.3857 109.284,49.6517 110.176,50.2747 C110.44,50.0347 110.312,49.5817 110.225,49.3287 C110.048,48.1947 108.887,47.4677 108.623,46.4147 C108.647,45.9977 109.132,45.7457 109.48,45.9737 C110.631,46.3897 110.215,47.7667 111.15,48.4227 C111.566,48.2907 111.351,47.6927 111.273,47.4307 C110.856,46.4147 110.372,45.4477 110.293,44.2767 C110.553,43.7397 111.057,44.1807 111.439,44.1687 C112.752,44.7657 114.124,45.2927 115.328,46.2107 C116.769,47.4187 117.014,49.3067 117.474,50.8477 C117.18,52.3757 118.346,54.2267 116.964,55.2927 C115.848,55.6747 115.074,56.8697 113.908,57.1317 C113.408,56.6917 113.496,55.9737 113.139,55.4957 C112.238,54.4557 111.782,52.1137 109.911,52.6277 C109.176,53.3677 110.293,54.2177 110.548,54.9937 C110.666,56.4387 112.233,58.0157 110.905,59.3067 C109.362,58.5647 108.868,60.8597 107.334,60.2127 C105.64,59.7017 104.106,62.6987 102.789,60.4287 C102.911,58.3397 102.657,56.2597 102.411,54.0977 C102.162,53.4627 101.98,52.5327 101.261,52.3287 C100.511,52.9027 101.114,54.0367 100.834,54.8027 C100.707,56.7377 100.188,58.5647 99.331,60.2247 C98.89,60.6927 98.332,61.0877 97.646,60.8477 C97.489,60.7767 97.371,60.6317 97.253,60.5117 C97.146,59.4977 97.528,58.3857 97.802,57.3937 C97.646,57.1317 97.273,57.2157 97.082,57.3357 C95.98,58.6137 94.604,60.7027 92.507,60.3577 C92.238,60.0957 91.777,59.9637 91.689,59.6647 C92.296,58.5767 93.712,57.7047 93.605,56.4507 C92.615,56.4017 92.003,57.5627 91.067,57.7417 C90.533,54.0147 94.31,52.1847 94.814,48.7217 C94.658,48.6137 94.54,48.4357 94.31,48.5057 Z M95.397,72.0057 C92.894,70.7637 90.583,68.3277 90.308,65.5307 C90.455,65.2197 90.837,65.2097 91.033,65.3167 L93.531,67.6677 C95.344,68.8297 97.734,70.0097 98.615,72.1507 C98.762,72.8657 98.9,73.8817 98.273,74.3257 C97.435,75.3637 96.235,75.9367 94.864,75.6257 C92.345,75.3267 90.053,73.3547 88.877,71.0747 C88.456,69.3777 88.397,67.5257 89.074,65.9497 C89.906,65.9247 89.441,66.8917 89.838,67.2867 C91.072,69.3777 92.781,72.0887 95.344,72.7357 C95.598,72.5077 95.554,72.2677 95.397,72.0057 Z M82.358,57.5267 C82.549,57.6707 82.691,57.6707 82.921,57.5727 C83.49,56.3187 83.337,54.7667 83.519,53.3217 C83.754,49.8557 84.136,46.4267 84.65,43.0467 C84.9,42.5787 84.792,41.7907 85.488,41.7317 C86.517,41.9597 87.771,42.0797 88.261,43.1647 C88.662,47.7757 88.27,52.4837 86.991,56.6667 C86.37,58.7677 84.939,60.3577 83.862,62.2927 C83.274,62.9507 83.122,64.1317 82.059,64.2767 C79.062,60.0467 77.161,55.2807 77.004,49.7477 C77.053,47.7057 75.76,44.9327 77.533,43.4047 C78.846,42.9147 79.909,41.5897 81.388,41.7077 L81.589,42.2707 C82.078,47.2517 80.766,52.6397 82.358,57.5267 Z M47.232,52.1377 C45.86,52.1017 45.851,50.4777 45.449,49.5447 C45.082,48.9467 45.067,48.2197 45.077,47.4677 C45.557,46.9537 45.767,46.5347 45.753,45.8537 C45.248,45.4837 44.381,45.7457 44.205,44.9107 C44.21,43.8107 43.862,42.4127 44.989,41.8517 C46.145,41.2537 47.746,41.6237 48.785,40.8007 C48.927,40.5977 48.692,40.2987 48.467,40.3107 C47.056,40.2377 46.017,40.8727 44.813,41.1457 C44.352,40.9307 44.411,40.4657 44.215,40.1297 C44.19,36.8337 43.676,33.7037 44.881,30.8597 C44.675,30.2617 44.459,29.5107 44.979,29.0327 C46.301,28.7687 47.119,30.8007 48.388,30.2987 L48.388,30.1177 C47.374,29.2357 46.625,28.1947 45.292,28.0407 C44.577,27.0367 45.067,25.7337 45.341,24.7077 C45.635,24.3257 45.88,23.7747 46.458,24.0977 C47.546,24.5997 48.055,25.4957 49.172,26.0327 C49.475,25.7947 49.642,25.4107 49.524,25.1017 C48.461,23.7397 45.757,23.3677 46.948,21.1227 C47.183,20.3217 47.643,19.2117 48.476,18.9957 C49.544,19.3067 50.102,20.5367 51.082,21.1587 L51.337,21.0017 C50.475,20.1547 49.995,19.0677 50.254,17.8007 C50.959,17.1817 51.631,18.1367 52.287,18.3857 L53.355,18.6607 C54.393,19.2337 55.706,19.8437 55.745,21.2417 C56.617,22.5077 56.882,24.0147 58.096,25.1137 C58.43,25.9857 59.125,26.4887 59.605,27.3107 C59.272,27.6587 58.782,27.6807 58.361,27.4897 C57.161,26.7377 56.657,25.3517 55.833,24.3137 C55.53,24.1687 55.383,24.5627 55.275,24.7077 C55.657,25.8417 55.917,27.0367 56.745,27.9677 L56.764,28.7557 C55.03,28.9247 53.502,27.3817 52.434,26.0087 C52.199,25.8287 51.856,25.6877 51.557,25.8907 C51.072,26.1647 51.464,26.6887 51.523,27.0607 C52.351,28.3617 53.086,30.0127 54.658,30.6807 C54.971,30.9307 55.138,31.4937 54.849,31.8517 C54.648,32.6527 53.874,32.3757 53.345,32.2337 C52.37,31.3617 51.239,30.4417 50.377,29.5937 L49.887,29.6057 C49.794,30.3817 50.651,30.8717 51.004,31.5037 C51.807,32.8557 54.237,32.8557 53.683,34.7667 C53.502,35.1137 53.595,35.6037 53.149,35.7707 C50.592,35.4227 47.153,34.5037 45.052,36.5837 C44.989,36.8577 45.189,37.1907 45.488,37.1807 C47.8,37.0247 49.965,37.3477 51.782,38.5427 C52.179,38.9497 52.65,39.4617 52.473,40.0347 C52.106,40.2747 51.572,40.2137 51.2,40.4537 C50.465,41.1217 49.603,41.4917 48.829,42.1627 C48.829,42.3047 48.868,42.4617 49.025,42.5327 C50.19,42.0797 51.308,41.4817 52.507,40.9797 C52.919,40.8967 53.301,41.0757 53.467,41.4447 C53.443,42.0547 52.767,42.1137 52.356,42.4247 C51.479,43.4877 49.794,44.1687 49.76,45.5787 L50.142,45.5667 C51.802,45.3267 52.566,42.9147 54.403,43.3577 C54.668,43.6077 55.03,44.0977 54.697,44.4427 C52.537,45.7587 49.691,47.0247 49.397,49.9167 C49.441,50.1077 49.333,50.3337 49.49,50.4407 C50.102,50.4647 50.039,49.7727 50.411,49.4617 C52.184,47.9677 53.84,46.2607 56.186,46.1057 C56.412,46.1767 56.715,46.2107 56.916,46.4637 C56.882,47.6687 55.153,48.3737 55.153,49.6647 C54.878,50.6197 54.57,51.5767 54.099,52.4957 C54.148,52.7357 54.452,52.7947 54.599,52.6397 C55.687,50.8967 56.637,48.4107 58.773,47.7757 C58.753,48.3857 59.424,47.9087 59.698,48.1587 C60.84,48.3617 61.995,48.8167 62.926,49.5097 C62.73,51.8987 61.829,54.8147 63.073,56.9407 C63.509,56.5467 63.112,55.8287 63.328,55.3387 C63.426,53.5467 64.523,52.1507 64.729,50.3947 C64.905,49.8677 65.512,49.7357 65.973,49.8797 C66.928,50.2617 66.963,51.4327 67.888,51.8987 C68.623,51.1587 67.678,50.1177 68.031,49.1627 C68.354,48.5767 69.157,48.6387 69.725,48.8167 C69.96,48.9957 70.23,49.0547 70.538,49.0207 C70.822,48.7097 70.739,48.2437 70.725,47.8377 C71.944,46.8917 72.341,44.8987 74.016,45.3047 L74.379,45.7087 C74.334,46.8917 74.222,48.0647 73.987,49.1747 C73.526,49.1497 73.277,48.1707 72.679,48.5647 C72.238,48.9717 72.439,49.4857 72.645,49.9387 C73.169,50.9797 73.614,52.0677 74.182,53.0687 C74.227,53.3797 74.545,53.7867 74.212,54.0607 C72.919,54.1437 72.351,52.7947 71.646,52.0547 C71.18,51.7317 70.856,52.2217 70.793,52.6157 C70.538,54.3257 71.714,55.6137 72.997,56.6427 C73.492,56.6177 73.8,56.9167 74.153,57.2517 C74.016,57.8617 73.463,58.2907 74.046,58.8417 L74.687,59.7357 C73.982,60.3577 73.051,59.6767 72.282,59.4607 C70.548,58.3857 69.054,56.6057 68.687,54.6117 C68.569,54.3717 68.226,54.3127 68.04,54.4797 C67.472,55.7827 68.197,57.0827 68.794,58.1237 C69.646,58.7097 70.548,59.6297 70.313,60.7397 C70.019,61.1707 69.343,61.3737 68.809,61.1927 C67.374,59.9997 67.247,58.2067 67.075,56.4387 C66.884,56.3677 66.688,56.1767 66.502,56.3797 C66.189,57.1567 66.218,58.1707 66.237,59.0087 C66.037,59.7597 66.522,60.8227 65.934,61.4447 C65.042,61.9597 63.779,61.5407 62.808,61.9107 C61.614,61.4577 61.721,59.9757 61.682,58.7557 C61.486,58.4227 61.153,58.6977 60.967,58.8517 C59.85,59.4607 60.07,61.8387 58.229,61.1097 C57.068,60.4157 55.765,59.9637 54.864,58.8167 C54.251,57.3937 55.814,56.5837 55.814,55.3387 C56.206,54.3007 57.436,53.5827 57.631,52.4737 C56.896,52.0767 56.353,53.0467 55.765,53.4757 C54.785,54.8737 53.952,56.4147 53.316,57.8717 C53.178,58.2537 52.796,58.4567 52.38,58.3987 C50.666,56.8917 47.379,56.0447 47.898,53.1417 C48.265,52.6037 48.589,52.0677 48.8,51.4457 C48.065,50.8967 47.829,51.9347 47.232,52.1377 Z M115.74,91.5767 C115.495,94.6237 115.666,97.8487 115.299,100.8467 C114.966,101.1927 115.285,101.8027 115.113,102.2207 C114.52,105.3027 114.991,108.5177 114.412,111.5987 L114.031,111.6237 C112.894,110.3577 110.558,109.8557 110.616,107.8587 C111.9,102.6517 111.762,96.7747 112.13,91.3127 C112.786,86.8087 112.644,82.0057 112.36,77.4307 C112.463,77.2987 112.419,77.0487 112.649,77.0367 C114.065,77.4897 114.716,78.9467 115.955,79.7477 C116.112,83.7497 115.427,87.5017 115.74,91.5767 Z M126.232,67.1317 C127.04,67.5257 128.294,67.4897 128.554,68.5057 C129.769,68.8877 129.548,70.2257 130.298,70.9547 C130.347,71.5987 130.332,72.3657 129.769,72.6397 C127.956,72.8897 126.257,71.6847 125.154,70.3947 C124.733,69.2357 125.733,68.0997 126.232,67.1317 Z M132.139,84.7067 C131.787,84.1687 132.169,83.2597 131.709,82.7597 C131.268,80.6097 130.361,78.6597 130.396,76.2847 C130.102,74.8857 131.571,74.2397 132.443,73.6197 C132.997,72.3047 132.953,70.8107 132.321,69.5317 C131.875,67.4307 128.936,67.0707 128.936,64.7657 C128.848,63.0227 127.697,61.7557 128.005,59.8437 C127.231,57.3107 127.256,54.5507 127.065,51.8517 C126.384,48.9377 126.443,45.9977 126.09,42.9147 C125.605,39.2827 125.125,35.6627 124.283,32.2217 C123.852,29.1157 122.833,26.2477 121.27,23.6567 C121.03,21.7317 119.13,20.2627 120.105,18.1127 C121.819,15.7217 123.229,13.1177 124.185,10.3697 C125.027,8.7807 124.895,6.8217 125.292,5.0527 C125.164,3.5367 125.678,1.9597 125.154,0.5987 C124.89,0.3827 124.635,0.6567 124.454,0.7647 C123.705,3.2847 120.952,4.3377 119.11,5.8787 C116.347,7.0367 112.879,6.5837 109.764,6.9417 C107.687,6.8087 106.031,8.7927 103.984,7.5977 C102.96,6.8457 101.76,6.5467 100.702,5.9497 C98.282,5.7957 95.833,5.9867 93.639,5.7827 C90.146,5.9617 87.482,4.0027 83.994,4.1807 C79.678,4.0147 75.956,6.1997 71.439,5.8177 C67.433,4.7907 63.504,6.3197 60.281,7.9797 C59.047,7.7547 57.792,7.0487 56.49,6.8217 C52.992,5.4477 48.677,7.8747 45.723,5.1017 C44.391,3.6567 43.412,2.0187 43.455,0.0467 C42.912,0.3577 42.633,1.0757 42.5,1.6727 C41.726,3.0687 41.099,4.6467 40.904,6.3317 C40.516,8.4567 41.099,10.7527 41.574,12.7727 C41.903,16.3687 44.406,19.1987 43.852,23.0107 C43.235,24.7297 42.466,26.4267 41.961,28.2317 C40.492,29.9877 40.825,32.4247 40.414,34.5627 C39.081,38.5767 40.09,42.7107 40.291,46.9047 C38.797,51.7067 38.102,56.7837 37.548,61.9347 C37.122,65.2927 37.352,68.9247 36.025,71.9467 C34.222,73.7377 32.679,75.5787 33.242,78.2317 C33.433,79.6057 34.173,80.6927 34.839,81.8267 C35.212,84.5377 35.104,87.1437 34.927,89.8187 C35.143,92.0057 32.895,92.6747 32.537,94.5387 C32.077,96.3797 33.409,97.5967 34.565,98.7917 C35.27,99.9627 34.947,101.5987 35.319,102.9267 C35.642,106.3067 36.299,109.6277 36.622,112.8897 C37.514,117.7757 38.003,122.8897 39.037,127.5727 C40.134,133.3427 41.496,138.9957 43.074,144.5257 C44.832,148.5177 45.772,152.8767 47.315,156.9627 C48.417,160.3417 50.406,163.2957 50.377,167.1657 C50.553,167.5967 50.578,167.9637 50.661,168.3607 C50.867,170.7017 48.868,172.5687 49.059,175.0177 C49.059,175.0177 56.392,187.8217 65.082,193.3917 C68.618,189.3987 73.565,185.7547 79.919,185.8527 C90.436,186.0097 100.065,196.6287 110.215,204.1817 C110.935,203.3787 111.733,202.5307 112.585,201.6597 C109.265,196.9617 94.736,180.1417 82.5,178.1917 C82.5,178.1917 83.445,175.7717 82.309,174.6547 C81.378,173.3227 81.496,172.2937 81.114,170.7367 C81.055,170.0017 80.756,168.9727 81.304,168.3607 C83.137,168.7577 83.935,170.7367 84.792,172.1277 C84.925,172.2057 85.076,172.2547 85.213,172.2357 C85.356,172.2057 85.488,172.1277 85.571,171.9467 C85.816,170.1187 87.829,168.9827 89.216,168.1207 C89.504,167.9637 89.955,168.0617 90.073,168.4347 C90.396,170.4277 89.916,173.0087 91.376,174.5967 C91.846,175.2177 91.268,175.8307 90.945,176.3207 C90.792,177.5947 89.72,177.5257 89.72,177.5257 C98.812,181.8017 103.817,187.0827 108.961,193.1897 C112.389,190.8197 124.782,182.8447 124.616,174.5377 C124.557,171.7897 123.122,172.1277 122.451,170.6587 C121.305,169.6877 120.442,168.4097 119.776,167.1307 C118.439,164.4567 117.376,161.4787 117.915,158.1577 C118.845,155.7477 118.943,152.9947 119.991,150.6187 C121.344,146.1177 122.357,141.4347 123.744,136.9377 C125.38,130.7177 127.055,124.5257 127.897,118.0037 C128.799,115.8527 128.725,113.3677 129.181,111.0507 C130.073,108.8287 129.622,106.0807 130.18,103.7277 C130.464,101.8977 130.18,99.8677 130.983,98.2777 C131.258,97.3717 130.925,96.2347 131.463,95.4347 C131.268,93.9897 132.835,94.2397 133.168,93.0097 C134.383,92.5667 134.451,91.2177 134.986,90.2747 C135.245,87.9577 133.344,86.4627 132.139,84.7067 Z" id="Fill-59"></path>
                    <path d="M45.3557,9.6183 C46.6097,10.3943 48.0547,10.5483 49.4757,10.8473 C50.7887,11.1463 52.3757,10.6933 53.4437,11.7073 C53.9037,12.3883 55.1087,12.9513 54.7367,14.0023 L54.4427,14.2303 C51.6107,12.7953 47.7117,14.1563 45.3407,11.5873 C44.4007,11.3493 43.8517,10.3703 43.6067,9.5233 C43.5627,9.2243 43.6657,8.8763 43.8427,8.7223 C44.4357,8.7803 44.8317,9.4023 45.3557,9.6183" id="Fill-61"></path>
                    <path d="M121.6667,9.1283 C121.4607,9.8803 120.9177,10.5613 120.3787,11.2053 C117.6697,12.9273 114.3097,13.7993 110.9937,13.3923 C110.8127,13.3333 110.8027,13.0693 110.9057,12.9513 C113.0067,12.2343 115.2987,11.9843 117.2087,10.8133 C118.6007,10.0713 120.0257,9.2583 121.5787,9.0553 L121.6667,9.1283 Z" id="Fill-63"></path>
                    <path d="M60.8494,33.7036 C60.4824,33.5366 56.9154,39.1166 60.4824,42.1966 C65.1994,46.2726 70.5534,39.4026 69.4064,37.7416 C68.7604,37.4896 67.3634,41.6946 63.4064,40.8006 C58.6544,39.7236 61.2124,33.8706 60.8494,33.7036" id="Fill-65"></path>
                    <path d="M97.1853,40.931 C97.3123,42.329 102.8573,45.102 105.4683,41.183 C108.9993,35.878 103.9353,32.773 102.2793,33.919 C102.0243,34.551 105.3363,35.961 103.6803,39.523 C101.8773,43.417 97.1163,40.167 97.1853,40.931" id="Fill-67"></path>
                </g>
            </g>
        </g>
    </g>
</svg>